<svg width="1230" height="1008" viewBox="0 0 1230 1008" fill="none" xmlns="http://www.w3.org/2000/svg">
<path d="M1146 0H54V1008H1146V0Z" fill="white"/>
<rect width="1230" height="1008" fill="#023047"/>
<path d="M407.136 667.483H183.317V880.945H407.136V667.483Z" fill="#6885E0"/>
<path d="M381.545 503.578V699.494H183.318V503.578C183.318 490.226 194.188 479.356 207.54 479.356H357.323C370.675 479.356 381.545 490.14 381.545 503.578Z" fill="#6885E0"/>
<path d="M200.264 499.127V603.034C200.264 604.232 202.147 604.232 202.147 603.034V499.127C202.147 497.929 200.264 497.929 200.264 499.127Z" fill="#DEE7FF"/>
<path d="M981.618 675.529C972.289 675.529 964.671 667.911 964.671 658.582C964.671 648.225 971.347 641.635 981.618 641.635C991.119 641.635 998.907 649.252 998.907 658.582C998.907 667.911 991.204 675.529 981.618 675.529ZM981.618 643.432C974.343 643.432 966.554 647.369 966.554 658.496C966.554 666.798 973.316 673.56 981.618 673.56C989.92 673.56 997.024 666.627 997.024 658.496C997.024 650.365 990.006 643.432 981.618 643.432Z" fill="#DEE7FF"/>
<path d="M581.398 813.757C575.663 813.757 571.041 809.135 571.041 803.4C571.041 797.152 575.064 793.044 581.398 793.044C587.218 793.044 591.925 797.666 591.925 803.4C591.925 809.135 587.218 813.757 581.398 813.757ZM581.398 795.013C577.289 795.013 572.924 797.238 572.924 803.486C572.924 808.108 576.69 811.959 581.398 811.959C586.105 811.959 590.042 808.108 590.042 803.486C590.042 798.864 586.105 795.013 581.398 795.013Z" fill="#DEE7FF"/>
<path d="M540.229 365.692C529.872 365.692 521.399 357.218 521.399 346.862C521.399 335.393 528.76 328.032 540.229 328.032C550.842 328.032 559.401 336.506 559.401 346.862C559.401 357.218 550.842 365.692 540.229 365.692ZM540.229 329.915C532.012 329.915 523.282 334.366 523.282 346.862C523.282 356.191 530.899 363.809 540.229 363.809C549.729 363.809 557.518 356.191 557.518 346.862C557.518 337.533 549.815 329.915 540.229 329.915Z" fill="#DEE7FF"/>
<path d="M269.593 255.452C265.484 255.452 262.146 252.114 262.146 248.005C262.146 243.469 265.056 240.559 269.593 240.559C273.787 240.559 277.125 243.897 277.125 248.005C277.125 252.114 273.701 255.452 269.593 255.452ZM269.593 242.527C266.169 242.527 264.029 244.582 264.029 248.091C264.029 251.172 266.511 253.654 269.593 253.654C272.674 253.654 275.242 251.086 275.242 248.091C275.242 245.01 272.588 242.527 269.593 242.527Z" fill="#DEE7FF"/>
<path d="M563.338 440.498C558.888 432.795 554.351 425.177 549.901 417.474C549.302 416.447 547.675 417.388 548.274 418.415C552.725 426.119 557.261 433.736 561.712 441.439C562.311 442.552 564.023 441.61 563.338 440.498Z" fill="#DEE7FF"/>
<path d="M760.196 486.374C754.461 489.541 748.812 492.708 743.078 495.875C742.051 496.474 742.992 498.1 744.019 497.501C749.754 494.334 755.403 491.167 761.137 488C762.25 487.401 761.308 485.775 760.196 486.374Z" fill="#DEE7FF"/>
<path d="M766.187 497.758C759.682 499.897 753.092 501.952 746.587 504.091C745.389 504.434 745.902 506.317 747.101 505.889C753.605 503.749 760.196 501.695 766.701 499.555C767.813 499.213 767.3 497.33 766.187 497.758Z" fill="#DEE7FF"/>
<path d="M261.461 394.022C257.096 384.522 252.731 375.107 248.366 365.606C247.853 364.494 246.226 365.435 246.74 366.548C251.105 376.048 255.47 385.463 259.835 394.964C260.349 396.076 261.975 395.049 261.461 394.022Z" fill="#DEE7FF"/>
<path d="M271.561 395.648C268.223 387.089 264.885 378.53 261.547 369.971C261.119 368.859 259.236 369.372 259.75 370.485C263.088 379.044 266.426 387.603 269.764 396.162C270.192 397.275 271.989 396.761 271.561 395.648Z" fill="#DEE7FF"/>
<path d="M942.418 495.019C939.08 488.856 935.742 482.694 932.404 476.531C931.804 475.419 930.178 476.446 930.777 477.473C934.115 483.635 937.453 489.798 940.791 495.96C941.391 496.987 943.017 496.046 942.418 495.019Z" fill="#DEE7FF"/>
<path d="M419.29 180.303C417.407 174.569 415.524 168.92 413.555 163.185C413.213 162.073 411.33 162.501 411.758 163.699C413.641 169.433 415.524 175.082 417.493 180.817C417.835 182.015 419.632 181.502 419.29 180.303Z" fill="#DEE7FF"/>
<path d="M1013.46 453.764C1008.15 462.409 999.25 445.719 994.628 444.092C991.033 442.723 986.925 443.665 985.47 447.516C985.042 448.629 986.839 449.142 987.267 448.03C988.893 443.493 994.371 445.633 996.596 447.602C998.051 448.886 999.079 450.512 1000.28 451.967C1001.82 453.85 1003.27 455.733 1005.58 456.845C1009.01 458.472 1013.03 458.129 1015.08 454.791C1015.68 453.679 1014.06 452.737 1013.46 453.764Z" fill="#DEE7FF"/>
<path d="M1008.75 461.81C1003.44 470.454 994.542 453.764 989.92 452.138C986.326 450.769 982.217 451.71 980.762 455.562C980.334 456.674 982.132 457.188 982.56 456.075C984.186 451.539 989.664 453.679 991.889 455.647C993.344 456.931 994.371 458.557 995.569 460.012C997.11 461.895 998.565 463.778 1000.88 464.891C1004.3 466.517 1008.32 466.175 1010.38 462.837C1010.98 461.724 1009.35 460.697 1008.75 461.81Z" fill="#DEE7FF"/>
<path d="M848.268 812.815C843.475 805.711 838.682 798.607 833.975 791.503C833.29 790.476 831.664 791.418 832.348 792.445C837.141 799.549 841.935 806.653 846.642 813.757C847.327 814.784 848.953 813.842 848.268 812.815Z" fill="#DEE7FF"/>
<path d="M659.199 829.591C658.686 828.478 656.974 829.42 657.573 830.533C659.542 834.47 655.947 838.321 652.438 839.691C649.699 840.803 646.618 840.461 643.793 840.119C639.685 839.605 635.234 838.578 631.211 840.204C626.333 842.087 622.652 847.137 625.134 852.187C625.648 853.3 627.36 852.358 626.761 851.245C624.706 847.308 628.387 843.457 631.81 842.087C634.549 840.975 637.545 841.317 640.455 841.659C644.563 842.173 649.014 843.2 653.037 841.659C657.915 839.691 661.681 834.641 659.199 829.591Z" fill="#DEE7FF"/>
<path d="M662.452 838.064C661.938 836.952 660.226 837.893 660.826 839.006C662.794 842.943 659.199 846.795 655.69 848.164C652.951 849.277 649.87 848.934 647.046 848.592C642.937 848.079 638.486 847.051 634.464 848.678C629.585 850.561 625.905 855.611 628.387 860.66C628.9 861.773 630.612 860.831 630.013 859.719C627.959 855.782 631.639 851.93 635.063 850.561C637.802 849.448 640.797 849.79 643.708 850.133C647.816 850.646 652.267 851.673 656.289 850.133C661.254 848.164 665.019 843.114 662.452 838.064Z" fill="#DEE7FF"/>
<path d="M503.939 803.914C501.114 799.634 498.204 795.355 495.38 791.075C494.695 790.048 493.069 790.99 493.753 792.017C496.578 796.296 499.488 800.576 502.312 804.855C502.997 805.883 504.623 804.941 503.939 803.914Z" fill="#DEE7FF"/>
<path d="M727.671 709.593C725.275 712.418 722.878 715.328 720.567 718.153C719.797 719.094 721.167 720.463 721.937 719.522C724.333 716.697 726.73 713.787 729.041 710.963C729.726 710.021 728.442 708.652 727.671 709.593Z" fill="#DEE7FF"/>
<path d="M730.325 716.954C728.442 719.779 726.559 722.689 724.59 725.513C723.906 726.54 725.532 727.482 726.217 726.455C728.1 723.63 729.983 720.72 731.951 717.896C732.636 716.869 731.01 715.927 730.325 716.954Z" fill="#DEE7FF"/>
<path d="M1019.96 685.628C1018.51 688.966 1017.14 692.304 1015.68 695.642C1015.17 696.755 1016.88 697.696 1017.31 696.584C1018.76 693.246 1020.13 689.908 1021.59 686.57C1022.02 685.457 1020.39 684.43 1019.96 685.628Z" fill="#DEE7FF"/>
<path d="M1010.29 815.897C1003.53 827.623 988.551 812.815 980.163 811.532C974.257 810.59 967.153 813.842 967.068 820.518C967.068 821.717 968.951 821.717 968.951 820.518C969.036 812.559 979.136 812.559 984.357 814.87C988.38 816.667 991.974 819.491 996.168 820.946C1001.73 822.915 1008.66 822.401 1011.83 816.838C1012.52 815.811 1010.89 814.784 1010.29 815.897Z" fill="#DEE7FF"/>
<path d="M1005.84 805.369C999.078 817.095 984.1 802.288 975.712 801.004C969.806 800.062 962.702 803.315 962.617 809.991C962.617 811.189 964.5 811.189 964.5 809.991C964.585 802.031 974.685 802.031 979.906 804.342C983.929 806.139 987.523 808.964 991.717 810.419C997.281 812.387 1004.21 811.874 1007.38 806.31C1008.07 805.283 1006.44 804.342 1005.84 805.369Z" fill="#DEE7FF"/>
<path d="M438.034 562.464C436.494 564.09 434.953 565.631 433.412 567.257C433.156 567.171 432.899 567.257 432.642 567.599C432.043 568.37 431.358 569.225 430.759 569.996C429.989 570.937 431.187 572.221 432.128 571.365C434.525 568.883 437.007 566.401 439.404 563.919C440.26 562.892 438.89 561.522 438.034 562.464Z" fill="#DEE7FF"/>
<path d="M171.506 829.848C166.456 835.24 161.321 840.632 156.271 845.939C155.415 846.795 156.785 848.164 157.64 847.308C162.69 841.916 167.826 836.524 172.875 831.217C173.646 830.361 172.362 828.992 171.506 829.848Z" fill="#DEE7FF"/>
<path d="M691.296 645.144H678.029V692.647H691.296V645.144Z" fill="#DEE7FF"/>
<path d="M672.295 660.379H659.028V692.647H672.295V660.379Z" fill="#DEE7FF"/>
<path d="M616.49 660.379H603.223V692.647H616.49V660.379Z" fill="#DEE7FF"/>
<path d="M653.294 617.584H640.027V692.647H653.294V617.584Z" fill="#DEE7FF"/>
<path d="M634.293 629.909H621.026V692.647H634.293V629.909Z" fill="#DEE7FF"/>
<path d="M316.496 475.247L357.408 493.564L363.314 485.347L370.846 474.819L383.941 456.589L358.949 439.471C357.408 441.696 316.496 475.247 316.496 475.247Z" fill="#FFA79B"/>
<path d="M371.53 473.792L383.941 456.589L370.246 447.602C368.021 455.818 368.278 465.747 371.53 473.792Z" fill="black"/>
<path d="M352.187 416.361C357.494 404.036 390.189 401.725 393.27 414.564C395.667 424.15 402 450.769 398.406 456.76C391.13 468.828 374.697 465.918 366.224 457.017C357.665 448.03 346.966 428.515 352.187 416.361Z" fill="#FFA79B"/>
<path d="M371.273 416.875C380.603 417.388 390.275 413.366 392.414 412.424C399.689 404.892 393.698 395.477 378.206 402.41C366.138 402.667 351.502 406.09 349.191 417.132C342.515 430.227 351.16 431.853 354.84 439.984C357.836 438.529 357.665 433.822 361.259 432.367C366.566 430.141 368.62 428.173 371.273 416.875Z" fill="#952C28"/>
<path d="M388.648 437.844C389.675 437.844 390.788 437.93 391.815 437.502C392.928 436.989 393.955 435.619 392.928 434.506C392.5 434.078 393.185 433.394 393.613 433.822C394.554 434.849 394.554 436.475 393.527 437.502C392.329 438.871 390.36 438.871 388.648 438.871C388.049 438.786 388.049 437.759 388.648 437.844Z" fill="#D24A43"/>
<path d="M379.576 426.546C379.918 427.402 380.26 428.173 380.603 429.029C380.945 429.884 379.576 430.227 379.233 429.371C378.891 428.515 378.549 427.745 378.206 426.889C377.95 426.119 379.233 425.776 379.576 426.546Z" fill="black"/>
<path d="M393.442 422.952C393.784 423.808 394.126 424.578 394.469 425.434C394.811 426.29 393.442 426.632 393.099 425.776C392.757 424.92 392.414 424.15 392.072 423.294C391.73 422.524 393.099 422.096 393.442 422.952Z" fill="black"/>
<path d="M375.981 422.181C376.837 421.839 377.778 421.497 378.634 421.24C379.747 420.812 380.346 422.609 379.148 423.037C378.292 423.38 377.35 423.722 376.495 423.979C375.382 424.407 374.783 422.609 375.981 422.181Z" fill="#952C28"/>
<path d="M389.675 418.587C390.531 418.244 391.473 417.902 392.329 417.645C393.441 417.217 394.04 419.015 392.842 419.443C391.986 419.785 391.045 420.127 390.189 420.384C389.076 420.812 388.477 419.015 389.675 418.587Z" fill="#952C28"/>
<path d="M379.661 445.89C380.688 447.687 382.4 448.886 384.454 449.142C385.053 449.228 385.053 450.169 384.454 450.084C382.058 449.827 380.004 448.458 378.805 446.403C378.549 445.804 379.404 445.376 379.661 445.89Z" fill="#D24A43"/>
<path d="M348.592 436.817C349.619 432.195 356.124 428.943 361.602 432.367C362.372 437.416 363.314 442.552 364.255 447.516C361.773 449.142 356.295 449.913 352.786 447.773C348.849 445.376 347.479 441.782 348.592 436.817Z" fill="#FFA79B"/>
<path d="M355.525 437.588C356.894 438.786 358.349 440.07 359.719 441.268C360.147 441.696 359.548 442.295 359.034 441.953C358.948 441.867 358.863 441.782 358.777 441.696L358.692 441.61C357.408 440.498 356.124 439.385 354.84 438.272C354.327 437.844 355.011 437.245 355.525 437.588Z" fill="#D24A43"/>
<path d="M349.619 611.764C361.088 575.987 390.36 471.653 343.97 463.778C315.212 458.9 280.291 490.739 248.623 552.792C238.865 571.879 229.194 593.875 222.175 615.444C264.714 615.615 307.68 617.156 349.619 611.764Z" fill="#D24A43"/>
<path d="M300.576 615.359C303.743 597.556 307.509 579.839 311.275 562.122C316.41 537.985 324.456 526.687 329.762 502.551C306.91 517.187 285.683 528.057 280.12 554.675C275.412 577.1 281.233 598.754 295.013 615.444C296.896 615.53 298.693 615.444 300.576 615.359Z" fill="black"/>
<path d="M481.771 856.894C467.648 854.498 460.887 847.308 463.968 825.312C448.048 828.307 431.529 827.537 415.096 827.879C414.582 845.596 414.497 863.314 414.668 881.031H501.97C502.055 880.945 503.938 860.66 481.771 856.894Z" fill="#FFA79B"/>
<path d="M486.906 656.699C454.382 665.429 468.846 682.205 439.746 697.611C437.52 703.26 435.466 708.909 433.583 714.643C428.448 729.793 424.339 745.199 420.916 760.776C417.235 782.516 415.866 804.684 415.181 826.681C415.096 829.677 415.01 832.672 414.925 835.668C431.016 836.438 451.129 834.898 467.22 834.127C472.27 813.842 477.32 795.526 493.839 742.888C508.475 696.156 512.241 664.915 486.906 656.699Z" fill="#003865"/>
<path d="M481.771 856.894C475.865 855.867 471.329 854.07 468.162 850.732C462.77 852.358 457.463 853.984 451.985 855.268C445.395 856.809 438.89 857.75 432.043 857.408C426.223 857.151 420.402 856.638 414.582 856.381C414.582 864.597 414.582 872.729 414.668 880.945H501.97C502.056 880.945 503.939 860.66 481.771 856.894Z" fill="#2252B2"/>
<path d="M424.767 856.894C408.762 854.155 403.37 851.502 415.866 828.906C398.234 827.023 380.517 825.055 362.971 822.744C359.804 839.434 357.151 858.692 355.268 881.031H445.052C445.052 880.945 446.935 860.66 424.767 856.894Z" fill="#FFA79B"/>
<path d="M354.498 832.843C371.103 835.411 394.212 838.407 410.988 839.092C415.781 827.109 429.561 806.225 455.238 768.223C509.673 687.768 519.259 656.1 463.455 641.549C407.735 626.999 345.597 623.832 345.597 623.832C345.597 623.832 345.682 623.49 345.939 622.891C306.824 613.989 267.453 606.372 228.081 599.182C205.999 657.041 198.467 718.153 256.925 718.153C331.646 718.153 403.884 720.036 403.884 720.036C399.519 726.883 367.936 750.249 354.498 832.843Z" fill="#003865"/>
<path d="M267.281 695.899C251.362 683.66 231.419 676.299 211.733 671.078C211.905 698.552 223.802 718.153 256.925 718.153C266.254 718.153 275.584 718.153 284.656 718.238C279.692 710.193 273.872 702.746 267.281 695.899Z" fill="black"/>
<path d="M424.768 856.894C418.348 855.782 413.641 854.669 411.073 852.358C404.996 853.727 398.834 855.097 392.671 855.953C384.882 857.066 377.265 857.579 369.391 856.723C365.539 856.295 361.773 855.61 357.922 854.926C356.894 863.142 355.953 871.787 355.183 881.031H444.967C445.052 880.945 446.935 860.66 424.768 856.894Z" fill="#2252B2"/>
<path d="M412.956 711.99C410.645 714.301 408.334 716.612 406.023 719.008C405.595 719.436 406.28 720.121 406.708 719.693C409.019 717.382 411.33 715.071 413.641 712.675C414.069 712.247 413.384 711.562 412.956 711.99Z" fill="white"/>
<path d="M491.186 713.616C482.712 726.54 474.324 739.379 465.851 752.303C465.508 752.817 466.364 753.33 466.707 752.817C475.18 739.892 483.568 727.054 492.041 714.13C492.384 713.616 491.528 713.188 491.186 713.616Z" fill="white"/>
<path d="M437.521 859.976C436.922 859.976 436.922 860.917 437.521 860.917C444.967 860.575 451.472 867.165 451.129 874.612C451.129 875.211 452.071 875.211 452.071 874.612C452.413 866.652 445.481 859.633 437.521 859.976Z" fill="white"/>
<path d="M448.219 769.079C438.291 786.197 428.277 803.229 418.348 820.347C418.006 820.861 418.862 821.374 419.204 820.861C429.133 803.743 439.147 786.71 449.075 769.592C449.332 769.079 448.562 768.565 448.219 769.079Z" fill="white"/>
<path d="M435.466 654.816C442.485 644.203 450.701 634.36 458.319 624.089C441.03 612.021 422.029 602.862 405.167 590.195C404.483 589.682 403.028 588.055 403.028 588.055C403.028 588.055 373.071 504.006 363.571 487.829C363.571 487.829 355.525 607.056 355.953 610.908C356.467 614.674 429.561 652.248 429.561 652.248L435.466 654.816Z" fill="#D24A43"/>
<path d="M468.675 631.878C463.54 627.684 458.233 623.918 452.755 620.323C444.196 630.423 435.894 640.693 428.533 651.734C429.218 652.077 429.561 652.248 429.561 652.248L493.668 679.808L501.2 663.204C500.172 642.405 480.316 641.464 468.675 631.878Z" fill="#FFA79B"/>
<path d="M399.689 585.316C397.55 584.289 395.495 583.177 393.356 582.15C392.842 581.893 392.329 582.663 392.842 583.005C394.982 584.033 397.036 585.145 399.176 586.172C399.775 586.429 400.203 585.573 399.689 585.316Z" fill="black"/>
<path d="M484.081 659.181C483.482 658.924 483.226 659.866 483.825 660.122C489.046 662.177 488.789 667.74 488.19 672.362C488.104 672.961 489.046 673.218 489.131 672.619C489.902 667.312 489.902 661.406 484.081 659.181Z" fill="#D24A43"/>
<path d="M489.302 652.505C488.789 652.162 488.275 653.018 488.789 653.361C491.785 655.329 493.753 658.496 494.181 662.091C494.267 662.69 495.208 662.69 495.123 662.091C494.695 658.154 492.64 654.73 489.302 652.505Z" fill="#D24A43"/>
<path d="M478.689 663.888C471.842 659.609 460.373 653.703 443.768 646.77C437.863 643.175 431.7 639.581 425.623 636.243C416.037 650.194 409.019 659.951 400.117 674.33C409.618 675.443 418.177 676.299 424.767 676.898C434.354 682.889 446.764 684.772 464.824 680.407C467.734 684.002 469.874 690.935 474.41 691.791C478.604 691.192 482.712 690.25 486.478 688.453C489.902 686.826 492.555 684.516 494.78 681.777C488.96 675.015 486.82 669.623 478.689 663.888Z" fill="#FFA79B"/>
<path d="M430.588 639.067C400.289 621.863 369.048 607.912 369.048 607.912C369.048 607.912 367.679 597.214 367.936 545.003C368.107 492.793 372.044 478.585 344.227 465.747C344.227 465.747 335.754 466.089 319.834 482.437C303.914 498.785 289.792 573.676 286.026 613.647C283.372 642.063 353.984 674.33 400.717 679.551C409.704 666.199 422.457 652.847 430.588 639.067Z" fill="#D24A43"/>
<path d="M368.706 505.974C367.165 533.62 365.625 561.266 364.084 588.911C364.084 589.254 363.998 589.682 363.998 590.024C363.656 589.767 363.399 589.596 363.057 589.339C363.057 588.997 363.057 588.569 363.142 588.227C364.683 560.752 366.224 533.363 367.764 505.974C367.764 505.375 368.791 505.375 368.706 505.974Z" fill="black"/>
<path d="M424.939 634.445C404.654 619.638 384.369 604.831 363.999 590.024C363.656 589.767 363.399 589.596 363.057 589.339C361.088 587.884 359.034 586.429 357.066 584.974C356.552 584.632 357.066 583.776 357.579 584.118C359.462 585.488 361.26 586.857 363.143 588.141C363.485 588.398 363.742 588.569 364.084 588.826C384.54 603.718 404.996 618.611 425.367 633.504C425.88 633.932 425.452 634.788 424.939 634.445Z" fill="black"/>
<path d="M479.802 660.293C477.919 656.955 474.667 655.244 471.072 654.131C460.887 650.964 450.616 648.14 440.345 645.144C439.746 644.973 439.489 645.914 440.088 646.086C448.989 648.653 457.805 651.221 466.707 653.874C470.901 655.072 475.779 656.014 478.433 659.866C480.658 663.118 481.171 667.312 481.599 671.163C481.685 671.763 482.626 671.763 482.541 671.163C482.113 667.397 481.599 663.546 479.802 660.293Z" fill="#D24A43"/>
<path d="M476.036 663.632C475.779 663.118 474.923 663.546 475.18 664.145C478.432 669.965 480.658 676.213 481.856 682.804C481.942 683.403 482.883 683.146 482.798 682.547C481.599 675.871 479.288 669.537 476.036 663.632Z" fill="#D24A43"/>
<path d="M478.518 689.394C476.892 682.376 473.725 675.871 469.274 670.222C468.932 669.708 468.247 670.393 468.59 670.907C472.784 676.213 475.694 682.205 477.405 688.709C477.405 688.709 477.405 688.709 477.405 688.795C477.491 689.137 477.577 689.394 477.662 689.737C477.748 690.25 478.689 689.993 478.518 689.394Z" fill="#D24A43"/>
<path d="M602.196 750.934H529.359C528.161 750.934 528.161 752.817 529.359 752.817H602.196C603.395 752.817 603.395 750.934 602.196 750.934Z" fill="#DEE7FF"/>
<path d="M602.196 746.483H529.359C528.161 746.483 528.161 748.366 529.359 748.366H602.196C603.395 748.366 603.395 746.483 602.196 746.483Z" fill="#DEE7FF"/>
<path d="M699.427 689.309H799.225C800.423 689.309 800.423 691.192 799.225 691.192H699.427C698.229 691.192 698.229 689.309 699.427 689.309Z" fill="#DEE7FF"/>
<path d="M699.427 685.543H799.225C800.423 685.543 800.423 687.426 799.225 687.426H699.427C698.229 687.426 698.229 685.543 699.427 685.543Z" fill="#DEE7FF"/>
<path d="M699.427 681.691H799.225C800.423 681.691 800.423 683.574 799.225 683.574H699.427C698.229 683.66 698.229 681.691 699.427 681.691Z" fill="#DEE7FF"/>
<path d="M699.427 677.412H799.225C800.424 677.412 800.424 679.295 799.225 679.295H699.427C698.229 679.38 698.229 677.412 699.427 677.412Z" fill="#DEE7FF"/>
<path d="M659.028 748.708C658.6 745.713 659.028 742.803 659.884 739.978H592.096C586.961 746.141 587.474 751.105 592.096 755.213H662.195C660.483 753.587 659.37 751.447 659.028 748.708Z" fill="#DEE7FF"/>
<path d="M641.91 730.991C642.167 730.135 642.509 729.279 642.937 728.509H592.268C588.844 732.104 588.93 736.041 592.268 740.32H644.649C642.338 737.838 640.883 734.843 641.91 730.991Z" fill="#DEE7FF"/>
<path d="M645.162 739.55H591.583C591.326 739.55 591.069 739.465 590.898 739.208C587.988 735.87 587.988 732.018 590.813 727.995C590.984 727.739 591.241 727.568 591.583 727.568H644.478C644.991 727.568 645.419 727.995 645.419 728.509C645.419 729.023 644.991 729.451 644.478 729.451H592.096C590.128 732.446 590.042 735.099 592.011 737.582H645.162C645.676 737.582 646.104 738.01 646.104 738.523C646.104 739.037 645.676 739.55 645.162 739.55Z" fill="#FECA55"/>
<path d="M662.623 755.812H590.813C590.47 755.812 590.213 755.641 590.042 755.384C586.447 750.42 586.447 745.114 590.042 739.721C590.213 739.465 590.556 739.293 590.813 739.293H661.767C662.28 739.293 662.708 739.721 662.708 740.235C662.708 740.748 662.28 741.176 661.767 741.176H591.326C588.587 745.627 588.587 749.821 591.326 753.929H662.623C663.136 753.929 663.564 754.357 663.564 754.871C663.564 755.384 663.222 755.812 662.623 755.812Z" fill="#FECA55"/>
<path d="M652.866 743.573H592.867C592.096 743.573 592.096 744.771 592.867 744.771H652.866C653.636 744.771 653.636 743.573 652.866 743.573Z" fill="white"/>
<path d="M644.82 747.424H629.071C628.301 747.424 628.301 748.623 629.071 748.623H644.82C645.59 748.623 645.59 747.424 644.82 747.424Z" fill="white"/>
<path d="M918.195 166.352H593.209V454.278H918.195V166.352Z" fill="#BCD7FD"/>
<path d="M721.252 422.181C711.238 402.153 698.314 383.666 684.02 366.462C659.285 336.591 629.243 309.801 593.209 294.566V454.278H734.69C730.838 443.322 726.388 432.538 721.252 422.181Z" fill="#DEE7FF"/>
<path d="M918.195 153H593.209V167.893H918.195V153Z" fill="#EBF4FF"/>
<path d="M602.282 159.59C602.282 157.707 603.566 156.766 605.106 156.766C606.647 156.766 608.016 158.05 608.016 159.59C608.016 161.131 606.647 162.415 605.106 162.415C603.566 162.415 602.282 161.131 602.282 159.59Z" fill="#D24A43"/>
<path d="M613.152 159.59C613.152 157.707 614.436 156.766 615.976 156.766C617.517 156.766 618.886 158.05 618.886 159.59C618.886 161.131 617.517 162.415 615.976 162.415C614.436 162.415 613.152 161.131 613.152 159.59Z" fill="#D24A43"/>
<path d="M625.562 159.59C625.562 157.707 626.846 156.766 628.387 156.766C629.928 156.766 631.297 158.05 631.297 159.59C631.297 161.131 629.928 162.415 628.387 162.415C626.846 162.415 625.562 161.131 625.562 159.59Z" fill="#D24A43"/>
<path d="M648.415 242.784C643.622 249.888 638.914 257.078 634.121 264.182C633.437 265.209 635.063 266.15 635.748 265.123C640.541 258.019 645.248 250.83 650.041 243.726C650.726 242.784 649.1 241.843 648.415 242.784Z" fill="#DEE7FF"/>
<path d="M654.149 252.798C650.383 258.533 646.532 264.182 642.766 269.916C642.081 270.943 643.707 271.885 644.392 270.858C648.158 265.123 652.01 259.474 655.776 253.74C656.46 252.713 654.834 251.771 654.149 252.798Z" fill="#DEE7FF"/>
<path d="M624.279 188.434C620.941 185.61 617.603 182.7 614.264 179.875C613.323 179.105 611.954 180.389 612.895 181.245C616.233 184.069 619.571 186.979 622.909 189.804C623.851 190.574 625.22 189.29 624.279 188.434Z" fill="#DEE7FF"/>
<path d="M875.315 181.93C871.463 191.002 859.309 183.556 852.462 185.353C848.097 186.551 844.673 190.66 846.3 195.196C846.728 196.309 848.525 195.881 848.097 194.682C845.444 187.151 855.715 186.723 860.165 187.407C862.99 187.835 865.729 188.606 868.639 188.263C872.233 187.921 875.486 186.295 877.026 182.871C877.454 181.758 875.743 180.817 875.315 181.93Z" fill="#DEE7FF"/>
<path d="M881.049 189.376C877.198 198.448 865.044 191.002 858.197 192.799C853.832 193.998 850.408 198.106 852.034 202.642C852.462 203.755 854.26 203.327 853.832 202.129C851.178 194.597 861.449 194.169 865.9 194.854C868.724 195.282 871.463 196.052 874.373 195.71C877.968 195.367 881.22 193.741 882.761 190.317C883.189 189.205 881.563 188.263 881.049 189.376Z" fill="#DEE7FF"/>
<path d="M859.908 308.09C858.881 310.229 857.769 312.283 856.742 314.423C856.228 315.536 857.854 316.477 858.368 315.365C859.395 313.225 860.508 311.171 861.535 309.031C862.134 308.004 860.422 307.062 859.908 308.09Z" fill="#DEE7FF"/>
<path d="M860.85 339.758L779.796 357.133L772.007 335.307L761.908 307.405L744.533 259.132L803.676 240.644C805.559 246.636 860.85 339.758 860.85 339.758Z" fill="#FFA79B"/>
<path d="M771.922 335.393L772.35 336.506C783.134 327.262 790.152 314.338 793.319 299.702C797.513 280.273 792.977 263.326 788.269 245.437L744.618 259.132L761.993 307.405L771.922 335.393Z" fill="black"/>
<path d="M816.257 249.289C814.888 261.614 806.415 288.489 805.387 290.715C793.918 316.392 760.795 335.136 735.803 314.766C735.631 314.594 735.46 314.509 735.289 314.338C735.032 314.166 734.861 313.91 734.604 313.653C734.433 313.482 734.262 313.225 734.005 312.968C733.92 312.883 733.92 312.797 733.834 312.711C733.492 312.283 733.235 311.856 732.893 311.428C732.465 310.828 732.122 310.144 731.694 309.373C731.523 309.117 731.438 308.86 731.266 308.603C731.095 308.261 730.838 307.833 730.667 307.405C730.496 307.148 730.41 306.806 730.239 306.463C729.982 305.864 729.726 305.18 729.383 304.495C729.127 303.81 728.87 303.125 728.613 302.355C727.672 299.873 726.816 297.134 726.045 294.224C726.045 294.138 726.045 294.138 726.045 294.053C725.96 293.625 725.789 293.197 725.703 292.769C725.617 292.341 725.446 291.913 725.361 291.485C724.59 288.404 723.82 285.066 723.05 281.642C721.851 276.079 720.824 270.259 719.883 264.439C719.883 264.353 719.883 264.267 719.797 264.096C717.23 247.92 715.432 231.743 714.405 221.643C714.319 221.13 714.319 220.616 714.234 220.188C714.234 220.017 714.234 219.846 714.148 219.675C711.067 189.633 783.391 169.605 804.189 192.115C816.429 205.296 818.74 227.72 816.257 249.289Z" fill="#FFA79B"/>
<path d="M804.446 192.286C792.121 179.019 761.908 180.56 739.825 190.232C735.888 190.232 732.037 190.574 728.185 191.173C723.906 191.858 718.513 192.543 715.603 196.138C714.319 197.764 713.72 199.732 713.892 201.615C713.464 201.872 713.036 202.129 712.522 202.386C707.13 205.552 703.022 213.17 708.927 218.134C714.319 222.585 723.991 220.017 729.897 218.391C730.239 218.305 730.667 218.134 731.01 218.049C741.366 219.247 751.808 217.364 761.052 212.742C765.93 213.427 770.638 213.256 775.345 212.314C775.773 212.485 776.201 212.742 776.629 212.999C778.683 214.283 780.138 216.166 781.337 218.22C781.765 218.562 792.72 243.298 784.675 248.947C764.219 263.497 737.6 267.52 720.054 264.61C720.995 270.43 722.023 276.336 723.221 281.813C723.906 285.237 724.676 288.489 725.532 291.656C725.617 292.084 725.789 292.512 725.874 292.94C725.96 293.368 726.131 293.796 726.217 294.224C726.217 294.31 726.217 294.31 726.217 294.395C727.072 297.305 727.928 300.044 728.784 302.526C729.041 303.211 729.298 303.981 729.555 304.666C729.811 305.351 730.068 306.035 730.41 306.635C730.582 306.977 730.667 307.234 730.838 307.576C731.01 308.004 731.266 308.432 731.438 308.774C731.609 309.031 731.694 309.288 731.865 309.545C732.293 310.229 732.636 310.914 733.064 311.599C733.321 312.027 733.663 312.455 734.005 312.883C734.091 312.968 734.091 313.054 734.176 313.139C734.348 313.396 734.519 313.567 734.776 313.824C735.032 314.081 735.203 314.338 735.46 314.509C735.631 314.68 735.803 314.766 735.974 314.937C760.966 335.307 795.288 318.275 806.072 292.255C808.726 285.751 806.072 270.173 804.703 264.267C803.847 260.501 812.064 254.852 816.343 249.375C818.74 227.72 816.429 205.296 804.446 192.286Z" fill="#697CCC"/>
<path d="M748.385 257.163C746.159 258.019 743.763 258.961 741.281 258.79C738.456 258.618 735.118 256.307 736.487 253.141C737.001 251.857 735.118 250.83 734.604 252.114C733.321 255.109 734.604 258.447 737.515 259.988C741.195 261.956 745.389 260.587 749.069 259.218C750.353 258.79 749.754 256.735 748.385 257.163Z" fill="#D24A43"/>
<path d="M762.935 237.478C763.363 239.446 763.705 241.415 764.133 243.383C764.561 245.437 767.557 244.41 767.214 242.442C766.786 240.473 766.444 238.505 766.016 236.536C765.588 234.482 762.592 235.509 762.935 237.478Z" fill="black"/>
<path d="M722.622 241.757C723.05 243.726 723.392 245.694 723.82 247.663C724.248 249.717 727.244 248.69 726.901 246.721C726.473 244.753 726.131 242.784 725.703 240.816C725.275 238.847 722.194 239.789 722.622 241.757Z" fill="black"/>
<path d="M725.446 225.067C723.221 225.752 720.996 226.522 718.77 227.207C717.658 227.549 717.23 229.09 717.658 230.117C718.171 231.315 719.369 231.572 720.568 231.23C722.793 230.545 725.018 229.774 727.244 229.09C728.356 228.747 728.784 227.207 728.356 226.18C727.843 224.981 726.559 224.639 725.446 225.067Z" fill="#697CCC"/>
<path d="M760.367 220.188C758.227 220.702 756.173 221.301 754.033 221.815C751.294 222.499 752.664 226.608 755.317 225.923C757.457 225.409 759.511 224.81 761.651 224.297C764.39 223.698 763.02 219.504 760.367 220.188Z" fill="#697CCC"/>
<path d="M777.742 286.178C776.116 290.629 772.521 293.967 767.899 295.165C766.529 295.508 766.872 297.648 768.241 297.305C773.548 295.85 777.827 292.17 779.71 286.949C780.224 285.665 778.17 284.895 777.742 286.178Z" fill="#FFA79B"/>
<path d="M830.123 228.833C824.389 219.675 807.784 217.621 798.711 229.175C800.937 240.73 802.905 252.285 804.617 263.925C811.208 265.466 823.618 262.983 829.438 255.794C836.114 247.492 836.286 238.676 830.123 228.833Z" fill="#FFA79B"/>
<path d="M814.717 236.279C812.577 239.96 810.523 243.726 808.383 247.406C807.698 248.604 809.581 249.546 810.352 248.348C810.523 248.091 810.694 247.834 810.78 247.577C810.865 247.492 810.865 247.406 810.865 247.32C812.748 243.982 814.717 240.559 816.6 237.221C817.37 236.023 815.401 235.081 814.717 236.279Z" fill="#D24A43"/>
<path d="M918.11 338.816V454.192H637.374C637.117 441.097 637.545 414.992 642.167 376.99C648.415 326.577 685.476 332.568 761.822 336.078C770.809 336.506 780.31 336.848 790.409 337.105C810.865 337.618 839.367 338.046 866.242 338.303C885.586 338.56 904.073 338.731 918.11 338.816Z" fill="#EBF4FF"/>
<path d="M795.459 383.238C787.157 386.062 778.855 388.887 770.552 391.797C771.237 375.021 771.922 358.245 772.607 341.47C772.692 340.272 770.724 340.272 770.724 341.47C770.039 358.673 769.354 375.963 768.669 393.166C768.669 393.765 769.269 394.279 769.868 394.108L796.058 385.121C797.085 384.693 796.572 382.81 795.459 383.238Z" fill="white"/>
<path d="M854.089 348.574C842.705 366.633 831.321 384.693 819.938 402.667C814.46 396.847 809.068 391.027 803.59 385.292C802.734 384.436 801.45 385.72 802.221 386.661C807.955 392.738 813.69 398.815 819.424 404.978C819.852 405.406 820.623 405.32 820.88 404.807C832.52 386.405 844.074 368.003 855.715 349.601C856.399 348.488 854.773 347.461 854.089 348.574Z" fill="white"/>
<path d="M801.707 392.054C801.707 390.855 799.739 390.855 799.824 392.054L801.45 451.624C801.45 452.823 803.419 452.823 803.333 451.624L801.707 392.054Z" fill="white"/>
<path d="M681.111 385.891V398.558C681.111 399.757 682.994 399.757 682.994 398.558V385.891C683.079 384.693 681.111 384.693 681.111 385.891Z" fill="white"/>
<path d="M790.409 337.105C784.418 336.933 777.913 336.677 772.35 336.506L800.851 383.837L859.909 338.303C835.344 337.875 809.41 337.533 790.409 337.105Z" fill="#FFA79B"/>
<path d="M726.901 468.058C724.761 465.319 722.536 462.666 720.311 459.927C715.175 450.341 710.126 440.754 704.819 431.168C698.913 420.47 689.755 407.545 670.754 407.888C669.984 407.888 669.213 407.973 668.443 407.973C668.358 424.749 672.808 441.61 679.655 456.845C681.538 461.125 683.678 465.319 685.904 469.427V469.342C686.331 464.463 686.759 459.584 687.102 454.706C690.782 457.445 693.692 461.467 697.801 463.522C700.026 469.085 704.99 472.252 709.954 475.761C714.491 479.013 725.703 484.577 729.726 477.558C731.866 474.135 729.127 470.797 726.901 468.058Z" fill="#FFA79B"/>
<path d="M627.873 468.486H559.487V561.694H627.873V468.486Z" fill="#DEE7FF"/>
<path d="M616.404 484.662H548.018V577.87H616.404V484.662Z" fill="#DEE7FF"/>
<path d="M731.095 460.783H570.956V579.068H731.095V460.783Z" fill="#FECA55"/>
<path d="M619.057 481.667H570.956V453.593C570.956 450.169 573.695 447.431 577.118 447.431H612.981C616.404 447.431 619.143 450.169 619.143 453.593V481.667H619.057Z" fill="#FECA55"/>
<path d="M672.637 562.635H589.015C588.502 562.635 588.074 562.207 588.074 561.694V478.072C588.074 477.558 588.502 477.13 589.015 477.13H672.637C673.151 477.13 673.579 477.558 673.579 478.072V561.694C673.579 562.207 673.151 562.635 672.637 562.635ZM589.957 560.752H671.696V479.013H589.957V560.752Z" fill="white"/>
<path d="M655.262 542.521C639.428 526.944 623.594 511.452 607.76 495.875C606.904 495.019 605.534 496.388 606.39 497.244C621.454 512.051 636.604 526.858 651.667 541.665C651.753 541.837 651.753 541.922 651.924 542.008L653.978 543.891C654.834 544.747 656.118 543.377 655.262 542.521Z" fill="white"/>
<path d="M608.188 544.319C623.765 528.484 639.257 512.65 654.834 496.816C655.69 495.96 654.321 494.591 653.465 495.447C638.658 510.511 623.851 525.66 609.044 540.724C608.872 540.81 608.787 540.81 608.701 540.981L606.818 543.035C606.048 543.891 607.332 545.26 608.188 544.319Z" fill="white"/>
<path d="M715.261 483.122H687.787C686.588 483.122 686.588 485.005 687.787 485.005H715.261C716.459 485.005 716.459 483.122 715.261 483.122Z" fill="white"/>
<path d="M715.261 492.194H687.787C686.588 492.194 686.588 494.077 687.787 494.077H715.261C716.459 494.077 716.459 492.194 715.261 492.194Z" fill="white"/>
<path d="M619.143 442.723H611.782V460.783H619.143V442.723Z" fill="#D24A43"/>
<path d="M606.989 438.272H599.629V460.868H606.989V438.272Z" fill="#697CCC"/>
<path d="M558.802 491.681V569.568C558.802 570.766 560.685 570.766 560.685 569.568V491.681C560.685 490.482 558.802 490.482 558.802 491.681Z" fill="white"/>
<path d="M694.805 417.303C689.156 411.825 681.539 407.717 670.84 407.973C659.713 408.23 647.987 410.712 639.257 418.159C630.441 422.267 625.734 430.826 624.193 440.327C622.139 452.823 622.31 466.432 623.851 479.013C624.878 487.316 630.612 496.388 639.343 494.42C639.685 496.474 640.198 498.442 640.969 500.24C642.852 504.262 647.645 506.745 651.496 505.803C652.866 511.195 656.974 516.074 662.794 514.533C662.794 514.961 662.452 527.115 666.56 530.453C669.642 532.935 675.29 532.25 677.773 527.457C681.795 519.583 684.277 488.942 685.647 472.765C685.305 470.968 689.841 425.348 694.805 417.303Z" fill="#FFA79B"/>
<path d="M636.946 454.449C637.031 453.251 635.148 453.251 635.063 454.449C634.207 465.148 634.806 475.846 636.86 486.374C637.117 487.572 638.914 487.059 638.658 485.861C636.689 475.504 636.09 465.062 636.946 454.449Z" fill="#D24A43"/>
<path d="M652.01 499.469C649.271 486.973 648.757 474.391 650.384 461.724C650.555 460.526 648.672 460.526 648.501 461.724C646.874 474.563 647.388 487.316 650.212 499.983C650.469 501.181 652.266 500.668 652.01 499.469Z" fill="#D24A43"/>
<path d="M665.704 509.056C663.051 496.217 662.709 483.207 664.677 470.283C664.848 469.085 663.051 468.571 662.88 469.77C660.826 483.036 661.168 496.388 663.907 509.569C664.078 510.767 665.961 510.254 665.704 509.056Z" fill="#D24A43"/>
<path d="M674.092 520.439C672.637 517.7 668.871 516.93 666.303 518.556C665.276 519.241 666.218 520.867 667.245 520.182C668.957 519.155 671.439 519.498 672.466 521.381C673.407 523.264 672.295 525.489 670.497 526.345C669.385 526.858 670.326 528.485 671.439 527.971C674.178 526.773 675.547 523.178 674.092 520.439Z" fill="#D24A43"/>
<path d="M687.188 451.71C686.845 450.683 686.588 449.57 686.246 448.543C685.904 447.345 684.021 447.858 684.449 449.057C684.791 450.084 685.048 451.196 685.39 452.224C685.732 453.422 687.53 452.908 687.188 451.71Z" fill="#D24A43"/>
<path d="M841.849 472.851C841.849 468.058 845.016 465.747 848.953 465.747C852.89 465.747 856.228 468.914 856.228 472.851C856.228 476.788 852.89 479.955 848.953 479.955C845.016 479.955 841.849 476.788 841.849 472.851Z" fill="#D24A43"/>
<path d="M752.921 550.139C749.668 550.139 746.416 550.053 743.163 549.797C742.65 549.797 742.222 549.283 742.307 548.769C742.307 548.256 742.821 547.828 743.334 547.914C747.1 548.17 750.866 548.341 754.632 548.256C755.146 548.256 755.574 548.684 755.574 549.197C755.574 549.711 755.146 550.139 754.632 550.139C754.033 550.139 753.52 550.139 752.921 550.139ZM766.016 549.454C765.502 549.454 765.16 549.112 765.074 548.598C764.989 548.085 765.417 547.571 765.93 547.571C769.696 547.143 773.462 546.63 777.143 545.859C777.656 545.774 778.17 546.116 778.255 546.63C778.341 547.143 777.999 547.657 777.485 547.742C773.805 548.513 769.953 549.112 766.101 549.454H766.016ZM788.269 545.003C787.841 545.003 787.499 544.747 787.328 544.319C787.157 543.805 787.413 543.292 787.927 543.12C791.522 542.008 795.117 540.724 798.54 539.269C799.054 539.098 799.567 539.269 799.824 539.782C799.995 540.296 799.824 540.81 799.31 541.066C795.801 542.521 792.206 543.891 788.526 545.003C788.526 544.918 788.441 545.003 788.269 545.003ZM809.239 536.016C808.897 536.016 808.554 535.845 808.383 535.503C808.126 535.075 808.297 534.476 808.725 534.219C812.063 532.336 815.23 530.282 818.14 528.057C818.568 527.714 819.167 527.8 819.51 528.228C819.852 528.656 819.767 529.255 819.339 529.597C816.343 531.823 813.091 533.962 809.667 535.845C809.581 535.931 809.41 536.016 809.239 536.016ZM827.47 522.408C827.213 522.408 826.956 522.322 826.785 522.151C826.443 521.808 826.443 521.209 826.785 520.781C829.524 518.128 832.006 515.304 834.231 512.394C834.574 511.966 835.173 511.88 835.601 512.222C836.029 512.565 836.114 513.164 835.772 513.592C833.461 516.587 830.893 519.498 828.154 522.236C827.898 522.322 827.726 522.408 827.47 522.408ZM841.164 504.262C840.993 504.262 840.822 504.262 840.736 504.177C840.308 503.92 840.137 503.321 840.394 502.893C842.191 499.555 843.732 496.131 844.93 492.622C845.101 492.109 845.615 491.852 846.128 492.023C846.642 492.194 846.899 492.708 846.727 493.221C845.444 496.816 843.903 500.411 842.106 503.749C841.849 504.091 841.506 504.262 841.164 504.262ZM848.61 482.865C848.525 482.865 848.525 482.865 848.439 482.865C847.926 482.779 847.583 482.266 847.669 481.752C848.268 478.5 848.61 475.162 848.696 471.824C848.696 471.31 849.124 470.882 849.723 470.882C850.237 470.882 850.665 471.31 850.665 471.909C850.493 475.333 850.151 478.757 849.638 482.095C849.466 482.523 849.038 482.865 848.61 482.865Z" fill="#D24A43"/>
<path d="M573.267 254.596C573.267 249.803 576.433 247.492 580.371 247.492C584.308 247.492 587.646 250.659 587.646 254.596C587.646 258.533 584.308 261.7 580.371 261.7C576.433 261.7 573.267 258.533 573.267 254.596Z" fill="#D24A43"/>
<path d="M422.97 289.174C422.457 289.174 422.029 288.746 422.029 288.233C422.029 283.868 422.2 280.102 422.542 276.764C422.628 276.25 423.056 275.822 423.569 275.908C424.083 275.993 424.511 276.421 424.425 276.935C424.168 280.187 423.997 283.868 423.997 288.233C423.912 288.746 423.569 289.174 422.97 289.174ZM425.452 266.578C425.367 266.578 425.281 266.578 425.195 266.578C424.682 266.407 424.425 265.894 424.596 265.38C425.966 260.929 427.934 257.677 430.588 255.28C431.016 254.938 431.615 254.938 431.957 255.366C432.299 255.794 432.299 256.393 431.871 256.735C429.475 258.875 427.678 261.871 426.394 265.979C426.222 266.322 425.88 266.578 425.452 266.578ZM441.543 252.541C441.03 252.541 440.687 252.199 440.602 251.686C440.516 251.172 440.944 250.659 441.458 250.659C443.597 250.402 445.908 250.316 448.476 250.487C448.989 250.487 449.417 251.001 449.332 251.514C449.332 252.028 448.818 252.456 448.305 252.37C445.908 252.199 443.683 252.285 441.629 252.541H441.543Z" fill="#D24A43"/>
<path d="M568.73 252.37H559.23C558.031 252.37 558.031 254.253 559.23 254.253H568.73C569.929 254.253 569.929 252.37 568.73 252.37Z" fill="#D24A43"/>
<path d="M1041.96 230.202H886.099V236.536H1041.96V230.202Z" fill="#697CCC"/>
<path d="M1020.05 256.821H887.041C885.842 256.821 885.842 258.704 887.041 258.704H1020.05C1021.25 258.704 1021.25 256.821 1020.05 256.821Z" fill="#003865"/>
<path d="M1020.05 277.705H887.041C885.842 277.705 885.842 279.588 887.041 279.588H1020.05C1021.25 279.588 1021.25 277.705 1020.05 277.705Z" fill="#003865"/>
<path d="M1020.05 298.675H887.041C885.842 298.675 885.842 300.558 887.041 300.558H1020.05C1021.25 300.558 1021.25 298.675 1020.05 298.675Z" fill="#003865"/>
<path d="M1020.05 319.559H887.041C885.842 319.559 885.842 321.442 887.041 321.442H1020.05C1021.25 321.442 1021.25 319.559 1020.05 319.559Z" fill="#003865"/>
<path d="M1053 382.211H868.639V199.818H1053V382.211ZM870.522 380.328H1051.03V201.701H870.522V380.328Z" fill="#697CCC"/>
<path d="M932.917 366.291H886.356C885.158 366.291 885.158 368.174 886.356 368.174H932.917C934.201 368.174 934.201 366.291 932.917 366.291Z" fill="#003865"/>
<path d="M1011.83 366.291H974.771C973.572 366.291 973.572 368.174 974.771 368.174H1011.83C1013.03 368.174 1013.03 366.291 1011.83 366.291Z" fill="#003865"/>
<path d="M998.907 359.016C995.912 355.849 992.916 352.768 989.92 349.601C989.064 348.745 987.695 350.029 988.551 350.97C991.546 354.137 994.542 357.218 997.538 360.385C998.394 361.241 999.763 359.872 998.907 359.016Z" fill="#D24A43"/>
<path d="M989.749 360.214C992.916 357.218 995.997 354.223 999.164 351.227C1000.02 350.371 998.736 349.002 997.794 349.858C994.627 352.853 991.546 355.849 988.379 358.845C987.523 359.7 988.893 360.984 989.749 360.214Z" fill="#D24A43"/>
<path d="M749.326 647.968H716.031V693.588H749.326V647.968Z" fill="#D24A43"/>
<path d="M723.477 682.376C719.968 682.547 716.459 682.804 712.864 682.889C711.067 682.975 708.499 683.146 707.387 681.178C706.531 679.466 707.044 676.042 707.044 674.159C706.959 670.479 706.787 666.798 706.787 663.118C706.787 654.73 713.035 654.816 719.198 656.271C720.396 656.528 720.91 654.73 719.712 654.473C715.689 653.532 710.553 652.419 707.13 655.757C703.535 659.352 704.904 666.028 704.99 670.479C705.076 673.988 703.706 681.691 707.13 684.259C708.499 685.286 710.297 685.029 711.923 684.944C715.774 684.772 719.54 684.516 723.392 684.344C724.676 684.259 724.676 682.29 723.477 682.376Z" fill="#D24A43"/>
<path d="M731.78 638.896C727.842 635.643 727.757 629.567 731.523 626.229C732.464 625.458 731.095 624.089 730.153 624.859C725.617 628.882 725.703 636.414 730.41 640.265C731.437 641.036 732.721 639.666 731.78 638.896Z" fill="#DEE7FF"/>
<path d="M739.397 638.554C735.46 635.301 735.375 629.224 739.141 625.886C740.082 625.116 738.713 623.746 737.771 624.517C733.235 628.539 733.32 636.071 738.028 639.923C738.969 640.693 740.339 639.324 739.397 638.554Z" fill="#DEE7FF"/>
<path d="M268.052 653.703V880.945H187.597V629.481H243.83C257.182 629.481 268.052 640.351 268.052 653.703Z" fill="#6885E0"/>
<path d="M247.767 654.302V855.097C247.767 856.295 249.65 856.295 249.65 855.097V654.302C249.65 653.104 247.767 653.104 247.767 654.302Z" fill="white"/>
<path d="M582.083 692.989H480.573L512.669 627.684C513.696 625.715 515.665 624.431 517.975 624.431H613.494C614.607 624.431 615.292 625.544 614.778 626.571L582.083 692.989Z" fill="black"/>
<path d="M502.483 690.764H428.362C427.164 690.764 427.164 692.647 428.362 692.647H502.483C503.682 692.647 503.682 690.764 502.483 690.764Z" fill="black"/>
<path d="M563.424 660.721C562.054 665.258 558.288 666.627 554.522 665.429C550.756 664.231 548.617 660.037 549.644 656.442C550.756 652.676 554.95 650.622 558.716 651.734C562.482 652.847 564.622 656.955 563.424 660.721Z" fill="white"/>
<path d="M496.835 626.143C489.816 620.922 482.883 615.615 475.865 610.394C474.923 609.624 473.982 611.336 474.923 612.021C481.942 617.242 488.875 622.548 495.893 627.769C496.835 628.539 497.776 626.828 496.835 626.143Z" fill="#FECA55"/>
<path d="M507.961 618.183L499.06 606.2C498.375 605.259 496.663 606.2 497.434 607.142L506.335 619.125C507.105 620.152 508.732 619.21 507.961 618.183Z" fill="#FECA55"/>
<path d="M542.882 604.146V616.129C542.882 617.327 544.765 617.327 544.765 616.129V604.146C544.851 602.862 542.882 602.862 542.882 604.146Z" fill="#FECA55"/>
<path d="M515.237 628.54C512.07 634.531 508.903 640.608 505.822 646.599C505.222 647.712 506.934 648.653 507.448 647.541C510.615 641.549 513.782 635.472 516.863 629.481C517.462 628.454 515.836 627.427 515.237 628.54Z" fill="white"/>
<path d="M580.799 608.511C578.916 611.079 577.033 613.561 575.064 616.129C574.294 617.07 576.006 618.097 576.69 617.07C578.573 614.503 580.456 612.021 582.425 609.453C583.11 608.511 581.483 607.57 580.799 608.511Z" fill="#FECA55"/>
<path d="M555.036 211.886H457.206V309.716H555.036V211.886Z" fill="#DEE7FF"/>
<path d="M555.036 202.386H457.206V208.548H555.036V202.386Z" fill="#BCD7FD"/>
<path d="M435.894 294.053H412.1V317.847H435.894V294.053Z" fill="#FECA55"/>
<path d="M423.655 313.824C423.398 313.824 423.056 313.653 422.885 313.482L416.551 305.265C416.208 304.837 416.294 304.238 416.722 303.896C417.15 303.553 417.749 303.639 418.091 304.067L423.569 311.171L430.502 298.503C430.759 298.076 431.358 297.904 431.786 298.161C432.214 298.418 432.385 299.017 432.128 299.445L424.511 313.396C424.34 313.653 423.997 313.824 423.655 313.824Z" fill="white"/>
<path d="M538.004 227.977H474.324C473.126 227.977 473.126 229.86 474.324 229.86H538.004C539.202 229.946 539.202 227.977 538.004 227.977Z" fill="white"/>
<path d="M538.004 243.212H474.324C473.126 243.212 473.126 245.095 474.324 245.095H538.004C539.202 245.095 539.202 243.212 538.004 243.212Z" fill="white"/>
<path d="M538.004 258.447H474.324C473.126 258.447 473.126 260.33 474.324 260.33H538.004C539.202 260.33 539.202 258.447 538.004 258.447Z" fill="white"/>
<path d="M516.777 267.263H474.324V294.481H516.777V267.263Z" fill="white"/>
<path d="M404.311 299.359H388.648C387.45 299.359 387.45 301.242 388.648 301.242H404.311C405.595 301.242 405.595 299.359 404.311 299.359Z" fill="#DEE7FF"/>
<path d="M404.311 307.918H388.648C387.45 307.918 387.45 309.801 388.648 309.801H404.311C405.595 309.801 405.595 307.918 404.311 307.918Z" fill="#DEE7FF"/>
<path d="M478.005 291.228C477.662 291.228 477.406 291.057 477.235 290.8C476.978 290.372 477.063 289.773 477.491 289.516L489.816 280.957C490.073 280.786 490.415 280.701 490.672 280.872L503.34 285.408L512.412 272.655C512.754 272.227 513.354 272.142 513.696 272.398C514.124 272.741 514.21 273.34 513.953 273.682L504.452 286.949C504.195 287.291 503.767 287.462 503.34 287.291L490.501 282.669L478.518 290.972C478.433 291.143 478.262 291.228 478.005 291.228Z" fill="#697CCC"/>
<path d="M769.782 755.641H457.72V762.317H769.782V755.641Z" fill="#D24A43"/>
<path d="M463.369 882.058C463.968 881.544 464.31 880.774 464.31 879.747V696.413C464.31 692.133 457.634 692.133 457.634 696.413V879.661C457.634 880.688 458.062 881.459 458.576 881.972H463.369V882.058Z" fill="#D24A43"/>
<path d="M772.778 882.058C773.377 881.544 773.719 880.774 773.719 879.747V696.413C773.719 692.133 767.043 692.133 767.043 696.413V879.661C767.043 880.688 767.471 881.459 767.984 881.972H772.778V882.058Z" fill="#D24A43"/>
<path d="M806.757 692.304H417.407C413.127 692.304 413.127 698.98 417.407 698.98H806.757C811.037 698.98 811.037 692.304 806.757 692.304Z" fill="#D24A43"/>
<path d="M902.19 880.346H178.182C176.984 880.346 176.984 882.229 178.182 882.229H902.19C903.388 882.315 903.388 880.346 902.19 880.346Z" fill="#697CCC"/>
</svg>
