<svg width="auto" height="auto" viewBox="0 0 1230 1008" fill="none" xmlns="http://www.w3.org/2000/svg">
<path d="M1146 0H54V1008H1146V0Z" fill="white"/>
<rect width="1230" height="1008" fill="#023047"/>
<path d="M726.359 200.994H425.104V363.329H726.359V200.994Z" fill="#2252B2"/>
<path d="M558.663 227.591H454.388V281.191H558.663V227.591Z" fill="#D24A43"/>
<path d="M454.388 246.024V281.191H486.423C481.084 265.992 468.949 253.057 454.388 246.024Z" fill="white"/>
<path d="M558.663 236.565V227.591H544.991C548.632 231.553 553.566 234.463 558.663 236.565Z" fill="white"/>
<path d="M488.769 248.773C476.068 248.126 466.765 258.151 463.448 269.63C463.125 270.843 464.985 271.409 465.39 270.196C468.14 260.738 474.936 252.33 485.128 251.036C495.968 249.581 506.404 258.151 504.139 269.63C503.896 270.843 505.838 271.409 506.08 270.196C508.184 259.04 499.771 249.258 488.769 248.773Z" fill="white"/>
<path d="M529.702 255.725C525.415 255.725 521.855 252.249 521.855 247.883C521.855 243.518 525.334 240.041 529.702 240.041C534.151 240.041 537.063 242.952 537.549 247.802C537.711 249.743 537.063 251.602 535.688 253.057C534.151 254.755 531.967 255.725 529.702 255.725ZM529.702 242.063C526.466 242.063 523.877 244.65 523.877 247.883C523.877 251.117 526.466 253.704 529.702 253.704C531.401 253.704 533.1 252.977 534.232 251.764C535.203 250.713 535.688 249.339 535.607 247.964C535.203 244.164 533.181 242.063 529.702 242.063Z" fill="white"/>
<path d="M493.784 247.802C489.497 247.802 485.937 244.326 485.937 239.961C485.937 235.676 489.416 232.119 493.784 232.119C498.233 232.119 501.146 235.029 501.631 239.88C501.793 241.82 501.146 243.679 499.771 245.135C498.233 246.832 496.049 247.802 493.784 247.802ZM493.784 234.14C490.548 234.14 487.96 236.727 487.96 239.961C487.96 243.194 490.548 245.781 493.784 245.781C495.483 245.781 497.182 245.054 498.314 243.841C499.285 242.79 499.77 241.416 499.69 240.041C499.285 236.242 497.182 234.14 493.784 234.14Z" fill="white"/>
<path d="M546.286 271.975C543.778 264.376 537.468 258.474 529.297 257.585C525.172 257.18 520.965 257.989 517.325 260.01C514.413 261.627 514.17 262.354 510.772 260.818L502.44 257.019C502.44 257.019 502.44 257.019 502.44 257.1C502.521 257.18 502.521 257.342 502.602 257.423C502.926 258.07 503.168 258.797 503.249 259.525C506.728 261.142 510.287 262.759 513.766 264.295C514.17 264.456 514.574 264.456 514.979 264.133C525.172 255.483 540.299 259.767 544.425 272.46C544.829 273.753 546.69 273.188 546.286 271.975Z" fill="white"/>
<path d="M446.46 240.931C445.894 240.931 445.49 240.526 445.49 239.961V220.073C445.49 219.507 445.894 219.103 446.46 219.103H467.331C467.898 219.103 468.302 219.507 468.302 220.073C468.302 220.639 467.898 221.043 467.331 221.043H447.431V239.88C447.431 240.526 447.027 240.931 446.46 240.931Z" fill="white"/>
<path d="M466.846 289.761H446.946C446.379 289.761 445.975 289.356 445.975 288.791V267.933C445.975 267.367 446.379 266.963 446.946 266.963C447.512 266.963 447.916 267.367 447.916 267.933V287.82H466.765C467.331 287.82 467.736 288.225 467.736 288.791C467.817 289.276 467.412 289.761 466.846 289.761Z" fill="white"/>
<path d="M566.995 289.761H546.124C545.558 289.761 545.153 289.356 545.153 288.791C545.153 288.225 545.558 287.82 546.124 287.82H566.024V268.903C566.024 268.337 566.429 267.933 566.995 267.933C567.561 267.933 567.966 268.337 567.966 268.903V288.791C567.966 289.276 567.48 289.761 566.995 289.761Z" fill="white"/>
<path d="M566.429 241.901C565.862 241.901 565.458 241.497 565.458 240.931V221.043H546.609C546.043 221.043 545.638 220.639 545.638 220.073C545.638 219.507 546.043 219.103 546.609 219.103H566.509C567.076 219.103 567.48 219.507 567.48 220.073V240.931C567.48 241.497 566.995 241.901 566.429 241.901Z" fill="white"/>
<path d="M682.029 230.825H587.381C586.086 230.825 586.086 232.846 587.381 232.846H682.029C683.242 232.846 683.242 230.825 682.029 230.825Z" fill="#FECA55"/>
<path d="M682.029 245.215H587.381C586.086 245.215 586.086 247.237 587.381 247.237H682.029C683.242 247.156 683.242 245.215 682.029 245.215Z" fill="#FECA55"/>
<path d="M682.029 259.525H587.381C586.086 259.525 586.086 261.546 587.381 261.546H682.029C683.242 261.546 683.242 259.525 682.029 259.525Z" fill="#FECA55"/>
<path d="M682.029 273.834H587.381C586.086 273.834 586.086 275.855 587.381 275.855H682.029C683.242 275.855 683.242 273.834 682.029 273.834Z" fill="#FECA55"/>
<path d="M680.653 286.123H650.884V315.873H680.653V286.123Z" fill="#FECA55"/>
<path d="M549.603 259.687C548.956 259.201 548.147 259.282 547.499 259.606C547.337 259.606 547.257 259.687 547.095 259.767C546.933 259.929 546.771 260.091 546.609 260.253C546.205 260.657 545.881 261.223 545.8 261.789C545.557 263.568 547.58 265.347 549.279 264.295C549.765 264.134 550.169 263.81 550.412 263.325C551.14 262.112 550.655 260.414 549.603 259.687Z" fill="white"/>
<path d="M437.966 185.229C438.209 187.897 435.782 190.16 433.032 190.16C430.281 190.16 428.097 187.978 428.097 185.229C428.097 182.561 430.281 180.298 433.032 180.298C435.782 180.298 437.643 181.914 437.966 185.229Z" fill="#FECA55"/>
<path d="M454.873 185.229C455.116 187.897 452.689 190.16 449.939 190.16C447.188 190.16 445.004 187.978 445.004 185.229C445.004 182.561 447.188 180.298 449.939 180.298C452.689 180.298 454.55 181.914 454.873 185.229Z" fill="#FECA55"/>
<path d="M414.183 879.762C406.74 835.46 398.813 777.494 391.37 733.192C390.723 729.392 384.98 731.009 385.627 734.808C393.069 779.111 400.997 837.076 408.439 881.379C409.086 885.098 414.83 883.481 414.183 879.762Z" fill="#D24A43"/>
<path d="M480.679 879.762C473.237 835.46 465.794 791.157 458.433 746.854C457.786 743.055 452.042 744.672 452.689 748.471C460.132 792.774 467.574 837.076 474.936 881.379C475.583 885.098 481.326 883.481 480.679 879.762Z" fill="#D24A43"/>
<path d="M303.922 731.979C299.068 777.009 294.7 835.621 289.846 880.652C289.442 884.451 295.428 884.451 295.832 880.652C300.686 835.621 305.055 777.009 309.908 731.979C310.313 728.179 304.327 728.179 303.922 731.979Z" fill="#D24A43"/>
<path d="M373.573 623.971L365.403 582.013C363.138 570.533 354.805 562.448 345.098 562.448H283.941C270.512 562.448 260.562 577.809 263.636 593.816L271.806 635.693C274.072 647.173 282.404 655.258 292.111 655.258H353.268C366.697 655.258 376.647 639.978 373.573 623.971Z" fill="#D24A43"/>
<path d="M283.051 585.732C281.433 584.681 279.33 585.004 278.197 586.621C278.035 586.783 277.955 587.025 277.793 587.187C276.741 588.642 277.065 590.986 278.683 592.037C280.301 593.088 282.404 592.765 283.536 591.148L283.941 590.582C284.912 589.046 284.669 586.702 283.051 585.732Z" fill="white"/>
<path d="M286.53 605.538C284.912 604.487 282.808 604.811 281.676 606.428C281.514 606.589 281.433 606.832 281.271 606.994C280.22 608.449 280.543 610.793 282.161 611.844C283.779 612.895 285.882 612.572 287.015 610.955L287.419 610.389C288.471 608.853 288.147 606.509 286.53 605.538Z" fill="white"/>
<path d="M296.48 585.732C294.862 584.681 292.758 585.004 291.626 586.621C291.464 586.783 291.383 587.025 291.221 587.187C290.17 588.642 290.493 590.986 292.111 592.037C293.729 593.088 295.832 592.765 296.965 591.148L297.369 590.582C298.34 589.046 298.017 586.702 296.48 585.732Z" fill="white"/>
<path d="M290.089 625.345C288.471 624.294 286.368 624.618 285.235 626.235C285.073 626.396 284.992 626.639 284.831 626.8C283.779 628.256 284.103 630.6 285.721 631.651C287.338 632.702 289.442 632.379 290.574 630.762L290.979 630.196C291.949 628.66 291.626 626.315 290.089 625.345Z" fill="white"/>
<path d="M294.538 648.952C292.354 648.628 290.251 648.224 288.228 647.497C293.486 675.792 298.664 704.088 303.922 732.383C305.863 732.06 307.886 731.817 309.827 731.655C304.731 704.088 299.634 676.52 294.538 648.952Z" fill="#D24A43"/>
<path d="M427.773 723.49H295.833C290.898 723.49 290.898 739.902 295.833 739.902H427.773C432.708 739.902 432.708 723.49 427.773 723.49Z" fill="#D24A43"/>
<path d="M829.825 451.853H740.274V520.814H829.825V451.853Z" fill="black"/>
<path d="M806.932 466.244H760.255C758.96 466.244 758.96 468.265 760.255 468.265H806.932C808.226 468.184 808.226 466.244 806.932 466.244Z" fill="white"/>
<path d="M806.932 478.128H760.255C758.96 478.128 758.96 480.149 760.255 480.149H806.932C808.226 480.149 808.226 478.128 806.932 478.128Z" fill="white"/>
<path d="M806.932 490.012H760.255C758.96 490.012 758.96 492.033 760.255 492.033H806.932C808.226 492.033 808.226 490.012 806.932 490.012Z" fill="white"/>
<path d="M794.312 501.977H760.012C759.041 501.977 759.041 503.998 760.012 503.998H794.312C795.202 503.917 795.202 501.977 794.312 501.977Z" fill="white"/>
<path d="M756.048 472.711C755.806 472.711 755.563 472.63 755.32 472.388L750.386 467.214C749.981 466.81 750.062 466.244 750.386 465.839L755.32 460.908C755.725 460.504 756.372 460.504 756.696 460.908C757.1 461.312 757.1 461.959 756.696 462.282L752.408 466.567L756.696 471.094C757.1 471.499 757.019 472.145 756.696 472.469C756.534 472.55 756.291 472.711 756.048 472.711Z" fill="white"/>
<path d="M798.761 509.657C798.518 509.657 798.276 509.576 798.033 509.334C797.628 508.929 797.628 508.283 798.033 507.959L802.321 503.675L798.033 499.147C797.628 498.743 797.709 498.096 798.033 497.773C798.437 497.369 799.085 497.45 799.408 497.773L804.343 502.947C804.747 503.351 804.667 503.917 804.343 504.321L799.408 509.253C799.246 509.576 799.004 509.657 798.761 509.657Z" fill="white"/>
<path d="M734.126 447.164C730.162 442.718 726.117 438.272 722.153 433.825C721.263 432.855 719.888 434.31 720.778 435.199L732.75 448.539C733.559 449.509 735.015 448.135 734.126 447.164Z" fill="#BCD7FD"/>
<path d="M843.011 438.757C839.856 441.748 836.701 444.739 833.546 447.65C832.657 448.539 834.032 449.913 834.922 449.024C838.077 446.033 841.232 443.041 844.386 440.131C845.357 439.242 843.901 437.867 843.011 438.757Z" fill="#BCD7FD"/>
<path d="M737.685 522.026C735.015 525.341 732.346 528.575 729.676 531.889C728.867 532.859 730.242 534.315 731.051 533.264C733.721 529.949 736.39 526.715 739.06 523.401C739.869 522.511 738.494 521.056 737.685 522.026Z" fill="#BCD7FD"/>
<path d="M756.938 880.813C748.282 825.839 739.626 770.865 730.971 715.891C729.191 716.861 727.33 717.589 725.308 718.235C733.883 772.482 742.377 826.809 750.952 881.056C751.599 884.855 757.585 884.613 756.938 880.813Z" fill="#D24A43"/>
<path d="M739.626 720.176H607.685C602.751 720.176 602.751 736.587 607.685 736.587H739.626C744.48 736.587 744.561 720.176 739.626 720.176Z" fill="#D24A43"/>
<path d="M646.273 482.898C609.87 478.936 600.243 473.277 592.639 506.423C585.035 539.569 578.725 603.032 578.725 603.032L634.705 633.834H741.325C741.325 633.834 744.642 480.311 705.569 480.634C676.528 480.877 646.273 482.898 646.273 482.898Z" fill="#D24A43"/>
<path d="M688.5 593.978C652.502 600.203 630.983 610.632 623.056 613.946L623.379 633.43L720.697 633.753C715.358 617.827 702.657 601.981 688.5 593.978Z" fill="#FFA79B"/>
<path d="M691.089 527.605C691.089 526.958 690.118 526.958 690.118 527.605C689.633 548.705 689.147 569.805 688.662 590.906C688.662 591.391 689.309 591.552 689.552 591.148C689.876 590.582 691.089 527.605 691.089 527.605Z" fill="white"/>
<path d="M629.446 594.786C628.961 593.654 592.882 538.438 565.862 511.112C565.781 511.031 565.782 510.87 565.701 510.789C561.979 506.181 557.53 502.219 552.515 499.067C551.463 498.42 550.33 497.773 549.117 497.045C546.609 495.186 544.101 493.165 541.755 491.063C539.895 489.446 535.931 483.868 532.776 484.757C532.21 484.919 531.805 485.242 531.482 485.646C531.401 485.727 531.401 485.727 531.401 485.808C530.754 486.859 530.835 488.233 531.239 489.365C531.886 491.467 533.342 493.165 535.122 494.539C537.953 498.177 536.497 500.683 533.828 499.632C531.401 498.177 528.812 496.965 526.062 496.237C525.091 495.833 524.12 495.429 523.069 495.105C520.318 489.527 516.031 482.008 513.846 483.544C511.824 485.323 510.287 488.961 511.258 492.761C509.559 493.973 510.206 498.743 511.015 500.926C513.361 507.393 514.575 510.061 519.186 515.316C524.039 520.814 536.255 522.835 542.241 526.473C548.713 531.647 584.387 604.568 582.446 604.164C582.284 604.164 630.741 597.616 629.446 594.786Z" fill="#FFA79B"/>
<path d="M545.962 510.789C542.079 507.879 539.329 503.917 538.034 499.228C537.873 498.582 536.902 498.905 537.064 499.471C538.439 504.402 541.351 508.525 545.396 511.597C545.962 512.082 546.448 511.193 545.962 510.789Z" fill="#952C28"/>
<path d="M525.576 507.07C524.282 505.938 523.069 505.534 521.37 505.13C520.156 504.806 520.48 505.292 520.156 503.998C519.995 503.351 519.995 502.543 519.833 501.896C519.105 498.258 517.406 494.943 515.06 492.033C514.655 491.548 513.927 492.276 514.332 492.761C517.325 496.479 518.943 500.845 519.186 505.615C519.186 505.857 519.428 506.1 519.671 506.1C521.613 505.938 523.311 506.504 524.767 507.798C525.334 508.121 526.062 507.474 525.576 507.07Z" fill="#952C28"/>
<path d="M526.952 501.169C525.496 499.875 523.878 499.39 522.017 499.633C521.047 494.621 518.377 490.174 514.332 486.94C513.847 486.536 513.119 487.264 513.604 487.668C517.649 490.902 520.238 495.267 521.128 500.36C521.209 500.603 521.532 500.765 521.775 500.684C523.474 500.28 524.93 500.684 526.305 501.897C526.79 502.301 527.437 501.573 526.952 501.169Z" fill="#952C28"/>
<path d="M523.069 511.597C521.936 509.415 519.267 509.172 518.215 506.828C516.678 503.594 515.626 500.037 514.413 496.722C514.17 496.156 513.199 496.399 513.442 496.965C514.736 500.36 515.869 503.917 517.325 507.232C517.73 508.121 518.134 508.768 518.862 509.415C519.995 510.385 521.532 510.627 522.26 512.082C522.502 512.729 523.392 512.244 523.069 511.597Z" fill="#952C28"/>
<path d="M612.378 517.095C611.811 529.302 611.326 541.591 610.76 553.798C610.76 554.445 611.73 554.445 611.73 553.798C612.297 541.591 612.782 529.302 613.348 517.095C613.348 516.448 612.378 516.448 612.378 517.095Z" fill="white"/>
<path d="M705.246 882.188C705.893 861.006 706.216 834.651 706.216 815.41C689.875 818.078 673.777 816.865 657.194 817.431C665.445 855.105 665.769 858.419 655.899 861.087C644.736 864.078 645.302 877.175 645.949 882.188H705.246Z" fill="#FFA79B"/>
<path d="M634.462 882.188C635.837 862.057 636.646 834.57 635.999 815.087C629.608 815.248 590.697 814.278 588.351 814.44C595.066 841.765 598.302 859.309 584.064 862.381C572.819 864.806 574.033 877.256 575.004 882.188H634.462Z" fill="#FFA79B"/>
<path d="M705.246 882.188C705.65 868.525 705.893 852.679 706.055 837.966C687.61 839.664 672.726 839.664 661.481 837.966C665.04 856.56 663.503 859.066 655.818 861.087C644.655 864.078 645.221 877.175 645.868 882.188H705.246Z" fill="#0083F9"/>
<path d="M634.462 882.188C635.352 869.091 635.999 853.003 636.161 837.966C621.923 839.825 607.605 839.502 593.286 837.966C595.228 851.709 593.61 860.36 583.983 862.381C572.739 864.806 573.952 877.256 574.923 882.188H634.462Z" fill="#0083F9"/>
<path d="M705.246 882.188C705.488 874.669 705.65 866.504 705.812 858.258C700.554 861.168 695.053 862.542 688.662 860.036C684.294 858.339 679.44 854.054 674.667 853.65C670.46 853.245 666.173 854.539 662.533 856.802C661.4 859.147 659.216 860.117 655.899 861.087C644.736 864.078 645.302 877.175 645.949 882.188H705.246Z" fill="black"/>
<path d="M634.462 882.188C634.866 875.882 635.271 868.848 635.514 861.653C630.66 863.189 625.402 862.785 619.658 860.36C611.811 856.964 600.243 848.718 592.558 856.802C592.234 857.207 591.83 857.449 591.425 857.692C589.807 860.117 587.38 861.653 583.902 862.462C572.657 864.887 573.871 877.337 574.842 882.268H634.462V882.188Z" fill="black"/>
<path d="M576.217 632.864C562.222 641.999 554.861 661.887 564.487 719.205C573.467 772.886 580.181 803.364 584.711 822.444C588.432 822.444 627.02 823.09 638.345 823.09C638.992 772.158 633.41 729.149 633.41 729.149C679.521 727.452 672.726 676.762 663.827 632.945H576.217V632.864Z" fill="#2252B2"/>
<path d="M630.013 709.585C631.792 719.691 633.329 729.069 633.329 729.069C657.841 728.179 667.386 713.385 669.651 693.174C656.627 699.237 643.684 705.543 630.013 709.585Z" fill="black"/>
<path d="M639.073 632.864C632.925 644.667 632.035 667.869 638.183 712.172C645.221 762.781 649.023 800.939 651.207 822.12C667.629 822.04 691.413 822.767 707.834 821.797C711.07 769.652 707.511 731.17 707.511 731.17C723.447 730.605 732.75 723.894 737.685 713.627C746.988 694.225 740.759 661.806 734.692 632.945H639.073V632.864Z" fill="#2252B2"/>
<path d="M676.609 632.864C691.251 648.79 715.924 653.398 738.008 649.437C736.957 643.859 735.824 638.28 734.611 632.864H676.609Z" fill="black"/>
<path d="M641.904 632.864H640.124C632.925 638.28 632.439 649.679 632.439 658.249C632.358 672.154 633.491 686.059 635.594 699.803C635.675 700.45 636.646 700.207 636.565 699.56C634.624 687.191 633.572 674.66 633.41 662.129C633.329 652.671 632.682 638.28 641.904 632.864Z" fill="black"/>
<path d="M721.91 715.81C717.137 714.921 712.041 713.385 707.511 710.959C707.511 719.61 707.511 731.09 707.511 731.09C721.587 730.524 730.485 725.269 735.743 716.942C731.051 717.023 726.279 716.619 721.91 715.81Z" fill="black"/>
<path d="M629.447 706.675C628.8 705.139 628.152 703.603 627.424 702.067C627.182 701.501 626.291 701.986 626.534 702.552C627.181 704.088 627.829 705.624 628.557 707.161C628.881 707.727 629.69 707.241 629.447 706.675Z" fill="white"/>
<path d="M706.297 702.228C706.217 701.582 705.246 701.582 705.327 702.228C705.569 704.007 705.731 705.786 705.974 707.484C706.055 708.131 707.026 708.131 706.945 707.484C706.783 705.786 706.54 704.007 706.297 702.228Z" fill="white"/>
<path d="M630.66 815.572H586.976C586.329 815.572 586.329 816.542 586.976 816.542H630.66C631.307 816.542 631.307 815.572 630.66 815.572Z" fill="white"/>
<path d="M699.179 815.572H655.495C654.848 815.572 654.848 816.542 655.495 816.542H699.179C699.826 816.542 699.826 815.572 699.179 815.572Z" fill="white"/>
<path d="M648.538 506.585C653.634 510.142 658.488 510.142 662.533 508.121C664.231 497.53 666.416 484.434 666.82 483.949L644.088 474.894L637.698 483.787C638.506 491.467 642.228 502.219 648.538 506.585Z" fill="#FFA79B"/>
<path d="M663.665 501.088C665.121 492.518 666.497 484.353 666.82 483.949L654.524 479.583C653.553 487.182 658.003 495.105 663.665 501.088Z" fill="black"/>
<path d="M629.366 449.267C631.874 441.102 646.759 436.09 656.871 437.706C661.32 438.434 663.262 435.281 664.475 438.757C667.468 447.408 677.742 473.844 674.506 482.171C669.895 494.217 654.12 492.681 645.707 485.324C637.213 477.886 625.807 460.909 629.366 449.267Z" fill="#FFA79B"/>
<path d="M662.695 431.642C658.084 430.672 651.774 434.634 649.185 437.625C639.882 436.251 630.175 441.02 628.233 447.326C616.584 451.449 626.453 475.864 636.97 475.379C639.882 473.196 640.125 470.043 642.066 466.405C651.127 460.019 649.023 451.773 648.457 447.326C651.531 448.377 664.313 442.88 665.688 439.242C667.225 433.825 664.151 431.966 662.695 431.642Z" fill="#952C28"/>
<path d="M658.407 459.858L657.517 456.138C657.356 455.491 656.304 455.734 656.466 456.462C656.789 457.675 657.032 458.968 657.356 460.181C657.598 460.828 658.569 460.504 658.407 459.858Z" fill="black"/>
<path d="M668.277 456.786L667.387 453.066C667.225 452.419 666.173 452.662 666.335 453.39C666.658 454.602 666.901 455.896 667.225 457.109C667.387 457.756 668.438 457.513 668.277 456.786Z" fill="black"/>
<path d="M669.49 463.091C669.167 462.444 668.277 463.01 668.6 463.657C669.005 464.465 668.439 465.355 667.71 465.84C666.982 466.325 666.092 466.487 665.283 466.649C664.636 466.81 664.879 467.78 665.607 467.7C666.82 467.457 668.196 467.134 669.086 466.163C669.733 465.274 669.976 464.142 669.49 463.091Z" fill="#952C28"/>
<path d="M664.394 478.856C663.504 479.017 662.695 478.694 662.047 478.047C661.562 477.562 660.834 478.29 661.319 478.775C662.209 479.745 663.423 480.068 664.717 479.907C665.365 479.745 665.122 478.694 664.394 478.856Z" fill="#952C28"/>
<path d="M655.738 450.802C655.171 451.207 654.524 451.53 653.958 451.934C652.825 452.662 653.877 454.522 655.01 453.794C655.576 453.39 656.223 453.066 656.79 452.662C658.003 451.934 656.951 450.075 655.738 450.802Z" fill="#952C28"/>
<path d="M667.387 449.105C667.144 448.62 666.416 448.377 665.931 448.701C665.364 449.105 664.879 449.509 664.312 449.913C663.827 450.237 663.584 450.803 663.908 451.369C664.151 451.854 664.879 452.097 665.364 451.773C665.931 451.369 666.416 450.965 666.982 450.56C667.468 450.156 667.71 449.59 667.387 449.105Z" fill="#952C28"/>
<path d="M661.724 455.087C661.4 454.521 660.349 454.926 660.753 455.491C662.614 458.564 661.886 462.606 658.407 464.142C654.848 465.759 650.965 463.495 650.156 459.776C649.994 459.129 648.942 459.291 649.104 459.938C649.994 464.061 654.039 466.81 658.164 465.354C662.614 463.98 664.07 458.887 661.724 455.087Z" fill="white"/>
<path d="M675.719 449.509C675.395 448.943 674.344 449.347 674.748 449.913C676.609 452.985 675.881 457.027 672.402 458.564C668.843 460.18 664.96 457.917 664.151 454.198C663.989 453.551 662.937 453.713 663.099 454.36C663.989 458.483 668.034 461.231 672.159 459.776C676.528 458.321 677.984 453.309 675.719 449.509Z" fill="white"/>
<path d="M663.989 455.815L662.371 456.623C661.724 456.947 662.29 457.836 662.937 457.513L664.555 456.704C665.122 456.381 664.636 455.491 663.989 455.815Z" fill="white"/>
<path d="M650.318 462.202C645.868 463.252 640.529 465.193 636.08 466.163C635.433 466.325 635.675 467.376 636.403 467.214C640.934 466.163 646.435 464.223 650.965 463.172C650.722 462.848 650.479 462.525 650.318 462.202Z" fill="white"/>
<path d="M629.446 473.358C629.608 468.507 635.756 463.899 642.066 466.405C643.765 471.418 645.706 476.349 647.648 481.281C645.383 483.383 639.882 485.242 635.918 483.706C631.307 481.928 629.285 478.532 629.446 473.358Z" fill="#FFA79B"/>
<path d="M637.132 472.711C636.484 472.388 635.999 473.358 636.565 473.601C638.264 474.409 639.882 475.299 641.582 476.107C641.986 476.35 642.472 475.946 642.391 475.541C642.31 475.38 638.507 473.439 637.132 472.711Z" fill="#952C28"/>
<path d="M699.502 125L794.231 219.588L699.502 314.256V125Z" fill="#FFA79B"/>
<path d="M415.963 392.19L374.948 351.121L415.963 310.133V392.19Z" fill="#FFA79B"/>
<path d="M881.436 484.919C882.488 485.323 904.734 517.984 904.734 517.984L928.032 491.386L897.616 468.75L881.436 484.919Z" fill="#952C28"/>
<path d="M888.555 494.62C884.834 489.284 881.76 485.08 881.355 484.919L887.342 478.855C889.85 483.787 890.739 490.012 888.555 494.62Z" fill="black"/>
<path d="M892.519 432.451C886.048 426.064 869.626 428.975 860.97 435.604C857.168 438.514 853.69 436.574 854.337 440.455C855.874 450.075 860.97 481.038 866.956 486.132C877.473 494.944 891.306 485.647 895.513 474.49C899.638 463.253 901.742 441.586 892.519 432.451Z" fill="#952C28"/>
<path d="M851.505 439.323C853.123 447.003 867.28 443.041 874.479 439.403C876.421 447.65 882.245 468.103 898.505 469.235C905.058 454.602 904.411 432.613 894.946 433.34C886.29 421.294 869.545 429.055 860.889 435.765C856.925 431.885 851.99 432.774 851.505 439.323Z" fill="black"/>
<path d="M893.166 451.934C890.497 447.488 882.488 446.356 877.877 451.773C878.767 457.351 879.495 462.848 880.223 468.507C883.378 469.316 889.445 468.265 892.438 464.869C895.755 460.989 895.998 456.704 893.166 451.934Z" fill="#952C28"/>
<path d="M855.226 463.172C854.983 460.989 856.844 459.291 858.948 459.372C859.595 459.372 860.162 460.181 860.081 460.747C860.081 460.827 860 460.827 860 460.908C860.242 460.908 860.404 460.989 860.647 460.989C862.184 461.474 861.294 463.819 859.757 463.334C859.757 463.334 859.676 463.415 859.838 463.415C861.052 463.576 861.375 465.355 860.242 465.84C858.058 466.73 855.469 465.436 855.226 463.172Z" fill="#952C28"/>
<path d="M861.132 453.309C860.889 454.522 860.565 455.654 860.323 456.866C860.161 457.513 861.213 457.837 861.374 457.19C861.617 455.977 861.941 454.845 862.183 453.632C862.264 452.904 861.213 452.581 861.132 453.309Z" fill="black"/>
<path d="M887.18 454.521C886.452 455.411 885.724 456.3 884.996 457.27L884.43 457.998C884.025 458.564 884.753 459.292 885.239 458.807C886.129 457.675 887.1 456.543 887.99 455.33C888.394 454.764 887.585 453.955 887.18 454.521Z" fill="black"/>
<path d="M874.398 475.783C874.318 475.056 873.266 475.379 873.347 476.107C873.67 478.209 872.7 480.311 870.92 481.442C870.354 481.847 870.92 482.736 871.486 482.413C873.67 480.957 874.722 478.451 874.398 475.783Z" fill="black"/>
<path d="M863.559 447.488C862.669 447.326 861.779 447.165 860.808 446.922C860.242 446.841 859.595 447.084 859.433 447.65C859.271 448.216 859.595 448.863 860.161 449.024C861.051 449.186 861.941 449.348 862.912 449.59C863.478 449.671 864.125 449.429 864.287 448.863C864.449 448.297 864.125 447.569 863.559 447.488Z" fill="black"/>
<path d="M896.807 529.949C875.208 559.053 869.545 574.333 869.545 574.333C869.545 574.333 845.923 526.149 836.378 516.286C836.378 516.286 808.469 506.262 804.99 511.355C801.512 516.448 802.968 526.473 805.071 532.455C807.174 538.438 815.345 541.752 823.192 540.944C823.192 540.944 841.231 624.375 857.168 627.852C873.023 631.328 888.96 629.388 890.901 629.145C901.579 627.852 943.16 549.109 943.241 546.441C943.241 543.773 896.807 529.949 896.807 529.949Z" fill="#841E1E"/>
<path d="M871.972 579.265C871.406 577.89 870.84 576.435 870.273 575.06C870.03 574.494 869.06 574.737 869.302 575.303C869.869 576.677 870.435 578.133 871.001 579.507C871.244 580.073 872.215 579.831 871.972 579.265Z" fill="white"/>
<path d="M834.261 508.518L810.683 504.841L805.993 534.873L829.571 538.551L834.261 508.518Z" fill="#2252B2"/>
<path d="M817.853 511.436C816.963 517.418 816.073 523.32 815.264 529.302C815.102 530.515 816.963 531.081 817.206 529.868C818.095 523.886 818.985 517.984 819.794 512.002C819.956 510.708 818.014 510.142 817.853 511.436Z" fill="white"/>
<path d="M825.78 488.314C821.412 490.416 819.228 495.509 820.684 500.118C821.088 501.33 822.949 500.845 822.625 499.552C821.412 495.752 823.273 491.71 826.832 490.012C827.965 489.446 826.913 487.748 825.78 488.314Z" fill="#BCD7FD"/>
<path d="M828.531 491.71C825.7 493.569 824.243 496.722 824.729 500.037C824.891 501.33 826.832 500.764 826.67 499.471C826.347 497.045 827.479 494.701 829.582 493.407C830.553 492.761 829.583 491.063 828.531 491.71Z" fill="#BCD7FD"/>
<path d="M808.954 510.87C807.983 510.547 807.498 511.678 807.902 512.325C807.255 512.325 806.689 512.487 806.123 512.972C804.505 514.266 804.747 516.933 806.446 518.065C806.608 518.227 806.851 518.227 807.012 518.227C807.093 519.116 807.255 520.005 807.579 520.652C807.579 520.733 807.498 520.895 807.498 520.976C806.931 521.056 806.365 521.38 805.799 521.946C805.394 522.35 805.071 523.078 804.909 523.886C803.291 526.069 801.431 528.898 802.806 531.728C803.615 533.345 805.394 534.396 807.255 533.911C809.925 533.183 810.734 530.192 809.925 527.767C810.006 527.605 810.006 527.443 810.086 527.281C810.167 527.039 810.248 526.877 810.329 526.635C810.491 526.23 810.572 525.745 810.653 525.179C811.623 524.128 812.109 522.835 812.109 521.461C812.918 520.571 813.565 519.44 813.808 518.469C814.536 515.074 812.19 512.002 808.954 510.87ZM807.498 514.508C807.498 514.67 807.498 514.751 807.498 514.912C807.498 515.155 807.579 515.316 807.66 515.478C807.498 515.64 807.417 515.882 807.336 516.125C806.851 515.64 807.012 514.831 807.498 514.508Z" fill="#841E1E"/>
<path d="M810.978 519.36C808.389 518.713 806.528 516.611 806.042 514.023C805.961 513.538 805.152 513.7 805.233 514.266C805.719 517.096 807.903 519.441 810.735 520.168C811.301 520.249 811.463 519.441 810.978 519.36Z" fill="black"/>
<path d="M808.55 524.533C806.851 524.129 805.556 522.916 805.071 521.299C804.909 520.814 804.181 520.975 804.262 521.541C804.828 523.482 806.366 524.937 808.307 525.342C808.874 525.422 809.035 524.614 808.55 524.533Z" fill="black"/>
<path d="M808.226 530.515C806.608 530.192 805.314 528.898 805.071 527.2C804.99 526.715 804.181 526.877 804.262 527.443C804.586 529.383 806.123 530.92 807.984 531.324C808.55 531.405 808.793 530.596 808.226 530.515Z" fill="black"/>
<path d="M845.6 530.677C845.357 525.907 843.092 519.682 839.047 516.286C827.803 509.091 826.346 508.283 824.971 509.495C822.221 511.921 824.567 514.912 827.075 516.691C827.56 517.499 829.421 519.439 829.825 519.763C829.987 520.409 834.679 530.677 836.054 532.374C836.539 533.021 837.429 532.779 837.753 532.294C838.562 532.455 839.452 532.294 840.099 531.808C841.474 531.647 842.526 530.838 843.254 529.787C843.415 530.272 843.496 530.677 843.658 531.162C843.982 532.051 845.681 531.728 845.6 530.677Z" fill="#841E1E"/>
<path d="M835.812 530.435C834.922 528.737 833.951 527.039 833.061 525.341C832.818 524.856 832.09 525.26 832.333 525.745L835.084 530.839C835.407 531.324 836.055 530.92 835.812 530.435Z" fill="black"/>
<path d="M876.826 882.188C873.104 865.615 847.137 750.654 826.266 710.232L803.13 706.27L847.622 882.188H876.826Z" fill="#841E1E"/>
<path d="M876.825 882.188C876.016 878.388 873.994 869.495 871.163 857.53C862.183 861.33 852.314 863.027 842.607 862.381L847.622 882.268H876.825V882.188Z" fill="#2252B2"/>
<path d="M861.536 818.644C851.424 779.435 838.077 733.03 826.266 710.151L803.13 706.19L832.171 821.15C842.04 820.503 851.829 819.695 861.536 818.644Z" fill="black"/>
<path d="M993.234 631.732C961.847 631.166 930.378 629.549 898.991 630.6C899.476 636.744 899.719 640.382 899.719 640.382C899.719 640.382 883.863 642.403 820.279 647.335C756.695 652.266 738.817 668.193 768.668 760.436C798.518 852.679 813.727 857.692 795.121 862.3C771.257 868.282 768.83 877.903 768.991 882.107H852.557C844.548 774.26 825.214 719.691 825.214 719.691C825.214 719.691 825.214 719.691 881.841 720.661C1014.27 723.086 999.949 681.29 993.234 631.732Z" fill="#952C28"/>
<path d="M993.234 631.732C961.847 631.166 930.378 629.549 898.991 630.6C899.476 636.744 899.719 640.382 899.719 640.382C899.719 640.382 883.863 642.403 820.279 647.335C756.695 652.266 738.817 668.193 768.668 760.436C780.56 797.301 790.105 820.18 796.172 834.732C813.161 832.064 830.23 830.205 847.299 828.345C838.238 756.151 825.295 719.691 825.295 719.691C825.295 719.691 825.295 719.691 881.922 720.661C1014.27 723.086 1001.73 712.172 993.234 631.732Z" fill="black"/>
<path d="M852.638 882.188C852.071 875.073 851.505 868.201 850.939 861.572C846.004 862.947 840.989 863.674 835.65 863.432C824.729 863.027 813.808 858.904 802.806 858.096C801.835 860.198 799.408 861.33 795.121 862.381C771.257 868.363 768.83 877.984 768.992 882.188H852.638Z" fill="#2252B2"/>
<path d="M822.625 717.427C829.744 741.195 835.002 765.61 838.157 790.268C838.238 790.914 839.209 790.914 839.128 790.268C835.973 765.61 830.796 741.276 823.677 717.427C823.273 717.346 822.949 717.427 822.625 717.427Z" fill="white"/>
<path d="M918.325 641.838L903.764 642.323C903.117 642.323 903.117 643.374 903.764 643.293L918.325 642.808C918.972 642.808 918.972 641.838 918.325 641.838Z" fill="white"/>
<path d="M854.822 864.968C854.741 864.321 853.77 864.321 853.851 864.968C854.498 870.223 855.226 875.558 855.874 880.813C855.955 881.46 856.925 881.46 856.844 880.813C856.197 875.558 855.469 870.303 854.822 864.968Z" fill="white"/>
<path d="M993.234 631.49H898.991C898.91 630.277 898.748 628.983 898.667 627.528C898.182 622.273 897.616 615.725 897.049 608.368C896.968 607.075 896.807 605.781 896.726 604.407C896.564 602.709 896.483 600.93 896.321 599.071C896.24 597.777 896.159 596.484 895.998 595.11C895.512 588.965 895.108 582.498 894.703 575.949C894.622 574.656 894.541 573.282 894.461 571.988C894.38 570.21 894.218 568.431 894.137 566.733C894.056 565.44 893.975 564.065 893.894 562.772C893.571 556.951 893.328 551.211 893.085 545.552C893.004 544.259 893.004 542.884 892.924 541.591C892.843 539.812 892.843 538.034 892.762 536.336C892.762 534.961 892.681 533.668 892.681 532.374C892.519 524.613 892.519 517.337 892.762 511.193C892.843 509.819 892.843 508.525 892.924 507.232C893.004 506.423 893.004 505.696 893.085 504.887C893.166 503.836 893.328 502.866 893.49 501.896C893.733 500.522 894.056 499.147 894.461 497.935C898.586 485.323 910.559 479.179 917.273 482.736C921.561 485.08 928.841 490.335 928.841 490.335C932.077 492.68 935.07 495.267 937.983 497.935C939.358 499.228 940.733 500.522 942.027 501.896C943.726 503.594 945.344 505.372 946.881 507.232C948.014 508.525 949.146 509.819 950.198 511.193C955.456 517.742 960.067 524.856 964.193 532.374C964.921 533.668 965.649 535.042 966.296 536.336C967.186 538.114 968.076 539.812 968.885 541.591C969.532 542.884 970.098 544.259 970.745 545.552C973.253 551.13 975.518 556.951 977.541 562.772C978.026 564.065 978.43 565.44 978.916 566.733C979.482 568.512 980.048 570.21 980.615 571.988C981.019 573.282 981.424 574.656 981.828 575.949C983.689 582.336 985.307 588.723 986.763 595.11C987.086 596.403 987.329 597.777 987.653 599.071C988.057 600.85 988.381 602.628 988.704 604.407C988.947 605.7 989.19 607.075 989.432 608.368C990.646 614.836 991.616 621.303 992.506 627.528C992.668 628.66 992.83 629.711 992.992 630.843C993.154 631.004 993.234 631.247 993.234 631.49Z" fill="#FECA55"/>
<path d="M916.302 563.904C914.846 551.373 913.471 538.842 912.015 526.311C911.934 525.664 910.963 525.664 911.044 526.311C912.5 538.842 913.875 551.373 915.332 563.904C915.655 563.904 915.979 563.904 916.302 563.904Z" fill="white"/>
<path d="M993.234 631.489H898.991C898.91 630.277 898.748 628.983 898.667 627.528H992.749C992.911 628.66 993.072 629.711 993.234 630.843C993.153 631.004 993.234 631.247 993.234 631.489Z" fill="white"/>
<path d="M987.733 599.071H896.24C896.159 597.777 896.078 596.484 895.917 595.109H986.843C987.167 596.403 987.491 597.697 987.733 599.071Z" fill="white"/>
<path d="M989.594 608.287H896.968C896.887 606.994 896.726 605.7 896.645 604.326H988.785C989.108 605.7 989.351 606.994 989.594 608.287Z" fill="white"/>
<path d="M942.107 501.815H893.57C893.813 500.441 894.136 499.067 894.541 497.854H938.062C939.438 499.147 940.813 500.441 942.107 501.815Z" fill="white"/>
<path d="M950.36 511.031H892.843C892.924 509.657 892.924 508.364 893.004 507.07H947.043C948.175 508.364 949.227 509.738 950.36 511.031Z" fill="white"/>
<path d="M966.458 536.174H892.842C892.842 534.8 892.762 533.506 892.762 532.213H964.354C965.082 533.506 965.729 534.88 966.458 536.174Z" fill="white"/>
<path d="M970.907 545.471H893.085C893.004 544.178 893.004 542.803 892.923 541.51H969.046C969.694 542.803 970.341 544.097 970.907 545.471Z" fill="white"/>
<path d="M979.077 566.652H894.137C894.056 565.359 893.975 563.984 893.894 562.691H977.702C978.188 563.984 978.673 565.278 979.077 566.652Z" fill="white"/>
<path d="M966.862 574.414C966.377 573.201 929.327 571.827 917.354 574.252L918.163 582.821C877.553 583.468 851.182 590.502 836.135 596.403C826.266 598.748 810.167 601.901 805.718 606.913C800.46 612.895 796.334 616.534 800.379 620.333C799.894 621.222 801.673 624.86 803.615 623.89C803.21 624.537 804.424 626.477 807.579 626.639C809.925 628.66 814.778 625.992 817.61 621.708C820.118 620.98 823.111 620.414 825.457 617.342C825.457 617.342 837.267 623.082 852.152 614.593C852.152 614.593 883.378 631.571 944.535 625.992C982.718 622.516 978.754 604.649 966.862 574.414Z" fill="#952C28"/>
<path d="M923.26 583.064C922.128 582.902 920.914 582.74 919.781 582.579C919.134 582.498 918.891 583.468 919.539 583.549C920.671 583.711 921.885 583.872 923.018 584.034C923.665 584.115 923.908 583.145 923.26 583.064Z" fill="white"/>
<path d="M815.911 614.916C812.756 617.908 810.087 621.384 807.983 625.184C807.66 625.749 808.55 626.235 808.873 625.669C810.976 621.95 813.565 618.554 816.639 615.644C817.125 615.159 816.396 614.431 815.911 614.916Z" fill="black"/>
<path d="M811.785 611.036C808.307 614.512 805.718 618.554 804.019 623.162C803.777 623.728 804.747 624.052 804.99 623.405C806.608 618.959 809.116 614.997 812.513 611.683C812.999 611.278 812.271 610.551 811.785 611.036Z" fill="black"/>
<path d="M809.763 607.64C804.1 608.691 802.078 614.27 800.541 619.12C800.379 619.767 801.35 620.01 801.511 619.363C802.887 614.836 804.747 609.581 810.005 608.611C810.653 608.53 810.329 607.56 809.763 607.64Z" fill="black"/>
<path d="M981.99 575.869H894.703C894.623 574.575 894.542 573.201 894.461 571.907H980.857C981.181 573.282 981.585 574.575 981.99 575.869Z" fill="white"/>
<path d="M963.384 723.086H840.261C838.643 723.086 837.268 721.792 837.268 720.095C837.268 718.478 838.562 717.104 840.261 717.104H963.384C977.622 717.104 989.918 707.483 993.396 693.659L1037.97 514.265C1038.37 512.648 1039.99 511.678 1041.61 512.082C1043.23 512.487 1044.2 514.104 1043.79 515.72L999.221 695.114C995.014 711.606 980.291 723.086 963.384 723.086Z" fill="#D24A43"/>
<path d="M855.307 720.903C847.056 774.018 838.724 827.052 830.472 880.166C829.906 883.885 835.65 885.502 836.216 881.783C844.548 828.184 852.961 774.584 861.294 721.065C859.271 721.065 857.33 720.984 855.307 720.903Z" fill="#D24A43"/>
<path d="M1004.72 880.813C996.066 825.839 987.41 770.865 978.754 715.891C976.974 716.861 975.114 717.589 973.091 718.235C981.666 772.482 990.16 826.809 998.735 881.056C999.382 884.855 1005.37 884.613 1004.72 880.813Z" fill="#D24A43"/>
<path d="M799.975 626.639C788.973 600.526 782.986 587.106 771.985 560.993C771.499 559.861 769.558 560.347 770.043 561.559C781.045 587.672 787.031 601.092 798.033 627.205C798.599 628.337 800.541 627.852 799.975 626.639Z" fill="black"/>
<path d="M871.244 626.639H800.217C798.923 626.639 798.923 628.66 800.217 628.66H871.244C872.538 628.579 872.538 626.639 871.244 626.639Z" fill="black"/>
<path d="M795.04 543.612L784.442 558.164C783.714 559.215 785.413 560.185 786.141 559.134C789.701 554.283 793.179 549.433 796.739 544.582C797.467 543.612 795.768 542.642 795.04 543.612Z" fill="#FECA55"/>
<path d="M801.269 557.113L788.002 564.389C786.869 565.036 787.921 566.733 788.973 566.086L802.239 558.81C803.453 558.245 802.401 556.547 801.269 557.113Z" fill="#FECA55"/>
<path d="M586.733 530.272H570.15V570.614H586.733V530.272Z" fill="#697CCC"/>
<path d="M566.186 540.135H549.602V580.477H566.186V540.135Z" fill="#697CCC"/>
<path d="M607.2 551.373H590.617V591.714H607.2V551.373Z" fill="#BCD7FD"/>
<path d="M649.994 541.025C646.677 545.633 643.36 550.322 640.043 554.93C639.315 555.981 641.014 556.951 641.742 555.9C645.059 551.292 648.376 546.603 651.692 541.995C652.501 540.944 650.722 539.974 649.994 541.025Z" fill="#FECA55"/>
<path d="M660.267 557.84C655.414 560.67 650.56 563.58 645.706 566.41C644.574 567.056 645.625 568.754 646.677 568.107C651.531 565.278 656.384 562.368 661.238 559.538C662.371 558.891 661.4 557.194 660.267 557.84Z" fill="#FECA55"/>
<path d="M630.093 543.854C629.446 546.037 628.799 548.301 628.071 550.483C627.667 551.696 629.608 552.262 630.013 551.049C630.66 548.867 631.307 546.603 632.035 544.42C632.359 543.207 630.417 542.642 630.093 543.854Z" fill="#FECA55"/>
<path d="M650.56 633.43H550.735L533.342 560.508H633.167L650.56 633.43Z" fill="black"/>
<path d="M669.975 626.639H598.948C597.654 626.639 597.654 628.66 598.948 628.66H669.975C671.269 628.579 671.269 626.639 669.975 626.639Z" fill="black"/>
<path d="M576.459 599.071C574.437 595.595 572.334 592.118 570.311 588.561C569.664 587.429 567.965 588.48 568.612 589.531C570.635 593.007 572.738 596.484 574.76 600.041C575.408 601.173 577.106 600.203 576.459 599.071Z" fill="white"/>
<path d="M582.122 599.232C580.1 595.918 578.158 592.603 576.136 589.289C575.489 588.157 573.79 589.208 574.437 590.259C576.459 593.573 578.401 596.888 580.423 600.203C581.07 601.334 582.85 600.364 582.122 599.232Z" fill="white"/>
<path d="M475.421 626.8L426.884 623.971L326.492 618.15L331.75 532.132L360.549 519.358L385.384 508.283C388.377 508.202 391.289 508.04 393.878 507.959C427.854 506.504 433.517 504.887 448.887 546.037C465.552 590.421 475.421 626.8 475.421 626.8Z" fill="#BCD7FD"/>
<path d="M422.515 586.136L420.493 601.415C420.412 602.062 421.383 602.062 421.464 601.415L423.486 586.136C423.567 585.489 422.596 585.489 422.515 586.136Z" fill="white"/>
<path d="M426.641 566.006C424.942 556.789 422.272 547.816 418.794 539.084C418.551 538.518 417.581 538.761 417.823 539.327C420.735 546.603 423.081 554.041 424.699 561.721C425.589 565.682 426.317 569.724 426.803 573.767C427.288 577.97 427.288 582.821 423.324 585.408C422.758 585.732 423.324 586.621 423.81 586.297C430.524 581.932 427.854 572.311 426.641 566.006Z" fill="white"/>
<path d="M433.679 577.809C428.097 582.902 425.104 590.178 425.508 597.697C425.508 598.343 426.56 598.343 426.479 597.697C426.075 590.421 428.906 583.387 434.326 578.456C434.811 578.051 434.164 577.405 433.679 577.809Z" fill="white"/>
<path d="M472.832 603.598C477.201 599.637 481.003 593.897 476.796 588.399C475.098 586.136 472.59 584.519 469.758 583.306C464.824 580.234 459.323 578.213 453.337 579.587C447.755 580.8 440.393 587.753 439.261 593.169C437.805 596.888 442.658 598.586 444.114 602.466C453.822 602.628 463.368 602.143 472.832 603.598ZM449.615 592.118C450.586 591.229 451.557 590.259 452.608 589.37H452.689C452.77 589.936 452.851 590.501 452.851 591.067C452.608 593.088 452.123 595.029 451.476 596.888C451.233 597.212 450.991 597.616 450.829 597.939C450.343 596.08 449.534 594.22 448.887 592.523C449.13 592.523 449.373 592.361 449.615 592.118Z" fill="#FFA79B"/>
<path d="M460.86 590.582C459.404 593.897 458.028 597.212 456.572 600.526C456.33 601.092 457.139 601.577 457.462 601.011C458.918 597.697 460.294 594.382 461.75 591.067C461.992 590.501 461.183 590.016 460.86 590.582Z" fill="#D24A43"/>
<path d="M467.412 593.169C465.956 595.918 464.581 598.667 463.125 601.415C462.801 601.981 463.691 602.466 464.015 601.9C465.471 599.152 466.846 596.403 468.302 593.654C468.545 593.088 467.655 592.603 467.412 593.169Z" fill="#D24A43"/>
<path d="M474.45 594.22C473.075 596.969 471.619 599.799 470.244 602.547C469.92 603.113 470.81 603.598 471.134 603.032C472.509 600.284 473.965 597.454 475.34 594.705C475.664 594.139 474.774 593.654 474.45 594.22Z" fill="#D24A43"/>
<path d="M457.705 564.308C457.543 565.279 457.462 566.249 457.3 567.219C457.219 567.542 457.219 567.866 457.139 568.189C455.925 577.405 454.712 586.622 453.498 595.838C452.447 597.455 451.476 599.072 450.667 600.688C450.182 598.586 449.534 596.485 448.725 594.463C449.858 585.732 450.991 576.92 452.204 568.189C452.285 567.866 452.285 567.542 452.366 567.219C452.447 566.249 452.608 565.279 452.77 564.308C452.932 563.177 453.66 562.449 454.55 562.126C455.197 561.883 455.925 561.883 456.572 562.126C457.3 562.449 457.867 563.177 457.705 564.308Z" fill="#2252B2"/>
<path d="M455.036 558.81C454.632 561.478 454.308 564.146 453.903 566.814C453.742 568.108 455.683 568.512 455.845 567.218C456.249 564.55 456.573 561.883 456.978 559.215C457.139 557.921 455.198 557.517 455.036 558.81Z" fill="#2252B2"/>
<path d="M457.301 567.218C457.22 567.542 457.22 567.865 457.139 568.189H452.204C452.285 567.865 452.285 567.542 452.366 567.218H457.301Z" fill="black"/>
<path d="M436.348 629.468H292.03C293.325 616.857 290.736 578.536 301.333 541.51C309.747 512.002 319.05 508.93 353.43 508.606C362.248 508.525 372.764 508.606 385.384 508.444L370.742 535.204L341.619 588.48C369.043 592.927 408.844 613.946 426.803 624.052C432.789 627.366 436.348 629.468 436.348 629.468Z" fill="#BCD7FD"/>
<path d="M436.348 629.468C436.348 629.468 397.842 606.266 363.866 594.382C354.077 604.245 347.282 616.695 341.215 629.468H436.348Z" fill="#FFA79B"/>
<path d="M361.277 592.603C355.614 590.097 349.709 588.076 343.642 586.702C343.318 586.621 342.995 586.54 342.671 586.459C338.303 585.489 333.934 584.762 329.404 584.357C328.757 584.276 328.757 583.306 329.404 583.387C333.853 583.791 338.303 584.438 342.59 585.408C342.914 585.489 343.237 585.57 343.561 585.651C349.79 587.106 355.857 589.127 361.682 591.714C362.41 591.957 361.843 592.846 361.277 592.603Z" fill="white"/>
<path d="M343.723 586.621C343.399 586.54 343.076 586.459 342.752 586.378C342.752 586.055 342.752 585.732 342.752 585.327C342.347 573.767 341.943 562.206 341.539 550.645C341.539 549.998 342.509 549.998 342.509 550.645C342.914 562.287 343.318 573.928 343.723 585.489C343.642 585.974 343.723 586.298 343.723 586.621Z" fill="white"/>
<path d="M393.959 508.04L383.443 554.526L370.823 535.123L360.549 519.439L353.43 508.525C362.248 508.444 372.764 508.525 385.384 508.364C388.458 508.283 391.289 508.202 393.959 508.04Z" fill="#FFA79B"/>
<path d="M393.716 494.216C392.988 494.863 384.899 528.332 384.899 528.332L357.718 513.861L375.515 486.051L393.716 494.216Z" fill="#FFA79B"/>
<path d="M390.804 504.241C392.179 498.743 393.393 494.378 393.635 494.135L386.84 491.063C386.436 495.833 387.649 501.168 390.804 504.241Z" fill="black"/>
<path d="M350.194 471.014C349.224 463.172 359.983 453.39 369.205 450.964C373.25 449.913 373.735 446.518 376.081 449.024C381.825 455.168 400.512 475.218 400.835 482.008C401.321 493.973 387.487 498.501 377.618 495.429C367.506 492.357 351.489 482.251 350.194 471.014Z" fill="#FFA79B"/>
<path d="M386.597 500.926C388.134 490.174 376.243 474.571 376.405 472.63C377.456 466.648 373.25 461.716 369.043 458.887C372.036 458.644 377.375 452.5 377.133 448.943C376.405 443.85 373.169 443.365 371.794 443.607C368.558 444.254 365.484 447.73 363.785 450.964C362.733 450.722 361.601 450.802 360.387 451.368C354.725 454.198 349.143 459.291 347.525 465.678C347.282 466.729 347.12 467.78 347.12 468.831C344.532 471.822 343.399 475.703 345.017 479.987C345.017 479.987 345.017 479.987 345.017 480.068C343.723 480.796 342.509 481.685 341.539 482.898C339.273 485.646 338.545 489.446 339.678 492.841C340.325 494.701 341.377 496.237 342.671 497.369C341.539 502.785 343.076 508.525 348.496 511.355C350.68 512.487 353.188 512.729 355.453 512.244C357.151 516.771 362.491 519.52 367.344 517.903C368.962 517.337 370.257 516.529 371.227 515.397C376.566 517.903 384.494 515.72 387.083 510.061C388.539 507.151 388.296 503.594 386.597 500.926Z" fill="#D24A43"/>
<path d="M368.396 483.302C366.778 479.098 370.256 472.954 376.485 472.711C379.802 476.268 383.281 479.745 386.759 483.221C385.627 485.808 381.663 489.446 377.699 489.689C373.169 489.931 370.176 487.829 368.396 483.302Z" fill="#FFA79B"/>
<path d="M391.047 462.606C389.672 461.312 387.487 461.636 386.436 463.091C386.112 463.576 386.355 464.304 386.84 464.627C386.921 464.627 386.921 464.627 387.002 464.708C386.921 464.87 386.84 465.032 386.759 465.193C386.274 466.487 388.377 467.134 388.863 465.84C388.863 465.84 388.944 465.759 388.863 465.921C388.377 466.81 389.348 468.023 390.319 467.457C392.018 466.487 392.504 463.98 391.047 462.606Z" fill="#FFA79B"/>
<path d="M379.317 458.483L378.103 460.747C377.456 461.879 379.236 462.849 379.802 461.717C380.207 460.989 380.612 460.262 381.016 459.453C381.582 458.402 379.883 457.351 379.317 458.483Z" fill="#952C28"/>
<path d="M379.075 480.392C377.538 480.715 375.92 481.038 374.382 481.362C373.735 481.523 374.059 482.413 374.625 482.332C376.162 482.009 377.78 481.685 379.318 481.362C379.965 481.2 379.722 480.23 379.075 480.392Z" fill="#D24A43"/>
<path d="M393.151 479.017C392.261 479.664 391.29 479.745 390.319 479.341C389.752 479.098 389.51 480.068 390.076 480.311C391.29 480.796 392.665 480.634 393.717 479.907C394.121 479.502 393.636 478.613 393.151 479.017Z" fill="#D24A43"/>
<path d="M384.98 463.414C384.171 462.768 383.281 462.121 382.472 461.474C381.986 461.07 381.258 461.797 381.744 462.202C382.553 462.848 383.443 463.495 384.252 464.142C384.737 464.546 385.465 463.819 384.98 463.414Z" fill="black"/>
<path d="M479.304 882.188C478.899 878.469 476.554 866.019 464.176 862.057C450.667 857.773 439.261 865.695 469.677 788.651C461.992 787.6 454.307 786.225 446.622 784.77C437.885 783.072 429.23 781.456 420.412 780.162C418.147 779.839 415.801 779.515 413.536 779.111C408.682 801.02 404.88 834.085 406.498 882.188H479.304Z" fill="#FFA79B"/>
<path d="M586.167 882.188C580.019 858.258 567.642 866.746 548.955 855.752C540.057 850.497 537.549 816.219 534.475 777.898C516.112 782.102 497.344 784.932 479.142 789.863C491.034 830.609 504.786 872.648 507.86 882.188H586.167Z" fill="#FFA79B"/>
<path d="M442.335 659.947C408.601 657.279 408.601 657.279 408.601 657.279L413.374 631.166H301.495C295.024 717.831 288.067 733.353 398.651 727.371L425.832 725.35C425.832 725.35 411.271 760.436 404.314 787.195C421.949 788.812 469.354 799.645 469.839 800.131C472.994 791.965 514.413 665.606 442.335 659.947Z" fill="#0083F9"/>
<path d="M336.362 654.934C346.474 648.628 356.019 640.625 363.543 631.166H301.496C300.444 644.829 299.473 656.713 298.907 667.061C312.012 667.223 325.198 661.887 336.362 654.934Z" fill="black"/>
<path d="M479.304 882.188C478.9 878.469 476.554 866.019 464.177 862.057C461.264 861.087 458.433 860.764 456.087 860.036C449.777 861.491 443.548 863.432 436.996 864.564C430.524 865.695 424.214 865.695 417.662 865.129C413.779 864.806 409.976 864.402 406.093 864.402C406.093 870.142 406.255 876.043 406.498 882.268H479.304V882.188Z" fill="#952C28"/>
<path d="M540.299 784.285C535.041 749.845 528.65 716.861 522.421 691.638C511.177 645.961 482.702 651.943 396.305 643.374C396.305 643.374 427.126 693.012 460.213 708.857C459.889 721.146 464.824 760.113 475.745 797.22C475.745 797.22 522.341 788.004 540.299 784.285Z" fill="#0083F9"/>
<path d="M586.167 882.188C580.181 858.904 568.37 866.261 550.573 856.641C543.697 859.794 537.225 863.836 529.864 865.695C520.804 868.04 511.662 866.019 502.521 865.776C505.029 873.537 506.89 879.277 507.86 882.188H586.167Z" fill="#952C28"/>
<path d="M503.815 673.448C501.146 667.223 496.13 661.968 489.335 660.351C488.688 660.189 488.445 661.159 489.092 661.321C495.726 662.938 500.66 668.193 503.168 674.499C506.08 681.775 505.433 689.94 503.977 697.539C501.146 712.738 496.454 727.694 490.872 742.084C487.636 750.492 483.996 758.738 480.032 766.823C479.789 767.389 480.598 767.874 480.922 767.308C488.364 752.271 494.512 736.668 499.285 720.58C501.712 712.334 503.977 704.007 505.352 695.518C506.485 688.161 506.728 680.4 503.815 673.448Z" fill="white"/>
<path d="M407.226 645.071C399.541 644.91 391.775 644.829 384.09 644.667C383.443 644.667 383.443 645.637 384.09 645.637C391.775 645.799 399.541 645.88 407.226 646.041C407.873 646.041 407.873 645.071 407.226 645.071Z" fill="white"/>
<path d="M429.392 719.125C428.502 720.257 427.612 721.308 426.722 722.44C426.317 722.925 427.045 723.653 427.45 723.167C428.34 722.035 429.23 720.984 430.12 719.852C430.524 719.286 429.796 718.64 429.392 719.125Z" fill="white"/>
<path d="M415.882 590.421C411.594 585.57 407.307 580.719 403.019 575.869C402.21 574.898 400.754 576.354 401.644 577.243C405.932 582.094 410.219 586.944 414.507 591.795C415.316 592.765 416.691 591.391 415.882 590.421Z" fill="#D24A43"/>
<path d="M435.944 566.652C435.944 565.359 433.921 565.359 433.921 566.652C434.164 575.383 434.407 584.034 434.73 592.765C434.73 594.058 436.753 594.058 436.753 592.765C436.51 584.034 436.267 575.303 435.944 566.652Z" fill="#D24A43"/>
<path d="M408.116 594.139L397.114 585.57C396.143 584.761 394.687 586.217 395.739 586.944L406.741 595.514C407.711 596.322 409.167 594.948 408.116 594.139Z" fill="#D24A43"/>
<path d="M376.486 629.468H484.32L499.932 605.215C501.308 603.032 499.771 600.203 497.182 600.203H399.783C396.952 600.203 394.283 601.658 392.746 604.002L376.486 629.468Z" fill="black"/>
<path d="M418.875 628.498C413.94 623.567 408.925 618.554 403.99 613.623C403.1 612.734 401.644 614.108 402.615 614.997C407.55 619.929 412.565 624.941 417.5 629.873C418.309 630.762 419.765 629.388 418.875 628.498Z" fill="#2252B2"/>
<path d="M505.919 628.498C500.984 623.567 495.969 618.554 491.034 613.623C490.144 612.734 488.688 614.108 489.659 614.997C494.593 619.929 499.609 624.941 504.544 629.873C505.433 630.762 506.809 629.388 505.919 628.498Z" fill="#2252B2"/>
<path d="M395.739 604.326C393.797 607.56 391.856 610.793 389.914 614.027C389.591 614.593 390.481 615.078 390.804 614.512L396.629 604.811C396.952 604.245 396.062 603.76 395.739 604.326Z" fill="white"/>
<path d="M498.234 286.931L469.678 489.689C466.927 508.929 464.258 528.251 461.507 547.492C461.346 548.705 463.206 549.271 463.449 548.058C472.995 480.472 482.459 412.886 492.005 345.301C494.756 326.06 497.425 306.738 500.176 287.497C500.337 286.203 498.477 285.638 498.234 286.931Z" fill="#BCD7FD"/>
<path d="M466.199 548.705C466.361 550.888 464.419 552.666 462.235 552.666C460.051 552.666 458.271 550.888 458.271 548.705C458.271 546.522 460.051 544.744 462.235 544.744C464.5 544.824 466.037 546.118 466.199 548.705Z" fill="#BCD7FD"/>
<path d="M747.959 434.957C748.121 437.14 746.179 438.918 743.995 438.918C741.811 438.918 740.031 437.14 740.031 434.957C740.031 432.774 741.811 430.996 743.995 430.996C746.179 430.996 747.716 432.37 747.959 434.957Z" fill="#BCD7FD"/>
<path d="M744.885 434.553C723.771 400.679 702.657 366.724 681.463 332.851C680.815 331.8 679.036 332.77 679.764 333.821C700.877 367.695 721.991 401.649 743.186 435.523C743.833 436.655 745.532 435.685 744.885 434.553Z" fill="#BCD7FD"/>
<path d="M582.608 505.938C582.77 508.121 580.828 509.9 578.644 509.9C576.46 509.9 574.68 508.121 574.68 505.938C574.68 503.756 576.46 501.977 578.644 501.977C580.828 501.977 582.365 503.351 582.608 505.938Z" fill="#BCD7FD"/>
<path d="M579.857 505.211C571.525 465.516 563.193 425.822 554.861 386.127C554.618 384.914 552.676 385.399 552.919 386.693C561.251 426.388 569.584 466.082 577.916 505.777C578.159 506.989 580.1 506.423 579.857 505.211Z" fill="#BCD7FD"/>
<path d="M548.793 599.233H524.444V629.468H548.793V599.233Z" fill="#FECA55"/>
<path d="M528.569 622.354C523.878 626.315 518.053 622.112 517.163 616.937C516.273 612.006 520.399 604.164 526.143 608.368C527.194 609.096 528.165 607.398 527.113 606.67C520.075 601.577 514.008 610.713 515.141 617.261C516.354 624.133 524.039 628.741 529.945 623.809C530.915 622.92 529.54 621.546 528.569 622.354Z" fill="#FECA55"/>
<path d="M533.828 587.268C534.798 586.378 533.342 585.004 532.453 585.893C529.217 588.885 529.136 594.139 532.21 597.292C533.1 598.182 534.475 596.807 533.585 595.918C531.239 593.493 531.32 589.531 533.828 587.268Z" fill="#BCD7FD"/>
<path d="M538.358 587.672C539.329 586.783 537.873 585.408 536.983 586.297C533.747 589.289 533.666 594.544 536.74 597.697C537.63 598.586 539.005 597.211 538.115 596.322C535.769 593.816 535.931 589.935 538.358 587.672Z" fill="#BCD7FD"/>
<path d="M790.672 362.601C767.05 362.601 747.878 343.441 747.878 319.835C747.878 296.228 767.05 277.068 790.672 277.068C815.507 277.068 831.12 292.59 833.466 319.754C834.355 330.102 830.796 340.207 823.435 348.292C815.183 357.266 802.887 362.601 790.672 362.601ZM790.672 279.089C768.183 279.089 749.819 297.36 749.819 319.916C749.819 342.39 768.102 360.742 790.672 360.742C802.402 360.742 814.051 355.649 821.978 347.079C829.016 339.48 832.333 329.859 831.524 320.077C829.178 293.965 814.293 279.089 790.672 279.089Z" fill="#697CCC"/>
<path d="M791.076 294.369C791.076 293.075 789.054 293.075 789.054 294.369L789.62 317.894C789.62 319.188 791.643 319.188 791.643 317.894L791.076 294.369Z" fill="#697CCC"/>
<path d="M808.792 321.209H792.937C791.642 321.209 791.642 323.23 792.937 323.23H808.792C810.087 323.149 810.087 321.209 808.792 321.209Z" fill="#697CCC"/>
<path d="M668.762 186.199C658.892 185.957 647.971 179.812 639.397 177.064C629.446 173.911 616.746 174.234 610.598 184.016C609.95 185.067 611.649 186.118 612.296 184.986C621.68 169.949 641.419 180.136 653.553 184.744C663.746 188.624 676.77 190.322 684.698 181.187C685.507 180.217 684.132 178.842 683.323 179.812C679.197 184.744 674.101 186.361 668.762 186.199Z" fill="#DEE7FF"/>
<path d="M668.762 174.962C658.892 174.719 647.971 168.575 639.397 165.826C629.446 162.673 616.746 162.997 610.598 172.779C609.95 173.83 611.649 174.881 612.296 173.749C621.68 158.712 641.419 168.898 653.553 173.507C663.746 177.387 676.77 179.085 684.698 169.949C685.507 168.979 684.132 167.605 683.323 168.575C679.197 173.507 674.101 175.123 668.762 174.962Z" fill="#DEE7FF"/>
<path d="M775.544 177.872C767.616 186.28 759.689 194.769 751.761 203.176C750.871 204.147 752.327 205.521 753.136 204.551C761.064 196.143 768.992 187.654 776.919 179.247C777.809 178.357 776.353 176.902 775.544 177.872Z" fill="#DEE7FF"/>
<path d="M778.375 189.675C772.389 196.143 766.484 202.611 760.498 208.997C759.608 209.967 761.064 211.342 761.873 210.372C767.859 203.904 773.764 197.437 779.751 191.05C780.641 190.161 779.265 188.786 778.375 189.675Z" fill="#DEE7FF"/>
<path d="M395.496 362.035C392.179 366.32 388.863 370.605 385.546 374.971C384.737 376.022 386.517 376.992 387.245 375.941C390.561 371.656 393.878 367.371 397.195 363.006C397.923 362.035 396.224 360.984 395.496 362.035Z" fill="#DEE7FF"/>
<path d="M287.824 482.817C281.595 476.107 275.366 469.477 269.218 462.767C268.328 461.797 266.953 463.252 267.843 464.142C274.072 470.852 280.301 477.481 286.449 484.191C287.339 485.161 288.714 483.787 287.824 482.817Z" fill="#DEE7FF"/>
<path d="M281.029 495.994C275.366 488.395 269.784 480.796 264.121 473.196C263.393 472.145 261.614 473.196 262.423 474.166L279.33 496.965C280.058 498.015 281.757 497.045 281.029 495.994Z" fill="#DEE7FF"/>
<path d="M502.521 563.419C500.175 568.673 497.829 574.009 495.483 579.264C494.998 580.396 496.697 581.447 497.182 580.234C499.528 574.979 501.874 569.644 504.22 564.389C504.705 563.257 503.007 562.206 502.521 563.419Z" fill="#DEE7FF"/>
<path d="M240.824 791.885C240.581 790.672 238.639 791.157 238.882 792.45C241.794 805.951 217.687 799.322 210.973 803.203C206.362 805.871 204.501 812.338 208.708 816.138C209.679 817.027 211.054 815.572 210.083 814.763C206.766 811.691 208.546 807.002 211.944 804.9C214.452 803.364 217.526 803.284 220.357 803.284C224.483 803.284 228.608 804.092 232.653 803.122C237.992 801.828 242.037 797.382 240.824 791.885Z" fill="#DEE7FF"/>
<path d="M245.839 799.807C245.596 798.595 243.655 799.08 243.898 800.373C246.81 813.874 222.703 807.245 215.988 811.125C211.377 813.793 209.517 820.261 213.723 824.06C214.694 824.95 216.069 823.495 215.099 822.686C211.782 819.614 213.562 814.925 216.959 812.823C219.467 811.287 222.541 811.206 225.372 811.206C229.498 811.206 233.624 812.015 237.669 811.045C243.008 809.751 246.972 805.305 245.839 799.807Z" fill="#DEE7FF"/>
<path d="M364.028 839.34C359.497 834.651 354.886 829.962 350.356 825.273C349.466 824.384 348.091 825.758 348.981 826.648C353.511 831.337 358.122 836.026 362.652 840.714C363.542 841.685 364.917 840.31 364.028 839.34Z" fill="#DEE7FF"/>
<path d="M370.176 835.217C367.506 832.872 364.917 830.609 362.248 828.264C361.277 827.456 359.902 828.83 360.873 829.639C363.542 831.983 366.131 834.247 368.8 836.591C369.771 837.481 371.146 836.025 370.176 835.217Z" fill="#DEE7FF"/>
<path d="M553.324 713.304L546.367 725.188C545.719 726.32 547.418 727.29 548.065 726.158C550.411 722.197 552.676 718.235 555.022 714.274C555.67 713.223 553.971 712.172 553.324 713.304Z" fill="#DEE7FF"/>
<path d="M766.726 823.414C765.108 827.052 763.41 830.69 761.792 834.328C761.306 835.46 763.005 836.51 763.49 835.298C765.108 831.66 766.807 828.022 768.425 824.384C768.991 823.252 767.293 822.282 766.726 823.414Z" fill="#DEE7FF"/>
<path d="M935.232 824.384C929.246 828.669 923.26 832.953 917.273 837.238C916.222 837.966 917.273 839.663 918.244 838.936C924.23 834.651 930.217 830.366 936.203 826.082C937.255 825.354 936.284 823.656 935.232 824.384Z" fill="#DEE7FF"/>
<path d="M940.976 835.055C934.989 838.047 929.084 841.038 923.098 843.948C921.965 844.514 922.936 846.212 924.069 845.646C930.055 842.655 935.96 839.664 941.946 836.753C943.16 836.187 942.189 834.49 940.976 835.055Z" fill="#DEE7FF"/>
<path d="M1007.31 513.942L998.573 529.949C997.926 531.081 999.706 532.051 1000.27 530.919C1003.18 525.583 1006.1 520.248 1009.01 514.912C1009.66 513.78 1007.96 512.81 1007.31 513.942Z" fill="#DEE7FF"/>
<path d="M210.892 290.003C210.73 288.71 208.789 288.71 208.87 290.003C209.84 298.734 195.522 291.378 191.801 291.539C189.05 291.701 186.704 292.833 185.572 295.42C185.086 296.552 186.785 297.603 187.27 296.39C190.425 289.195 199.971 297.279 205.148 296.471C208.546 295.986 211.296 293.56 210.892 290.003Z" fill="#DEE7FF"/>
<path d="M210.407 299.462C210.245 298.168 208.303 298.168 208.384 299.462C209.355 308.193 195.036 300.836 191.315 300.998C188.565 301.16 186.219 302.292 185.086 304.879C184.601 306.01 186.3 307.061 186.785 305.849C189.94 298.654 199.486 306.738 204.663 305.929C207.98 305.444 210.811 302.938 210.407 299.462Z" fill="#DEE7FF"/>
<path d="M938.064 329.94C932.401 332.608 926.819 335.195 921.156 337.863C920.024 338.429 920.995 340.127 922.127 339.561C927.79 336.893 933.372 334.306 939.034 331.638C940.167 331.072 939.196 329.374 938.064 329.94Z" fill="#DEE7FF"/>
<path d="M882.893 303.989C882.812 303.989 882.731 303.989 882.731 303.989L851.91 298.007C851.586 297.926 851.262 297.683 851.181 297.36C851.101 297.037 851.181 296.632 851.424 296.39C851.829 295.905 861.455 285.395 864.529 283.293C864.934 283.051 865.5 283.051 865.824 283.455L883.701 302.292C884.025 302.615 884.025 303.1 883.863 303.423C883.621 303.747 883.297 303.989 882.893 303.989ZM854.094 296.39L880.061 301.402L864.934 285.395C862.264 287.578 856.521 293.722 854.094 296.39Z" fill="#DEE7FF"/>
<path d="M1023.97 801.182C1023.81 801.182 1023.65 801.182 1023.57 801.101L956.993 769.329C956.669 769.167 956.508 768.925 956.427 768.521C956.346 768.197 956.508 767.874 956.75 767.631C958.773 765.934 1006.5 725.916 1009.49 723.894C1009.74 723.733 1010.14 723.652 1010.47 723.814C1010.79 723.975 1011.03 724.218 1011.03 724.541L1024.95 799.969C1025.03 800.373 1024.86 800.697 1024.54 800.939C1024.38 801.101 1024.14 801.182 1023.97 801.182ZM959.258 768.197L1022.68 798.433L1009.41 726.481C1002.94 731.656 975.114 754.858 959.258 768.197Z" fill="#DEE7FF"/>
<path d="M216.231 565.278C216.069 565.278 215.908 565.197 215.746 565.116C215.503 564.955 215.26 564.631 215.26 564.308C215.099 562.368 211.62 517.014 212.267 509.091C212.267 508.768 212.51 508.444 212.753 508.283C213.076 508.121 213.4 508.121 213.642 508.283L272.373 537.548C272.696 537.71 272.939 538.033 272.939 538.438C272.939 538.842 272.696 539.165 272.373 539.327L216.636 565.116C216.474 565.278 216.393 565.278 216.231 565.278ZM214.128 510.87C213.885 520.652 216.474 555.334 217.04 562.853L269.622 538.519L214.128 510.87Z" fill="#DEE7FF"/>
<path d="M297.774 234.301C297.531 234.301 297.37 234.221 297.127 234.059C296.803 233.816 296.722 233.493 296.803 233.089C296.803 232.846 300.767 212.554 301.01 209.644C301.01 209.24 301.253 208.916 301.576 208.836C301.9 208.674 302.304 208.755 302.628 208.997L319.535 222.902C319.778 223.145 319.939 223.468 319.859 223.792C319.778 224.115 319.616 224.438 319.292 224.6L298.179 234.301C298.017 234.221 297.936 234.301 297.774 234.301ZM302.709 211.584C301.981 216.273 299.958 227.106 299.068 231.553L316.946 223.307L302.709 211.584Z" fill="#DEE7FF"/>
<path d="M285.316 363.167C282.647 355.245 279.977 347.322 277.388 339.318C276.984 338.106 275.042 338.591 275.447 339.884C278.116 347.807 280.786 355.73 283.375 363.733C283.779 364.946 285.721 364.38 285.316 363.167Z" fill="#DEE7FF"/>
<path d="M1035.3 413.048C1035.06 411.836 1033.12 412.321 1033.36 413.614C1034.65 419.92 1028.42 423.073 1023.17 423.073C1019.44 423.073 1015.89 421.941 1012.33 421.052C1007.88 420.001 1003.43 419.597 998.978 421.133C991.293 423.881 986.035 430.915 985.307 438.918C985.226 440.212 987.167 440.212 987.329 438.918C987.895 432.37 991.94 426.549 997.926 423.72C1005.21 420.243 1012.08 423.558 1019.44 424.609C1027.05 425.822 1037.32 422.507 1035.3 413.048Z" fill="#DEE7FF"/>
<path d="M1038.94 428.974C1038.7 427.762 1036.76 428.247 1037 429.54C1038.29 435.846 1032.06 438.999 1026.81 438.999C1023.08 438.999 1019.53 437.867 1015.97 436.978C1011.52 435.927 1007.07 435.523 1002.62 437.059C994.933 439.808 989.675 446.841 988.947 454.845C988.866 456.138 990.808 456.138 990.969 454.845C991.536 448.296 995.58 442.476 1001.57 439.646C1008.85 436.17 1015.72 439.484 1023.08 440.535C1030.61 441.748 1040.88 438.433 1038.94 428.974Z" fill="#DEE7FF"/>
<path d="M1022.03 194.93C1018.15 199.296 1014.27 203.662 1010.38 208.027C1009.58 208.997 1010.95 210.372 1011.76 209.401C1015.64 205.036 1019.53 200.67 1023.41 196.305C1024.3 195.335 1022.92 193.96 1022.03 194.93Z" fill="#DEE7FF"/>
<path d="M1024.22 206.006L1018.23 211.988C1017.34 212.878 1018.72 214.333 1019.61 213.363L1025.59 207.38C1026.56 206.491 1025.11 205.117 1024.22 206.006Z" fill="#DEE7FF"/>
<path d="M645.868 298.007H507.537V405.853H645.868V298.007Z" fill="#BCD7FD"/>
<path d="M562.141 369.554H525.415V384.348H562.141V369.554Z" fill="white"/>
<path d="M608.818 385.319H570.069V368.584H608.818V385.319ZM572.091 383.297H606.877V370.524H572.091V383.297Z" fill="#003865"/>
<path d="M600.405 377.396L602.913 394.292L616.26 385.319L600.405 377.396Z" fill="white"/>
<path d="M613.834 394.535C611.73 391.705 609.627 388.876 607.443 386.046C606.715 385.076 604.935 386.046 605.744 387.016C607.847 389.846 609.951 392.675 612.135 395.505C612.863 396.556 614.562 395.586 613.834 394.535Z" fill="white"/>
<path d="M620.71 322.826H525.415V329.779H620.71V322.826Z" fill="#D24A43"/>
<path d="M609.789 338.671H526.385C525.091 338.671 525.091 340.693 526.385 340.693H609.789C611.083 340.693 611.083 338.671 609.789 338.671Z" fill="#003865"/>
<path d="M609.789 349.1H526.385C525.091 349.1 525.091 351.121 526.385 351.121H609.789C611.083 351.121 611.083 349.1 609.789 349.1Z" fill="#003865"/>
<path d="M637.779 312.72C635.109 310.053 632.44 307.466 629.851 304.798C628.961 303.908 627.505 305.283 628.476 306.172C631.145 308.84 633.815 311.427 636.403 314.095C637.293 315.065 638.669 313.61 637.779 312.72Z" fill="black"/>
<path d="M629.851 314.176C632.521 311.508 635.109 308.84 637.779 306.253C638.669 305.364 637.293 303.908 636.404 304.879C633.734 307.546 631.145 310.214 628.476 312.801C627.586 313.691 628.961 315.065 629.851 314.176Z" fill="black"/>
<path d="M522.179 402.7C522.664 408.683 517.325 413.533 511.339 413.533C505.352 413.533 500.499 408.683 500.499 402.7C500.499 396.718 505.352 391.867 511.339 391.867C517.325 391.867 521.532 395.505 522.179 402.7Z" fill="#697CCC"/>
<path d="M620.71 309.567C620.952 312.235 618.525 314.499 615.775 314.499C613.024 314.499 610.84 312.316 610.84 309.567C610.84 306.9 613.024 304.636 615.775 304.636C618.525 304.636 620.386 306.334 620.71 309.567Z" fill="#D24A43"/>
<path d="M510.368 398.254V407.147C510.368 408.44 512.39 408.44 512.39 407.147V398.254C512.31 396.96 510.368 396.96 510.368 398.254Z" fill="#DEE7FF"/>
<path d="M721.748 881.864H280.139C278.844 881.864 278.844 883.885 280.139 883.885H721.748C722.962 883.885 722.962 881.864 721.748 881.864Z" fill="#697CCC"/>
<path d="M1044.12 881.864H735.582C734.287 881.864 734.287 883.885 735.582 883.885H1044.12C1045.41 883.885 1045.41 881.864 1044.12 881.864Z" fill="#697CCC"/>
<path d="M904.089 629H291.756C291.433 629 290.867 632.356 291.028 633.999C291.109 633.999 291.19 633.999 291.271 633.999H904.089C907.97 634.068 907.97 629 904.089 629Z" fill="#D24A43"/>
</svg>
