<svg width="auto" height="auto" viewBox="0 0 1230 1008" fill="none" xmlns="http://www.w3.org/2000/svg">
<path d="M619.414 599.474H167.104C162.664 599.474 162.664 606.417 167.104 606.417H619.495C623.854 606.417 623.935 599.474 619.414 599.474Z" fill="#FECA55"/>
<path d="M598.748 604.318V777.799C598.748 782.239 605.69 782.239 605.69 777.799V604.318H598.748Z" fill="#FECA55"/>
<path d="M188.254 604.318V777.799C188.254 782.239 195.197 782.239 195.197 777.799V604.318H188.254Z" fill="#FECA55"/>
<path d="M598.748 442.704V598.344C598.748 602.784 605.69 602.784 605.69 598.344V442.704C605.69 438.183 598.748 438.183 598.748 442.704Z" fill="#FECA55"/>
<path d="M208.113 442.704V598.344C208.113 602.784 215.055 602.784 215.055 598.344V442.704C215.055 438.183 208.113 438.183 208.113 442.704Z" fill="#FECA55"/>
<path d="M622.078 413.4V506.558C622.078 510.11 619.172 513.016 615.62 513.016H199.233C195.681 513.016 192.775 510.11 192.775 506.558V413.4C192.775 409.848 195.681 406.942 199.233 406.942H615.62C619.172 406.942 622.078 409.848 622.078 413.4Z" fill="#FECA55"/>
<path d="M622.078 477.9H192.775V479.918H622.078V477.9Z" fill="white"/>
<path d="M622.078 440.201H192.775V442.219H622.078V440.201Z" fill="white"/>
<path d="M332.512 523.995C329.606 523.995 326.619 523.995 323.713 523.914C323.148 523.914 322.744 523.43 322.744 522.865C322.744 522.3 323.229 521.896 323.794 521.896C327.75 521.977 331.705 521.977 335.661 521.977C336.226 521.977 336.629 522.381 336.629 522.946C336.629 523.511 336.226 523.914 335.661 523.914C334.611 523.995 333.562 523.995 332.512 523.995ZM347.527 523.591C346.962 523.591 346.559 523.188 346.559 522.623C346.559 522.058 346.962 521.573 347.527 521.573C351.483 521.412 355.439 521.089 359.314 520.766C359.879 520.685 360.363 521.089 360.363 521.654C360.444 522.219 360.04 522.703 359.475 522.703C355.519 523.107 351.564 523.43 347.527 523.591C347.608 523.591 347.527 523.591 347.527 523.591ZM311.927 523.511C307.891 523.349 303.935 523.026 299.98 522.703C299.415 522.623 299.011 522.219 299.092 521.654C299.172 521.089 299.576 520.685 300.141 520.766C304.016 521.089 307.972 521.331 311.927 521.493C312.492 521.493 312.896 521.977 312.896 522.542C312.896 523.026 312.412 523.511 311.927 523.511ZM288.274 521.573H288.194C284.238 521.089 280.282 520.605 276.408 520.04C275.842 519.959 275.52 519.474 275.6 518.909C275.681 518.344 276.165 518.021 276.73 518.102C280.605 518.667 284.561 519.152 288.436 519.636C289.001 519.717 289.404 520.201 289.324 520.766C289.162 521.17 288.759 521.573 288.274 521.573ZM371.18 521.493C370.696 521.493 370.292 521.089 370.212 520.605C370.131 520.04 370.535 519.555 371.1 519.474C374.974 518.99 378.93 518.425 382.805 517.698C383.37 517.618 383.854 517.941 383.935 518.506C384.016 519.071 383.693 519.555 383.128 519.636C379.253 520.282 375.217 520.847 371.342 521.412C371.261 521.493 371.261 521.493 371.18 521.493ZM264.783 518.102C264.702 518.102 264.702 518.102 264.621 518.102C260.747 517.376 256.791 516.568 252.916 515.761C252.351 515.68 252.028 515.115 252.19 514.55C252.27 513.985 252.835 513.662 253.4 513.824C257.195 514.631 261.15 515.438 265.025 516.165C265.59 516.245 265.913 516.81 265.832 517.295C265.671 517.779 265.267 518.102 264.783 518.102ZM394.591 517.537C394.107 517.537 393.703 517.214 393.622 516.73C393.542 516.165 393.864 515.68 394.43 515.519C398.224 514.712 402.179 513.824 405.973 512.855C406.539 512.693 407.023 513.016 407.184 513.581C407.346 514.146 407.023 514.631 406.458 514.792C402.583 515.761 398.708 516.649 394.833 517.456C394.752 517.537 394.672 517.537 394.591 517.537ZM241.614 513.016C241.534 513.016 241.453 513.016 241.372 513.016C237.497 511.967 233.623 510.917 229.909 509.787C229.425 509.626 229.102 509.061 229.263 508.576C229.425 508.092 229.99 507.769 230.474 507.931C234.188 509.061 237.982 510.11 241.857 511.16C242.422 511.321 242.664 511.805 242.583 512.371C242.422 512.693 242.018 513.016 241.614 513.016ZM417.679 511.805C417.275 511.805 416.871 511.563 416.71 511.079C416.549 510.514 416.871 510.029 417.356 509.868C421.15 508.738 424.944 507.608 428.658 506.316C429.142 506.155 429.707 506.397 429.949 506.962C430.111 507.446 429.868 508.011 429.303 508.253C425.509 509.545 421.715 510.675 417.921 511.805C417.84 511.805 417.759 511.805 417.679 511.805ZM218.85 506.074C218.769 506.074 218.607 506.074 218.527 505.993C214.733 504.701 211.019 503.248 207.386 501.795C206.902 501.553 206.66 500.988 206.821 500.504C207.064 500.019 207.629 499.777 208.113 499.939C211.746 501.392 215.459 502.845 219.173 504.136C219.657 504.298 219.98 504.863 219.738 505.428C219.657 505.832 219.253 506.074 218.85 506.074ZM440.201 504.298C439.798 504.298 439.394 504.056 439.313 503.652C439.152 503.168 439.394 502.603 439.879 502.36C443.592 500.988 447.225 499.454 450.857 497.92C451.342 497.678 451.907 497.92 452.149 498.486C452.391 498.97 452.149 499.535 451.584 499.777C447.951 501.311 444.238 502.845 440.524 504.217C440.444 504.298 440.282 504.298 440.201 504.298ZM196.892 497.194C196.731 497.194 196.65 497.194 196.488 497.113C192.856 495.418 189.304 493.642 185.832 491.866C185.348 491.624 185.187 490.978 185.429 490.494C185.671 490.009 186.317 489.848 186.801 490.09C190.272 491.866 193.824 493.642 197.376 495.337C197.861 495.579 198.103 496.145 197.861 496.629C197.619 496.952 197.296 497.194 196.892 497.194ZM461.998 495.014C461.594 495.014 461.271 494.772 461.11 494.449C460.867 493.965 461.11 493.4 461.594 493.158C465.146 491.462 468.698 489.686 472.169 487.91C472.653 487.668 473.219 487.83 473.541 488.314C473.784 488.798 473.622 489.363 473.138 489.686C469.667 491.543 466.034 493.319 462.482 495.014C462.32 495.014 462.159 495.014 461.998 495.014ZM175.903 486.134C175.742 486.134 175.58 486.054 175.419 485.973C171.948 483.955 168.557 481.775 165.328 479.596C164.844 479.273 164.763 478.708 165.086 478.223C165.409 477.739 165.974 477.658 166.458 477.981C169.687 480.161 173.078 482.26 176.468 484.278C176.953 484.52 177.114 485.166 176.791 485.65C176.549 485.973 176.226 486.134 175.903 486.134ZM483.067 484.036C482.744 484.036 482.421 483.874 482.179 483.551C481.937 483.067 482.098 482.502 482.583 482.179C485.973 480.241 489.364 478.143 492.674 476.044C493.158 475.721 493.723 475.882 494.046 476.367C494.369 476.851 494.207 477.416 493.723 477.739C490.413 479.838 486.942 481.937 483.552 483.874C483.39 483.955 483.229 484.036 483.067 484.036ZM156.206 472.815C155.964 472.815 155.802 472.734 155.641 472.572C152.492 470.151 149.344 467.648 146.357 465.065C145.954 464.742 145.873 464.096 146.277 463.693C146.599 463.289 147.245 463.208 147.649 463.612C150.636 466.114 153.703 468.617 156.852 471.039C157.255 471.361 157.336 472.007 157.013 472.411C156.771 472.734 156.448 472.815 156.206 472.815ZM503.087 471.362C502.764 471.362 502.442 471.2 502.28 470.958C501.957 470.474 502.119 469.908 502.522 469.586C505.751 467.325 508.98 464.984 512.048 462.643C512.452 462.32 513.097 462.401 513.42 462.804C513.743 463.208 513.662 463.854 513.259 464.177C510.111 466.599 506.881 468.94 503.652 471.2C503.491 471.281 503.33 471.362 503.087 471.362ZM138.204 457.396C137.962 457.396 137.72 457.315 137.477 457.154C134.652 454.409 131.827 451.503 129.163 448.597C128.759 448.193 128.84 447.547 129.243 447.224C129.647 446.821 130.293 446.901 130.616 447.305C133.28 450.211 136.024 453.037 138.85 455.781C139.253 456.185 139.253 456.75 138.85 457.154C138.769 457.315 138.446 457.396 138.204 457.396ZM521.977 456.911C521.654 456.911 521.412 456.75 521.251 456.589C520.928 456.185 520.928 455.539 521.412 455.216C524.399 452.714 527.467 450.05 530.292 447.466C530.696 447.063 531.341 447.144 531.664 447.547C532.068 447.951 531.987 448.597 531.584 448.92C528.678 451.584 525.61 454.247 522.623 456.75C522.462 456.911 522.219 456.911 521.977 456.911ZM539.495 440.928C539.253 440.928 539.011 440.847 538.768 440.605C538.365 440.201 538.365 439.555 538.768 439.232C541.513 436.488 544.338 433.582 546.922 430.675C547.325 430.272 547.891 430.272 548.294 430.595C548.698 430.998 548.698 431.563 548.375 431.967C545.711 434.873 542.966 437.779 540.141 440.605C540.06 440.847 539.818 440.928 539.495 440.928ZM122.301 439.878C121.978 439.878 121.736 439.717 121.494 439.475C118.991 436.407 116.65 433.178 114.309 429.949C113.986 429.464 114.067 428.899 114.551 428.577C115.035 428.254 115.601 428.334 115.923 428.819C118.184 432.048 120.525 435.196 123.027 438.264C123.35 438.667 123.27 439.313 122.866 439.636C122.704 439.797 122.543 439.878 122.301 439.878ZM555.56 423.41C555.317 423.41 555.075 423.329 554.914 423.168C554.51 422.845 554.429 422.199 554.752 421.795C557.255 418.809 559.757 415.66 562.098 412.512C562.421 412.108 563.067 411.947 563.471 412.35C563.874 412.673 564.036 413.319 563.632 413.723C561.21 416.871 558.789 420.019 556.205 423.087C556.125 423.249 555.802 423.41 555.56 423.41ZM108.658 420.423C108.335 420.423 108.012 420.262 107.851 419.939C105.833 416.548 103.814 413.077 101.958 409.606C101.716 409.121 101.877 408.556 102.361 408.233C102.846 407.991 103.411 408.153 103.734 408.637C105.59 412.108 107.528 415.58 109.627 418.889C109.95 419.374 109.788 419.939 109.304 420.262C109.062 420.423 108.819 420.423 108.658 420.423ZM569.848 404.359C569.687 404.359 569.444 404.278 569.283 404.197C568.799 403.874 568.718 403.309 569.041 402.825C571.22 399.596 573.4 396.205 575.418 392.895C575.741 392.411 576.306 392.25 576.79 392.573C577.275 392.895 577.436 393.461 577.113 393.945C575.015 397.335 572.916 400.726 570.655 403.955C570.494 404.197 570.171 404.359 569.848 404.359ZM97.5178 399.515C97.1142 399.515 96.7913 399.273 96.6298 398.95C95.0153 395.398 93.4007 391.685 91.9477 387.971C91.7862 387.487 92.0284 386.922 92.5128 386.679C92.9971 386.518 93.5622 386.76 93.8044 387.245C95.2575 390.958 96.7912 394.591 98.4058 398.143C98.648 398.627 98.4058 399.192 97.9214 399.434C97.8407 399.515 97.6792 399.515 97.5178 399.515ZM582.199 384.177C582.038 384.177 581.876 384.177 581.715 384.016C581.23 383.773 581.069 383.128 581.311 382.643C583.168 379.172 585.025 375.701 586.72 372.149C586.962 371.664 587.527 371.422 588.011 371.664C588.496 371.907 588.738 372.472 588.496 372.956C586.801 376.508 584.944 380.06 583.007 383.531C582.926 383.935 582.603 384.177 582.199 384.177ZM88.8801 377.477C88.4764 377.477 88.0728 377.235 87.9113 376.831C86.7004 373.117 85.4896 369.243 84.4401 365.448C84.2787 364.883 84.6016 364.399 85.1667 364.238C85.7317 364.076 86.2161 364.399 86.3775 364.964C87.427 368.758 88.5572 372.552 89.7681 376.266C89.9295 376.75 89.6873 377.315 89.1222 377.557C89.0415 377.477 88.9608 377.477 88.8801 377.477ZM592.613 362.784C592.451 362.784 592.371 362.784 592.209 362.704C591.725 362.462 591.483 361.896 591.725 361.412C593.259 357.779 594.712 354.147 596.084 350.433C596.246 349.949 596.811 349.626 597.376 349.868C597.86 350.03 598.183 350.595 597.941 351.16C596.569 354.873 595.115 358.587 593.501 362.219C593.339 362.542 592.936 362.784 592.613 362.784ZM82.5834 354.631C82.099 354.631 81.6954 354.308 81.6147 353.824C80.7267 350.03 80.0002 346.074 79.2736 342.119C79.1929 341.553 79.5158 341.069 80.0809 340.988C80.646 340.908 81.1303 341.231 81.2111 341.796C81.8569 345.67 82.6641 349.626 83.4714 353.42C83.5521 353.985 83.2292 354.47 82.7449 354.631C82.7449 354.631 82.6641 354.631 82.5834 354.631ZM600.847 340.585C600.766 340.585 600.686 340.585 600.524 340.504C600.04 340.343 599.717 339.777 599.878 339.293C601.089 335.58 602.139 331.786 603.188 327.911C603.35 327.346 603.834 327.103 604.399 327.184C604.964 327.346 605.206 327.83 605.125 328.395C604.076 332.189 602.946 336.064 601.816 339.858C601.654 340.262 601.251 340.585 600.847 340.585ZM606.901 317.658C606.821 317.658 606.74 317.658 606.659 317.658C606.094 317.578 605.771 317.013 605.933 316.448C606.74 312.653 607.547 308.698 608.193 304.823C608.274 304.258 608.839 303.935 609.323 304.016C609.888 304.096 610.211 304.581 610.131 305.146C609.485 309.021 608.677 312.976 607.87 316.851C607.789 317.336 607.386 317.658 606.901 317.658ZM76.3675 307.648C75.8831 307.648 75.3987 307.245 75.3987 306.68C75.1566 302.805 75.0758 298.768 74.9951 294.813C74.9951 294.248 75.3988 293.844 75.9638 293.844C76.5289 293.844 76.9326 294.248 76.9326 294.813C77.0133 298.768 77.094 302.724 77.3362 306.68C77.3362 307.164 76.9326 307.568 76.3675 307.648ZM610.938 294.248C610.857 294.248 610.857 294.248 610.776 294.248C610.211 294.167 609.808 293.683 609.888 293.118C610.373 289.243 610.776 285.287 611.099 281.332C611.18 280.766 611.584 280.363 612.149 280.444C612.714 280.524 613.117 280.928 613.037 281.493C612.714 285.449 612.31 289.404 611.826 293.36C611.826 293.844 611.422 294.248 610.938 294.248ZM75.9638 283.915C75.3988 283.915 74.9951 283.43 74.9951 282.946C75.0758 279.233 75.1566 275.439 75.318 271.644V271.079C75.318 270.514 75.8024 270.111 76.3675 270.111C76.9326 270.111 77.3362 270.595 77.3362 271.16V271.725C77.1747 275.439 77.0133 279.233 77.0133 282.946C76.9326 283.43 76.5289 283.915 75.9638 283.915ZM77.2555 260.181H77.1747C76.6097 260.1 76.206 259.616 76.2867 259.132C76.6904 255.176 77.1747 251.221 77.8205 247.346C77.9013 246.781 78.3856 246.458 78.9507 246.538C79.5158 246.619 79.8387 247.104 79.758 247.669C79.1122 251.543 78.6278 255.499 78.2242 259.374C78.1434 259.778 77.7398 260.181 77.2555 260.181ZM612.794 246.377C612.229 246.377 611.826 245.973 611.826 245.408C611.664 241.453 611.341 237.497 611.018 233.622C610.938 233.057 611.341 232.573 611.906 232.573C612.472 232.492 612.956 232.896 612.956 233.461C613.36 237.416 613.602 241.372 613.844 245.328C613.844 245.893 613.44 246.377 612.794 246.377C612.875 246.377 612.794 246.377 612.794 246.377ZM80.9689 236.771C80.8882 236.771 80.8074 236.771 80.7267 236.771C80.1616 236.69 79.8387 236.125 80.0002 235.56C80.8074 231.685 81.7761 227.81 82.7449 224.016C82.9063 223.451 83.3907 223.209 83.9558 223.289C84.5208 223.451 84.763 223.935 84.6823 224.5C83.7136 228.294 82.7449 232.169 81.9376 235.963C81.7761 236.448 81.3725 236.771 80.9689 236.771ZM610.534 222.805C610.05 222.805 609.646 222.482 609.565 221.917C609 218.042 608.355 214.086 607.628 210.292C607.547 209.727 607.87 209.243 608.435 209.162C609 209.081 609.485 209.404 609.565 209.969C610.292 213.844 610.938 217.8 611.503 221.755C611.584 222.321 611.18 222.805 610.696 222.886C610.615 222.805 610.615 222.805 610.534 222.805ZM87.0234 213.844C86.9426 213.844 86.8619 213.844 86.7004 213.764C86.2161 213.602 85.8932 213.037 86.0546 212.553C87.2655 208.839 88.5572 205.045 89.9295 201.332C90.091 200.847 90.656 200.524 91.2211 200.767C91.7055 200.928 92.0284 201.493 91.7862 202.058C90.4139 205.772 89.1222 209.485 87.9921 213.198C87.8306 213.602 87.427 213.844 87.0234 213.844ZM606.094 199.475C605.61 199.475 605.206 199.152 605.125 198.748C604.237 194.954 603.188 191.079 602.058 187.366C601.896 186.801 602.219 186.317 602.704 186.155C603.269 185.994 603.753 186.317 603.915 186.801C605.045 190.595 606.094 194.47 606.982 198.345C607.144 198.91 606.821 199.394 606.256 199.556C606.256 199.475 606.175 199.475 606.094 199.475ZM95.1767 191.644C95.0153 191.644 94.9345 191.644 94.7731 191.564C94.2887 191.322 94.0466 190.757 94.208 190.272C95.7418 186.639 97.3563 183.007 99.0516 179.455C99.2938 178.97 99.8588 178.728 100.343 178.97C100.828 179.213 101.07 179.778 100.828 180.262C99.1323 183.814 97.5178 187.447 95.984 190.999C95.984 191.402 95.5804 191.644 95.1767 191.644ZM599.394 176.71C598.99 176.71 598.587 176.468 598.425 176.064C597.134 172.351 595.761 168.637 594.308 165.005C594.066 164.52 594.389 163.955 594.873 163.713C595.358 163.552 595.923 163.794 596.165 164.278C597.618 167.911 598.99 171.705 600.282 175.418C600.443 175.903 600.201 176.468 599.636 176.71C599.636 176.71 599.555 176.71 599.394 176.71ZM590.595 154.672C590.191 154.672 589.868 154.43 589.707 154.107C588.092 150.555 586.316 147.003 584.54 143.451C584.298 142.966 584.459 142.401 584.944 142.078C585.428 141.836 585.993 141.998 586.316 142.482C588.092 145.953 589.868 149.586 591.483 153.219C591.725 153.703 591.483 154.268 590.998 154.51C590.918 154.672 590.756 154.672 590.595 154.672ZM117.296 149.828C117.134 149.828 116.892 149.747 116.731 149.667C116.246 149.344 116.166 148.779 116.408 148.294C118.507 144.985 120.767 141.675 123.027 138.446C123.35 137.961 123.996 137.881 124.4 138.204C124.884 138.527 124.965 139.172 124.642 139.576C122.382 142.805 120.202 146.115 118.103 149.425C117.942 149.667 117.619 149.828 117.296 149.828ZM579.777 133.602C579.455 133.602 579.132 133.441 578.889 133.118C576.952 129.727 574.853 126.337 572.754 123.027C572.431 122.543 572.593 121.978 573.077 121.655C573.561 121.332 574.126 121.493 574.449 121.978C576.548 125.287 578.647 128.759 580.585 132.149C580.827 132.633 580.665 133.199 580.181 133.521C580.1 133.602 579.939 133.602 579.777 133.602ZM130.858 130.373C130.616 130.373 130.454 130.292 130.293 130.212C129.889 129.889 129.808 129.243 130.131 128.839C132.472 125.691 134.975 122.543 137.477 119.475C137.8 119.071 138.446 118.991 138.85 119.314C139.253 119.637 139.334 120.282 139.011 120.686C136.509 123.754 134.087 126.821 131.665 129.97C131.423 130.212 131.181 130.373 130.858 130.373ZM567.023 113.663C566.7 113.663 566.377 113.501 566.215 113.259C563.955 110.03 561.614 106.882 559.192 103.814C558.869 103.411 558.95 102.765 559.354 102.442C559.757 102.119 560.403 102.2 560.726 102.603C563.148 105.752 565.57 108.9 567.83 112.129C568.153 112.613 568.072 113.178 567.588 113.501C567.426 113.582 567.265 113.663 567.023 113.663ZM145.873 111.968C145.631 111.968 145.389 111.887 145.227 111.725C144.823 111.402 144.743 110.757 145.146 110.353C147.73 107.366 150.474 104.46 153.219 101.554C153.623 101.15 154.188 101.15 154.591 101.554C154.995 101.957 154.995 102.523 154.591 102.926C151.927 105.752 149.183 108.738 146.599 111.645C146.438 111.887 146.115 111.968 145.873 111.968ZM552.411 94.9343C552.169 94.9343 551.846 94.8535 551.685 94.6113C549.101 91.6245 546.437 88.7183 543.773 85.8122C543.37 85.4085 543.45 84.7627 543.773 84.4398C544.177 84.0362 544.823 84.1169 545.146 84.4398C547.89 87.346 550.554 90.3328 553.138 93.3197C553.461 93.7234 553.461 94.3692 553.057 94.6921C552.895 94.8535 552.653 94.9343 552.411 94.9343ZM162.18 94.7728C161.937 94.7728 161.695 94.6921 161.453 94.4499C161.049 94.0463 161.049 93.4005 161.453 93.0775C164.279 90.3328 167.185 87.5881 170.091 84.9242C170.494 84.5205 171.14 84.6013 171.463 85.0049C171.786 85.4085 171.786 86.0543 171.382 86.3773C168.476 89.0412 165.57 91.7859 162.745 94.5306C162.745 94.6921 162.422 94.7728 162.18 94.7728ZM179.778 78.8697C179.536 78.8697 179.213 78.789 179.051 78.5468C178.729 78.1432 178.729 77.4974 179.132 77.1744C182.2 74.5912 185.267 72.0887 188.335 69.6669C188.739 69.344 189.384 69.4247 189.707 69.8283C190.03 70.232 189.95 70.8778 189.546 71.2007C186.478 73.6225 183.411 76.125 180.343 78.7082C180.262 78.789 180.02 78.8697 179.778 78.8697ZM536.104 77.7395C535.862 77.7395 535.62 77.6588 535.378 77.4973C532.552 74.7526 529.646 72.0887 526.659 69.5054C526.256 69.1825 526.175 68.5367 526.579 68.1331C526.902 67.7294 527.547 67.6487 527.951 68.0524C530.938 70.6356 533.925 73.3803 536.75 76.125C537.154 76.5286 537.154 77.0937 536.75 77.4973C536.669 77.5781 536.347 77.7395 536.104 77.7395ZM198.507 64.1775C198.184 64.1775 197.861 64.016 197.699 63.7739C197.376 63.3702 197.457 62.7244 197.941 62.4015C201.171 60.0604 204.4 57.8001 207.709 55.5398C208.194 55.2169 208.759 55.3783 209.082 55.7819C209.405 56.2663 209.243 56.8314 208.84 57.1543C205.61 59.3339 202.301 61.5942 199.152 63.9353C198.91 64.0968 198.668 64.1775 198.507 64.1775ZM518.264 62.0786C518.022 62.0786 517.86 61.9979 517.618 61.8364C514.55 59.4146 511.402 56.9928 508.173 54.6518C507.769 54.3289 507.608 53.6831 507.931 53.2794C508.254 52.8758 508.9 52.7143 509.303 53.0372C512.532 55.3783 515.681 57.8001 518.829 60.2219C519.233 60.5448 519.313 61.1906 518.99 61.5942C518.829 61.9172 518.587 62.0786 518.264 62.0786ZM218.204 50.8576C217.881 50.8576 217.558 50.6962 217.397 50.3733C217.074 49.8889 217.235 49.3238 217.719 49.0009C221.11 46.902 224.5 44.8839 227.972 42.8657C228.456 42.6235 229.021 42.785 229.344 43.2694C229.586 43.7537 229.425 44.3188 228.94 44.6417C225.55 46.5791 222.079 48.5973 218.769 50.6962C218.527 50.8576 218.365 50.8576 218.204 50.8576ZM499.051 48.1129C498.89 48.1129 498.647 48.0322 498.486 47.9515C495.176 45.7719 491.786 43.673 488.395 41.7355C487.911 41.4934 487.749 40.8476 488.072 40.3632C488.314 39.8788 488.96 39.7174 489.445 40.0403C492.835 42.0585 496.306 44.1573 499.616 46.3369C500.1 46.6599 500.181 47.2249 499.939 47.7093C499.697 48.0322 499.374 48.1129 499.051 48.1129ZM238.87 39.1523C238.547 39.1523 238.143 38.9909 237.982 38.5872C237.74 38.1029 237.901 37.5378 238.385 37.2149C241.937 35.3582 245.489 33.5822 249.041 31.8869C249.526 31.6447 250.091 31.8869 250.333 32.3713C250.575 32.8556 250.333 33.4207 249.849 33.6629C246.297 35.3582 242.745 37.1341 239.193 38.9101C239.193 39.0716 239.031 39.1523 238.87 39.1523ZM478.546 36.0847C478.385 36.0847 478.224 36.0847 478.062 36.004C474.591 34.1473 471.039 32.3713 467.487 30.7568C467.003 30.5146 466.76 29.9495 467.003 29.4651C467.245 28.9808 467.81 28.7386 468.294 28.9808C471.846 30.676 475.479 32.452 478.95 34.3087C479.434 34.5509 479.596 35.1967 479.354 35.6811C479.273 35.9232 478.869 36.0847 478.546 36.0847ZM260.343 28.9808C259.939 28.9808 259.616 28.7386 259.455 28.4157C259.213 27.9313 259.455 27.3662 260.02 27.1241C263.653 25.5903 267.366 24.0565 271.08 22.6841C271.564 22.5227 272.129 22.7648 272.371 23.2492C272.613 23.7336 272.29 24.2986 271.806 24.5408C268.093 25.9132 264.46 27.447 260.827 28.9808C260.666 28.9 260.504 28.9808 260.343 28.9808ZM282.623 20.5852C282.22 20.5852 281.816 20.343 281.655 19.9394C281.493 19.4551 281.735 18.89 282.301 18.6478C286.095 17.4369 289.889 16.226 293.683 15.1766C294.167 15.0151 294.732 15.338 294.894 15.8224C295.055 16.3875 294.732 16.8718 294.248 17.0333C290.454 18.0827 286.66 19.2936 282.946 20.5045C282.866 20.5852 282.704 20.5852 282.623 20.5852ZM434.551 18.0827C434.47 18.0827 434.389 18.0827 434.228 18.002C430.434 16.8718 426.639 15.8224 422.845 14.8537C422.28 14.6922 421.957 14.2078 422.119 13.6428C422.28 13.0777 422.765 12.7548 423.33 12.9162C427.124 13.8849 430.999 14.9344 434.793 16.0645C435.277 16.226 435.6 16.7911 435.439 17.2754C435.439 17.8405 435.035 18.0827 434.551 18.0827ZM305.55 14.1271C305.065 14.1271 304.662 13.8042 304.581 13.4006C304.42 12.8355 304.823 12.3511 305.308 12.1897C309.182 11.3017 313.138 10.4137 317.013 9.68716C317.578 9.60644 318.062 9.92934 318.143 10.4944C318.224 11.0595 317.901 11.5439 317.336 11.6246C313.461 12.3511 309.586 13.1584 305.711 14.0464C305.711 14.0464 305.63 14.1271 305.55 14.1271ZM411.544 12.3511C411.463 12.3511 411.382 12.3511 411.382 12.3511C407.507 11.5439 403.632 10.8981 399.758 10.333C399.192 10.2522 398.87 9.76789 398.95 9.20281C399.031 8.63772 399.515 8.31481 400.08 8.39554C403.955 8.96063 407.911 9.68716 411.786 10.4944C412.351 10.5752 412.674 11.1402 412.593 11.6246C412.432 12.0282 412.028 12.3511 411.544 12.3511ZM328.88 9.68716C328.395 9.68716 327.992 9.36426 327.911 8.79917C327.83 8.23409 328.234 7.74973 328.718 7.669C332.674 7.10392 336.629 6.70029 340.585 6.29666C341.15 6.21593 341.634 6.61956 341.634 7.18464C341.715 7.74973 341.312 8.23408 340.746 8.23408C336.872 8.55699 332.916 9.04135 328.96 9.60644C328.96 9.68716 328.96 9.68716 328.88 9.68716ZM388.133 8.71845H388.052C384.177 8.31482 380.222 7.99191 376.266 7.74973C375.701 7.74973 375.297 7.26537 375.297 6.70029C375.297 6.1352 375.782 5.73157 376.347 5.73157C380.302 5.97375 384.258 6.29666 388.214 6.70029C388.779 6.78101 389.182 7.26537 389.102 7.74973C389.021 8.39554 388.617 8.71845 388.133 8.71845ZM352.533 7.58828C351.967 7.58828 351.564 7.18464 351.564 6.61956C351.564 6.05447 351.967 5.65084 352.533 5.57012C356.488 5.40866 360.524 5.32793 364.48 5.40866C365.045 5.40866 365.449 5.89302 365.449 6.37738C365.449 6.94247 364.964 7.34609 364.48 7.34609C360.524 7.34609 356.569 7.42682 352.533 7.58828C352.613 7.58828 352.533 7.58828 352.533 7.58828Z" fill="#D24A43"/>
<path d="M116.246 165.408C116.246 171.059 112.452 173.804 107.85 173.804C103.249 173.804 99.2935 170.01 99.2935 165.408C99.2935 160.807 103.249 157.013 107.85 157.013C112.452 157.013 116.246 160.807 116.246 165.408Z" fill="#FECA55"/>
<path d="M620.059 264.863C620.059 270.514 616.265 273.259 611.663 273.259C607.062 273.259 603.106 269.465 603.106 264.863C603.106 260.262 607.062 256.468 611.663 256.468C616.265 256.468 620.059 260.181 620.059 264.863Z" fill="#FECA55"/>
<path d="M391.604 8.39555C391.604 14.0464 387.809 16.7911 383.208 16.7911C378.607 16.7911 374.57 12.997 374.57 8.39555C374.57 3.79414 378.526 0 383.127 0C387.729 0 391.604 3.71342 391.604 8.39555Z" fill="#FECA55"/>
<path d="M95.1762 370.292C95.1762 375.943 91.382 378.688 86.7806 378.688C82.0985 378.688 78.2236 374.893 78.2236 370.292C78.2236 365.691 82.1792 361.896 86.7806 361.896C91.382 361.896 95.1762 365.61 95.1762 370.292Z" fill="#FECA55"/>
<path d="M251.221 64.4197C251.221 98.6477 228.375 115.52 200.121 115.52C171.867 115.52 148.052 92.6739 148.052 64.4197C148.052 36.1654 171.947 13.3199 200.202 13.3199C228.456 13.3199 251.221 36.1654 251.221 64.4197Z" fill="#EBF4FF"/>
<path d="M246.861 43.8345C239.273 26.7205 222.643 14.5308 202.946 13.4006L199.959 65.8728L246.861 43.8345Z" fill="#CADAFF"/>
<path d="M408.798 491.785C428.092 495.176 447.547 497.517 467.002 499.616C492.108 502.28 517.375 504.54 542.4 507.608C548.132 448.597 548.778 378.768 545.468 362.462C538.283 327.103 483.147 334.046 483.147 334.046C483.147 334.046 410.493 355.196 410.493 358.102C410.493 360.686 384.257 465.468 380.544 486.538C389.989 488.314 399.353 490.171 408.798 491.785Z" fill="#697CCC"/>
<path d="M302.482 718.869C294.49 720.241 286.337 720.725 278.183 721.29C276.327 721.452 274.389 721.533 272.452 721.613C284.076 763.026 275.196 756.084 257.356 758.747C233.542 762.38 235.721 781.835 235.721 781.835H334.611C332.916 755.357 331.14 732.915 329.283 713.864C320.403 715.478 311.443 717.335 302.482 718.869Z" fill="#952C28"/>
<path d="M312.33 761.734C300.06 761.573 288.919 753.016 276.891 753.339C274.469 758.747 267.366 757.294 257.517 758.747C233.703 762.38 235.882 781.835 235.882 781.835H334.772C334.207 773.278 333.642 765.206 333.077 757.456C326.377 760.039 319.515 761.815 312.33 761.734Z" fill="black"/>
<path d="M382.805 478.708C381.271 485.812 380.544 490.251 380.867 490.251C381.19 490.251 385.791 491.705 393.218 494.126C377.88 501.311 354.631 510.837 319.515 522.703C234.349 551.604 217.8 554.752 253.077 660.584C264.621 695.216 268.254 718.949 271.725 733.238C290.05 730.17 318.143 725.892 336.468 723.309C327.749 626.437 311.604 610.049 311.604 610.049C311.604 610.049 311.523 607.386 395.317 604.964C512.37 601.654 526.094 605.69 535.458 561.291C539.898 540.14 543.127 511.725 545.226 482.825C491.059 481.614 436.972 478.708 382.805 478.708Z" fill="black"/>
<path d="M218.365 659.212C212.23 696.184 208.355 686.013 191.725 680.927C168.718 673.904 159.435 693.521 159.435 693.521L248.637 736.144C258.082 713.944 265.832 695.054 272.209 678.909C254.207 672.693 236.367 665.751 218.365 659.212Z" fill="#952C28"/>
<path d="M235.479 704.499C231.2 699.737 227.568 694.489 223.128 689.888C219.979 686.578 216.347 684.237 212.391 682.3C208.193 689.969 202.785 684.318 191.725 680.927C168.718 673.904 159.435 693.521 159.435 693.521L248.637 736.144C251.22 730.09 253.642 724.277 255.983 718.707C248.153 716.689 241.13 710.796 235.479 704.499Z" fill="black"/>
<path d="M456.993 499.777C456.993 499.777 470.797 492.027 381.11 485.246C266.398 476.689 245.247 479.273 227.407 591.644C221.837 626.518 218.123 647.507 215.54 661.795C233.219 668.415 260.505 680.766 278.345 686.901C312.17 601.654 300.787 585.912 301.998 571.301C301.998 571.301 301.998 571.301 329.122 582.36C340.101 576.629 351.645 571.704 362.624 566.215C379.818 557.577 397.094 549.101 414.369 540.625C432.048 531.906 449.727 523.107 467.326 514.066L456.993 499.777Z" fill="black"/>
<path d="M305.226 548.778C305.226 549.182 305.226 549.505 305.226 549.908C305.226 559.434 304.823 569.04 304.016 578.566C301.19 613.763 293.279 648.556 280.605 681.573C280.363 682.138 279.394 681.896 279.636 681.331C283.188 672.047 286.417 662.602 289.162 653.077C298.93 619.817 303.935 585.186 304.096 550.554C304.096 550.15 304.096 549.828 304.096 549.424C304.581 549.182 304.904 548.94 305.226 548.778Z" fill="#697CCC"/>
<path d="M410.494 503.168C401.775 505.993 393.138 508.98 384.581 512.209C357.134 522.542 330.575 535.216 305.146 549.908C304.823 550.07 304.5 550.312 304.177 550.473C301.755 551.846 299.253 553.299 296.831 554.752C296.266 555.075 295.782 554.187 296.347 553.864C298.93 552.33 301.594 550.796 304.177 549.263C304.5 549.02 304.823 548.859 305.146 548.697C310.232 545.711 315.398 542.885 320.565 540.14C349.222 524.802 379.253 512.128 410.171 502.199C410.897 502.038 411.14 503.006 410.494 503.168Z" fill="#697CCC"/>
<path d="M310.07 608.919C308.94 607.951 307.729 606.901 306.599 605.932C306.115 605.529 305.388 606.255 305.873 606.659C307.003 607.628 308.214 608.677 309.344 609.646C309.828 610.049 310.555 609.323 310.07 608.919Z" fill="#697CCC"/>
<path d="M519.232 507.123C519.151 506.478 518.183 506.8 518.263 507.366C521.008 522.461 518.021 538.364 509.706 551.281C502.118 563.147 490.413 572.027 477.012 576.306C476.447 576.467 476.689 577.436 477.254 577.275C490.897 572.835 502.764 563.793 510.514 551.765C519.071 538.607 522.057 522.461 519.232 507.123Z" fill="#697CCC"/>
<path d="M514.55 529.242C505.267 522.784 498.808 512.936 496.387 501.876C496.225 501.23 495.257 501.553 495.418 502.118C497.84 513.501 504.54 523.43 513.985 530.13C514.55 530.453 515.115 529.646 514.55 529.242Z" fill="#697CCC"/>
<path d="M429.222 501.069C425.267 501.472 421.311 501.876 417.355 502.28C416.71 502.36 416.71 503.329 417.355 503.248C421.311 502.845 425.267 502.441 429.222 502.038C429.868 501.957 429.868 500.988 429.222 501.069Z" fill="#697CCC"/>
<path d="M366.094 423.571C360.605 449.081 359.636 455.216 359.636 455.216C359.636 455.216 292.875 461.19 269.707 479.031C263.652 483.067 254.692 496.952 255.176 501.957C255.257 503.087 255.257 505.67 257.921 504.702C259.051 508.496 260.746 510.029 261.876 509.384C264.621 513.581 269.788 511.886 270.03 508.899C271.725 512.371 276.084 514.469 283.915 499.939C284.399 499.696 296.75 497.355 298.284 497.194C305.226 499.374 299.253 502.925 295.297 506.639C293.683 508.173 293.279 511.644 295.055 511.805C302.724 512.532 315.156 500.907 320.08 496.467L408.718 490.655L415.66 424.137C399.111 424.459 382.643 424.782 366.094 423.571Z" fill="#952C28"/>
<path d="M483.147 334.046L457.234 348.334L421.553 368.032L415.256 428.577C398.707 427.527 382.158 426.074 365.609 425.832C367.547 416.871 370.049 405.408 373.359 390.716C384.096 342.926 397.577 341.069 450.937 336.791C460.382 336.064 471.038 335.176 483.147 334.046Z" fill="#697CCC"/>
<path d="M369.807 458.122L361.815 456.266C361.17 456.104 360.927 457.073 361.573 457.234C364.237 457.88 366.901 458.526 369.565 459.091C370.211 459.253 370.453 458.284 369.807 458.122Z" fill="white"/>
<path d="M286.256 489.202C279.152 491.866 273.743 497.436 271.241 504.54C270.999 505.105 271.967 505.428 272.209 504.782C274.55 498.001 279.798 492.593 286.498 490.09C287.144 489.929 286.902 488.96 286.256 489.202Z" fill="#D24A43"/>
<path d="M281.896 484.358C272.452 488.072 265.348 496.225 262.926 506.074C262.764 506.72 263.733 506.962 263.894 506.316C266.236 496.79 273.017 488.879 282.139 485.327C282.704 485.085 282.462 484.116 281.896 484.358Z" fill="#D24A43"/>
<path d="M272.613 481.937C265.509 486.78 260.424 493.965 258.325 502.36C258.163 503.006 259.132 503.248 259.293 502.603C261.312 494.53 266.236 487.507 273.098 482.825C273.663 482.421 273.178 481.533 272.613 481.937Z" fill="#D24A43"/>
<path d="M418.809 365.852C418.163 374.409 417.517 383.047 416.871 391.604C416.79 392.25 417.84 392.25 417.84 391.604C418.486 383.047 419.131 374.409 419.777 365.852C419.858 365.206 418.889 365.206 418.809 365.852Z" fill="white"/>
<path d="M417.113 428.657H392.815C391.442 428.657 390.151 427.85 389.666 426.558L371.745 383.854C370.776 381.594 372.472 379.091 374.893 379.091H399.192C400.564 379.091 401.856 379.898 402.34 381.19L420.261 423.894C421.23 426.155 419.535 428.657 417.113 428.657Z" fill="black"/>
<path d="M397.981 381.917C395.559 381.917 393.137 381.997 390.715 381.997C390.07 381.997 390.07 382.966 390.715 382.966C393.137 382.966 395.559 382.885 397.981 382.885C398.627 382.885 398.627 381.917 397.981 381.917Z" fill="white"/>
<path d="M395.721 387.81C393.945 387.648 392.088 388.778 391.684 390.554C391.684 390.635 391.684 390.716 391.684 390.797C391.604 390.877 391.604 390.958 391.604 391.039C391.604 392.976 393.218 394.591 395.155 394.671C397.012 394.752 398.385 393.218 398.546 391.362C398.627 389.666 397.497 388.052 395.721 387.81ZM395.317 393.783C393.864 393.783 392.653 392.573 392.653 391.119C392.653 391.039 392.653 391.039 392.653 390.958L392.734 390.877C393.38 388.133 397.658 388.133 397.658 391.2C397.497 392.492 396.689 393.783 395.317 393.783Z" fill="white"/>
<path d="M410.413 409.121C407.345 401.21 404.278 393.218 401.129 385.307C400.887 384.742 399.918 384.984 400.161 385.549L409.444 409.364C409.686 410.009 410.655 409.767 410.413 409.121Z" fill="white"/>
<path d="M397.658 399.354C398.371 399.354 398.949 398.775 398.949 398.062C398.949 397.349 398.371 396.77 397.658 396.77C396.944 396.77 396.366 397.349 396.366 398.062C396.366 398.775 396.944 399.354 397.658 399.354Z" fill="white"/>
<path d="M545.145 418.728C535.539 416.629 526.013 414.53 516.487 412.189C510.514 410.736 504.621 409.364 498.566 408.637L494.449 432.613C494.449 432.613 439.555 422.038 431.644 421.15C430.11 413.965 426.962 405.085 423.248 399.354C419.696 393.945 414.934 391.604 412.835 391.119C408.637 390.151 410.171 398.546 414.691 400.807C415.337 402.098 414.449 413.723 407.426 412.431C405.731 411.463 404.035 410.575 402.34 409.687C400.484 408.476 389.908 405.65 382.159 398.466C380.463 397.335 378.203 394.429 376.104 394.268C373.359 394.026 371.583 396.125 372.391 398.708C372.633 399.596 379.656 406.457 380.383 407.184C380.867 410.171 380.463 411.866 381.674 414.53C381.755 417.275 382.239 419.777 383.127 422.199C382.885 433.501 391.281 440.443 401.049 444.883C404.278 447.547 408.314 450.534 413.158 453.844C480.483 499.939 521.089 510.11 542.401 505.186C557.173 501.715 566.215 459.253 566.296 425.186C566.296 424.621 566.296 424.056 566.296 423.491C559.111 421.795 552.168 420.262 545.145 418.728Z" fill="#952C28"/>
<path d="M498.082 411.785L508.738 349.626L494.691 341.069L483.147 334.046C487.991 333.642 493.48 333.239 499.212 332.916C526.74 331.301 560.16 332.431 562.502 358.829C563.712 372.633 566.134 399.111 566.053 425.105C543.289 421.392 520.605 416.871 498.082 411.785Z" fill="#697CCC"/>
<path d="M503.733 438.909C501.392 437.134 499.05 435.357 496.709 433.582C496.225 433.178 495.741 434.066 496.225 434.47C498.566 436.246 500.907 438.021 503.248 439.797C503.733 440.12 504.217 439.232 503.733 438.909Z" fill="white"/>
<path d="M393.057 416.306C390.07 414.449 387.164 412.593 384.177 410.736C383.612 410.413 383.128 411.22 383.693 411.624C386.68 413.481 389.586 415.337 392.573 417.194C393.057 417.517 393.622 416.629 393.057 416.306Z" fill="#D24A43"/>
<path d="M390.393 421.634C387.729 420.585 385.549 418.809 384.016 416.387C383.693 415.822 382.805 416.387 383.128 416.871C384.823 419.454 387.245 421.392 390.151 422.522C390.797 422.764 391.039 421.876 390.393 421.634Z" fill="#D24A43"/>
<path d="M389.424 428.98C387.809 427.608 386.195 426.235 384.58 424.944C384.096 424.54 383.369 425.267 383.854 425.67C385.468 427.043 387.083 428.415 388.697 429.707C389.182 430.11 389.908 429.384 389.424 428.98Z" fill="#D24A43"/>
<path d="M411.139 452.391C399.999 448.032 390.554 440.201 384.257 430.03C383.934 429.465 383.046 429.949 383.369 430.514C389.827 440.928 399.434 448.92 410.816 453.36C411.462 453.521 411.704 452.552 411.139 452.391Z" fill="#D24A43"/>
<path d="M500.907 370.292C499.534 382.482 498.243 394.752 496.87 406.942C496.79 407.588 497.758 407.588 497.839 406.942C499.212 394.752 500.503 382.482 501.876 370.292C502.037 369.646 500.988 369.646 500.907 370.292Z" fill="white"/>
<path d="M483.147 334.046C471.038 335.176 460.302 336.064 450.938 336.791C451.583 341.231 453.844 345.267 457.234 348.334C457.638 348.657 457.961 348.98 458.364 349.303C463.369 353.259 469.827 354.55 476.124 353.42C484.116 351.967 490.332 347.285 494.772 341.069C496.548 338.567 498.082 335.822 499.293 332.916C493.48 333.239 488.072 333.642 483.147 334.046Z" fill="#952C28"/>
<path d="M496.145 337.517L460.302 349.626L455.62 340.181L449.566 328.072L439.152 307.083L464.984 295.62C466.276 298.203 496.145 337.517 496.145 337.517Z" fill="#952C28"/>
<path d="M455.62 340.181L455.862 340.665C460.302 335.903 462.724 329.687 463.45 322.906C464.338 313.864 461.432 306.437 458.284 298.607L439.232 307.083L449.646 328.072L455.62 340.181Z" fill="black"/>
<path d="M462.885 273.663C452.31 264.54 420.584 277.376 423.49 290.857C425.67 300.948 431.967 328.799 438.102 332.754C450.453 340.665 464.5 330.413 468.374 318.223C472.33 305.953 473.46 282.704 462.885 273.663Z" fill="#952C28"/>
<path d="M466.599 278.022C467.244 276.649 467.325 274.954 466.841 273.017C465.63 268.657 461.674 267.285 458.364 268.254C456.346 265.913 452.633 264.944 449.646 265.59C448.274 265.913 446.982 266.559 445.933 267.366C445.125 266.962 444.237 266.72 443.349 266.639C441.331 266.559 439.797 267.608 438.586 269.142V269.223C435.6 269.303 432.774 270.433 431.402 273.259C431.24 273.663 431.079 274.066 430.998 274.55C425.509 272.694 418.808 272.532 417.921 278.99C417.759 280.444 417.92 281.574 418.405 282.542C417.678 283.753 417.194 285.206 417.194 286.982C417.113 289.566 420.181 291.342 422.441 289.969C422.926 289.646 423.41 289.323 423.894 289.081C424.54 289.889 425.347 290.534 426.477 291.019C431.079 293.037 434.712 290.373 436.084 286.498C439.878 286.74 443.592 285.287 446.336 282.623C447.224 284.318 449 285.529 451.422 285.529C452.633 285.529 453.763 285.287 454.651 284.803C456.831 287.951 460.221 291.261 464.823 290.211C467.002 289.727 469.263 298.123 471.361 298.042C471.119 290.777 469.828 283.43 466.599 278.022Z" fill="black"/>
<path d="M442.058 308.536C441.089 309.021 440.039 309.586 438.909 309.666C437.618 309.747 436.003 308.859 436.407 307.325C436.568 306.68 435.68 306.357 435.519 307.002C435.115 308.456 435.842 309.909 437.295 310.393C439.071 311.12 440.927 310.232 442.461 309.424C443.026 309.101 442.623 308.213 442.058 308.536Z" fill="black"/>
<path d="M435.196 300.383C436.488 304.258 434.308 308.536 430.11 309.182C425.912 309.828 422.522 306.518 422.522 302.401C422.522 301.755 421.553 301.675 421.553 302.32C421.553 307.083 425.428 310.958 430.272 310.151C435.115 309.344 437.618 304.419 436.084 299.979C435.842 299.334 434.954 299.737 435.196 300.383Z" fill="#BCD7FD"/>
<path d="M453.844 294.167C455.701 297.8 454.167 302.32 450.131 303.612C446.095 304.904 442.22 302.078 441.655 298.042C441.574 297.396 440.605 297.477 440.686 298.042C441.412 302.724 445.772 305.953 450.454 304.5C455.136 303.047 456.831 297.8 454.732 293.521C454.409 293.037 453.602 293.602 453.844 294.167Z" fill="#BCD7FD"/>
<path d="M441.574 299.172C439.636 299.899 437.699 300.625 435.761 301.352C435.196 301.594 435.6 302.482 436.165 302.24C438.102 301.513 440.04 300.787 441.977 300.06C441.816 299.737 441.735 299.495 441.574 299.172Z" fill="#BCD7FD"/>
<path d="M446.498 296.347C446.74 297.235 447.063 298.123 447.305 298.93C447.628 299.818 448.919 299.253 448.677 298.365C448.435 297.477 448.112 296.589 447.87 295.782C447.547 294.813 446.175 295.459 446.498 296.347Z" fill="black"/>
<path d="M428.415 300.383C428.657 301.271 428.98 302.159 429.222 302.966C429.545 303.854 430.837 303.289 430.595 302.401C430.352 301.513 430.03 300.625 429.787 299.818C429.464 298.93 428.092 299.495 428.415 300.383Z" fill="black"/>
<path d="M430.595 294.006C429.545 294.248 428.496 294.49 427.447 294.651C426.962 294.732 426.639 295.459 426.801 295.862C426.962 296.427 427.527 296.589 428.012 296.508C429.061 296.266 430.111 296.024 431.16 295.862C431.644 295.782 431.967 295.055 431.806 294.651C431.644 294.086 431.079 293.925 430.595 294.006Z" fill="black"/>
<path d="M444.399 288.597C443.511 288.92 442.542 289.323 441.654 289.646C440.443 290.131 441.251 291.907 442.461 291.422C443.349 291.099 444.318 290.696 445.206 290.373C446.336 289.969 445.529 288.193 444.399 288.597Z" fill="black"/>
<path d="M455.7 317.578C455.216 319.677 453.763 321.372 451.744 322.179C451.179 322.421 451.422 323.39 451.987 323.148C454.328 322.26 456.023 320.322 456.669 317.901C456.83 317.255 455.862 317.013 455.7 317.578Z" fill="black"/>
<path d="M468.939 287.063C464.257 289.566 459.575 292.068 454.893 294.571C454.328 294.894 454.731 295.782 455.296 295.459C459.979 292.956 464.661 290.454 469.343 287.951C469.989 287.628 469.504 286.74 468.939 287.063Z" fill="#BCD7FD"/>
<path d="M478.626 288.597C475.559 284.722 467.89 284.641 464.418 290.373C466.033 295.459 467.486 300.625 468.939 305.792C472.007 306.195 477.496 304.419 479.756 300.787C482.34 296.831 481.936 292.795 478.626 288.597Z" fill="#952C28"/>
<path d="M472.088 293.36C471.361 295.136 470.554 296.912 469.827 298.768C469.585 299.333 470.473 299.656 470.796 299.091C470.877 299.011 470.877 298.849 470.958 298.768C470.958 298.688 470.958 298.688 470.958 298.607C471.684 296.992 472.33 295.378 473.056 293.683C473.218 293.118 472.33 292.795 472.088 293.36Z" fill="black"/>
<path d="M185.105 185.832H37.0532V330.575H185.105V185.832Z" fill="#EBF4FF"/>
<path d="M185.105 198.103H37.0532V200.121H185.105V198.103Z" fill="white"/>
<path d="M151.2 330.655H37.0532V261.715C42.7041 259.697 50.4538 258.244 61.4326 257.436C63.2893 257.275 65.2267 257.194 67.3256 257.114C71.1198 256.952 75.2368 256.871 79.7575 256.871C85.0047 256.871 92.6737 256.952 101.15 257.114C102.522 257.114 103.975 257.194 105.348 257.194C155.721 256.226 149.424 274.47 151.2 330.655Z" fill="#0083F9"/>
<path d="M120.847 330.655H81.291C93.3193 323.794 105.67 316.77 114.712 318.789C119.475 319.757 120.847 325.408 120.847 330.655Z" fill="#FFA79B"/>
<path d="M62.401 330.655H61.3516C58.284 316.205 55.1356 301.755 51.9873 287.386C51.8259 286.74 52.7946 286.498 52.956 287.144C56.1851 301.594 59.3334 316.125 62.401 330.655Z" fill="white"/>
<path d="M124.48 237.739C124.48 243.39 121.493 246.135 117.78 246.135C114.066 246.135 110.999 242.341 110.999 237.739C110.999 233.138 114.147 229.344 117.78 229.344C121.412 229.344 124.48 233.138 124.48 237.739Z" fill="#2252B2"/>
<path d="M99.5352 257.275C103.168 271.806 93.6422 278.022 86.9419 277.457C76.3667 276.488 69.1821 268.173 67.2446 257.194C71.0388 257.033 75.1558 256.952 79.6765 256.952C84.9237 256.952 92.5927 257.033 101.069 257.194C102.522 257.194 98.0821 257.275 99.5352 257.275Z" fill="#FFA79B"/>
<path d="M70.8774 260.988L95.9026 269.465L99.2124 262.845L103.41 254.369L110.676 239.677L92.5928 231.685C91.7856 233.542 70.8774 260.988 70.8774 260.988Z" fill="#FFA79B"/>
<path d="M99.1312 262.845L98.9698 263.168C95.9022 259.858 94.1262 255.499 93.6418 250.736C92.996 244.44 95.0949 239.192 97.1938 233.703L110.514 239.596L103.248 254.288L99.1312 262.845Z" fill="black"/>
<path d="M94.1267 216.347C101.554 209.969 123.673 218.93 121.654 228.375C120.121 235.398 115.761 254.934 111.402 257.679C102.764 263.249 92.9158 256.064 90.2519 247.507C87.5072 238.869 86.7806 222.643 94.1267 216.347Z" fill="#FFA79B"/>
<path d="M93.5615 231.281C96.8713 234.591 103.329 227.81 104.863 224.742C109.142 226.518 117.053 226.518 121.089 224.419C117.618 216.67 100.423 210.857 94.0459 216.347C90.6554 219.253 88.9601 224.419 88.395 229.828C90.171 229.747 92.3506 230.07 93.5615 231.281Z" fill="#D24A43"/>
<path d="M82.8252 227.81C85.0048 225.146 90.3327 225.065 92.7545 229.102C91.6243 232.654 90.5749 236.286 89.6062 239.919C87.5073 240.161 83.6324 238.95 82.0179 236.448C80.2419 233.461 80.4841 230.716 82.8252 227.81Z" fill="#FFA79B"/>
<path d="M94.1268 234.107C94.1268 239.757 91.1399 242.502 87.4265 242.502C83.7131 242.502 80.6455 238.708 80.6455 234.107C80.6455 229.505 83.7938 225.711 87.4265 225.711C91.1399 225.711 94.1268 229.505 94.1268 234.107Z" fill="#2252B2"/>
<path d="M122.058 218.688C120.686 216.993 118.587 216.508 116.569 216.185C113.179 215.701 109.788 215.378 106.478 214.974C103.088 214.571 99.6973 214.086 96.3068 213.764C93.9657 213.602 91.5439 213.683 89.6065 215.136C85.0858 218.446 86.1352 224.742 87.1039 229.424C87.2654 230.07 88.2341 229.747 88.0727 229.182C86.9425 224.016 86.0545 216.185 92.997 214.894C95.4188 214.49 97.9213 214.974 100.343 215.297C103.007 215.62 105.671 215.943 108.335 216.266C112.775 216.831 120.848 216.105 122.381 221.513C123.673 226.034 121.17 230.635 122.139 235.156C122.301 235.802 123.189 235.479 123.108 234.914C122.058 229.747 125.772 223.289 122.058 218.688Z" fill="#2252B2"/>
<path d="M98.6483 248.637C92.4324 247.588 88.4768 242.018 89.607 235.802C89.6877 235.156 88.7997 234.914 88.6383 235.56C87.4274 242.26 91.6251 248.476 98.3254 249.606C98.9712 249.687 99.2942 248.718 98.6483 248.637Z" fill="#2252B2"/>
<path d="M107.446 250.333C105.993 250.494 104.621 248.799 105.266 247.426C105.509 246.861 104.701 246.377 104.378 246.942C103.41 248.96 105.105 251.624 107.365 251.382C108.092 251.221 108.092 250.252 107.446 250.333Z" fill="#D24A43"/>
<path d="M115.115 240.645C114.954 240 114.066 240.323 114.146 240.888C114.469 242.341 112.855 243.148 111.725 242.341C111.24 241.937 110.756 242.825 111.24 243.229C113.178 244.601 115.599 242.825 115.115 240.645Z" fill="#D24A43"/>
<path d="M107.85 233.219C107.527 233.945 107.123 234.752 106.8 235.479C106.558 236.044 107.366 236.528 107.688 235.963C108.011 235.237 108.415 234.429 108.738 233.703C108.98 233.138 108.092 232.653 107.85 233.219Z" fill="black"/>
<path d="M117.941 234.833C117.618 235.56 117.215 236.367 116.892 237.093C116.65 237.659 117.457 238.143 117.78 237.578C118.103 236.851 118.506 236.044 118.829 235.317C119.071 234.752 118.183 234.268 117.941 234.833Z" fill="black"/>
<path d="M110.837 229.505C110.272 229.424 109.707 229.263 109.223 229.182C108.738 229.102 108.173 229.344 108.012 229.909C107.85 230.393 108.173 231.039 108.738 231.12C109.303 231.2 109.869 231.362 110.353 231.443C110.837 231.523 111.402 231.281 111.564 230.716C111.725 230.232 111.402 229.667 110.837 229.505Z" fill="#952C28"/>
<path d="M119.152 229.828C118.748 229.747 118.345 229.586 118.022 229.505C116.811 229.182 116.246 231.039 117.457 231.443C117.86 231.523 118.264 231.685 118.587 231.766C119.798 232.088 120.363 230.151 119.152 229.828Z" fill="#952C28"/>
<path d="M185.106 270.191H117.618L94.127 330.655H185.106V270.191Z" fill="black"/>
<path d="M165.57 293.521C158.87 301.029 152.089 308.536 145.389 315.963C144.985 316.448 145.631 317.174 146.115 316.69L166.297 294.248C166.7 293.763 165.974 293.037 165.57 293.521Z" fill="white"/>
<path d="M167.83 299.091C162.825 304.5 157.82 309.989 152.734 315.398C152.331 315.882 152.977 316.609 153.461 316.125C158.466 310.716 163.471 305.227 168.557 299.818C168.96 299.334 168.234 298.607 167.83 299.091Z" fill="white"/>
<path d="M160.403 256.871C154.591 255.257 148.536 257.437 145.065 262.442C144.338 263.491 146.034 264.46 146.76 263.41C149.666 259.212 154.914 257.437 159.838 258.809C161.129 259.132 161.614 257.194 160.403 256.871Z" fill="#FECA55"/>
<path d="M163.148 246.538C152.976 241.614 141.352 245.408 136.427 255.661C135.862 256.791 137.557 257.84 138.122 256.629C142.562 247.426 152.734 243.713 162.098 248.234C163.228 248.799 164.278 247.104 163.148 246.538Z" fill="#FECA55"/>
<path d="M647.829 23.2492H429.707V200.767H647.829V23.2492Z" fill="white"/>
<path d="M543.773 94.6114C547.002 94.9343 550.958 93.4005 554.187 93.6426C554.187 93.5619 558.062 93.6426 558.142 93.6426C570.574 99.7778 566.538 86.9423 566.538 86.7002C564.197 82.9867 548.778 81.8566 546.033 78.3853C542.159 79.9999 540.867 85.4085 543.773 88.8798C543.854 89.0412 543.692 94.5306 543.773 94.6114Z" fill="#952C28"/>
<path d="M520.524 200.767C522.865 120.04 513.904 91.2208 554.913 90.1714C556.366 90.1714 557.739 90.0907 559.111 90.0907C560.08 90.0907 561.049 90.0907 562.017 90.0099C569.363 89.9292 575.902 89.8485 580.504 89.8485C584.379 89.8485 587.931 89.9292 591.24 90.0099C591.805 90.0099 592.37 90.0907 592.855 90.0907C594.873 90.1714 596.891 90.3329 598.748 90.4136C628.294 91.1401 637.577 99.7778 639.595 141.836C640.241 154.753 639.676 188.173 639.03 200.767H520.524Z" fill="#2252B2"/>
<path d="M544.5 159.435C536.024 157.739 539.657 145.308 540.545 139.657L543.693 118.587C543.774 117.941 542.805 117.699 542.724 118.345C541.433 127.306 540.06 136.266 538.769 145.227C537.961 150.635 537.154 159.031 544.258 160.484C544.823 160.484 545.065 159.515 544.5 159.435Z" fill="white"/>
<path d="M543.046 159.354C542.966 158.708 541.997 158.708 542.078 159.354C542.32 163.229 542.562 167.104 542.804 170.979C542.804 171.624 543.853 171.624 543.773 170.979C543.531 167.104 543.288 163.229 543.046 159.354Z" fill="white"/>
<path d="M528.354 142.966C528.354 142.966 525.287 135.297 521.169 125.126C515.357 110.837 507.365 91.7052 502.522 82.018C500.988 75.3985 496.629 64.904 490.09 71.2007C489.202 72.008 490.332 73.2189 491.301 72.7345C491.866 72.8152 492.431 72.9767 492.996 73.0574C492.915 73.2189 492.915 73.461 492.915 73.7032C492.915 73.7032 492.915 73.7839 492.915 73.8647C492.431 73.2189 491.462 73.3803 491.139 73.9454C490.493 73.7032 489.605 74.5105 489.928 75.3985L492.431 81.2108L479.757 87.4267C482.905 125.852 487.507 165.086 502.199 200.686H541.593C543.369 199.475 544.903 198.264 546.195 197.295C546.76 196.892 547.244 196.488 547.648 196.165L547.728 196.084C547.971 195.923 548.213 195.762 548.374 195.6C549.343 194.793 549.908 194.308 549.908 194.308L528.354 142.966Z" fill="#FFA79B"/>
<path d="M520.04 81.1923L500.634 72.7808L489.462 98.5559L508.867 106.967L520.04 81.1923Z" fill="#D24A43"/>
<path d="M499.534 74.8334C497.597 73.2996 495.095 72.6538 492.753 73.6225C489.847 74.7526 488.798 77.901 487.748 80.565C486.618 83.4711 484.439 87.1845 485.407 90.4136C486.376 93.6426 489.686 95.015 492.592 95.9837C493.803 96.3873 494.449 94.5306 493.238 94.127C489.202 92.6739 486.538 91.3823 487.668 86.2965C487.991 85.0049 488.636 83.7133 489.121 82.4217C490.655 78.5468 493.238 72.2501 498.485 76.4479C499.373 77.2552 500.503 75.6406 499.534 74.8334Z" fill="#D24A43"/>
<path d="M481.21 78.7082C479.918 81.6144 476.931 89.2834 480.806 92.9968C482.986 95.0957 486.538 91.8667 485.731 90.4943C487.91 91.8667 490.413 88.0725 489.928 86.3773C492.108 86.6194 493.965 85.8929 494.449 83.1482C494.772 81.2108 493.803 79.9191 492.431 79.0311C493.077 78.789 493.561 78.4661 494.045 78.0624C497.92 74.6719 493.884 71.4429 490.251 69.9898C485.166 67.9716 482.905 74.8334 481.21 78.7082Z" fill="#FFA79B"/>
<path d="M487.91 90.0099C486.78 90.7365 485.408 90.575 484.439 89.6063C484.035 89.1219 483.309 89.8485 483.713 90.3328C484.923 91.6245 486.861 91.8666 488.314 90.8979C488.879 90.575 488.395 89.687 487.91 90.0099Z" fill="#D24A43"/>
<path d="M495.175 77.7395C494.772 78.7082 494.126 79.3541 493.157 79.5155C492.834 79.5962 492.754 79.9191 492.834 80.242C493.642 81.9373 492.673 83.6326 490.897 84.0362C490.655 84.1169 490.493 84.2784 490.493 84.5205C490.574 85.9736 490.17 87.1845 489.363 88.3147C488.959 88.799 489.847 89.2834 490.251 88.799C490.978 87.9111 491.3 87.0231 491.543 85.8929C491.785 84.5205 491.946 85.0856 492.996 84.1976C494.207 83.1482 494.368 81.6951 493.884 80.3228C494.933 79.9191 495.66 79.1926 496.063 78.0624C496.386 77.4166 495.418 77.1744 495.175 77.7395Z" fill="#D24A43"/>
<path d="M488.636 86.5387C487.748 86.0543 486.941 85.4893 486.053 85.0049C485.488 84.682 485.004 85.4893 485.569 85.8929C486.457 86.3772 487.264 86.9423 488.152 87.4267C488.636 87.7496 489.201 86.8616 488.636 86.5387Z" fill="#D24A43"/>
<path d="M490.574 83.4711C488.96 82.1795 487.345 80.9686 485.812 79.677C485.327 79.2733 484.601 79.9999 485.085 80.4035C486.7 81.6951 488.314 82.906 489.848 84.1976C490.413 84.6013 491.14 83.8747 490.574 83.4711Z" fill="#D24A43"/>
<path d="M491.704 78.7082C490.332 76.8515 488.556 75.3177 486.457 74.349C485.892 74.1068 485.408 74.9141 485.973 75.237C487.91 76.2057 489.605 77.4973 490.816 79.2733C491.22 79.677 492.027 79.1926 491.704 78.7082Z" fill="#D24A43"/>
<path d="M528.596 140.383C527.708 138.123 526.739 135.943 525.852 133.683C525.609 133.118 524.641 133.36 524.883 133.925C525.771 136.185 526.739 138.365 527.627 140.625C527.87 141.19 528.838 140.948 528.596 140.383Z" fill="white"/>
<path d="M531.987 144.581L521.17 125.207C521.896 137.719 521.331 150.313 513.824 160.888C508.738 168.072 501.795 173.077 493.884 176.306C496.306 184.621 499.051 192.855 502.361 200.847H541.755C543.531 199.636 545.065 198.426 546.356 197.457C546.922 197.053 547.406 196.65 547.81 196.327L547.89 196.246C548.132 196.084 548.375 195.923 548.536 195.762C549.505 194.954 550.07 194.47 550.07 194.47L531.987 144.581Z" fill="#2252B2"/>
<path d="M546.599 200.928C567.265 200.928 638.224 200.928 638.224 200.928C638.224 200.928 634.268 166.7 599.071 165.731C599.071 165.731 558.143 170.575 538.042 175.499C535.378 184.702 547.971 191.402 546.599 200.928Z" fill="#FFA79B"/>
<path d="M541.351 176.387C539.091 175.58 532.31 172.512 525.852 171.947C522.946 170.656 519.878 170.01 516.73 171.382C512.048 173.481 508.334 178.89 504.863 182.522C503.572 183.895 504.863 186.317 506.801 185.832C508.173 185.509 509.384 185.025 510.595 184.46C509.061 186.155 507.85 187.366 506.478 189.061C505.267 190.514 506.155 194.066 508.415 193.34C508.657 195.519 510.191 196.165 512.451 196.65C513.097 198.183 518.183 197.86 519.959 196.972C521.735 196.165 523.188 194.954 524.399 193.501C532.068 198.668 541.109 202.946 549.666 200.524C546.437 192.613 543.612 184.541 541.351 176.387Z" fill="#FFA79B"/>
<path d="M515.6 177.275C514.147 179.213 512.694 181.069 511.24 183.007C510.837 183.491 511.725 183.975 512.128 183.491C513.582 181.554 515.035 179.697 516.488 177.76C516.891 177.275 516.003 176.791 515.6 177.275Z" fill="#D24A43"/>
<path d="M517.376 181.231C515.438 184.379 513.259 187.366 510.918 190.191C510.514 190.676 511.24 191.402 511.644 190.918C514.066 188.012 516.246 185.025 518.264 181.796C518.587 181.15 517.699 180.666 517.376 181.231Z" fill="#D24A43"/>
<path d="M520.524 184.541C518.506 188.335 516.004 191.725 513.098 194.874C512.694 195.358 513.34 196.004 513.824 195.6C516.811 192.452 519.314 188.9 521.412 185.106C521.655 184.46 520.767 183.975 520.524 184.541Z" fill="#D24A43"/>
<path d="M598.102 125.61L596.972 157.336C596.972 157.982 597.941 157.982 597.941 157.336L599.071 125.61C599.152 124.965 598.102 124.965 598.102 125.61Z" fill="white"/>
<path d="M591.32 90.0099L566.537 125.852C566.537 125.852 563.308 100.424 562.017 90.0099C569.363 89.9292 575.902 89.8485 580.503 89.8485C584.378 89.8485 587.93 89.9292 591.32 90.0099Z" fill="#FFA79B"/>
<path d="M591.402 89.4448L566.376 97.9211L563.067 91.3016L558.869 82.8253L551.604 68.1331L569.686 60.1412C570.494 61.9979 591.402 89.4448 591.402 89.4448Z" fill="#FFA79B"/>
<path d="M563.066 91.3016L563.228 91.6245C566.296 88.3147 568.072 83.9555 568.556 79.1926C569.202 72.8959 567.103 67.6487 565.004 62.1593L551.684 68.0524L558.949 82.7446L563.066 91.3016Z" fill="black"/>
<path d="M568.152 44.8032C560.726 38.4258 538.607 47.3864 540.625 56.8314C542.158 63.8546 546.518 83.3904 550.877 86.1351C559.515 91.7052 569.363 84.5206 572.027 75.9636C574.772 67.3258 575.498 51.0998 568.152 44.8032Z" fill="#FFA79B"/>
<path d="M608.596 80.3236C606.659 75.5607 601.331 73.6233 597.133 75.6414C599.151 66.1157 590.271 57.9623 580.665 61.2721V61.1914C580.826 57.6394 580.504 53.6031 577.355 51.4235C575.579 50.2126 573.722 50.0512 572.027 50.7777C571.139 48.4366 569.848 46.4185 568.152 44.8847C563.551 40.9291 553.46 42.8665 546.76 47.145C544.742 46.0956 542.32 45.6919 540.302 46.9028C538.284 48.033 537.153 50.2933 537.718 52.5537C538.364 54.8948 540.625 56.0249 542.966 55.9442C544.419 55.8635 546.195 55.4598 547.648 54.6526C551.119 54.8947 554.913 54.4911 557.416 53.4417C558.95 56.5093 566.538 62.1601 569.848 58.8503C570.574 58.1238 570.413 58.8503 571.462 58.6889C572.512 60.4649 573.48 62.3216 574.53 64.0976C574.449 64.1783 574.449 64.3397 574.449 64.4205C574.449 64.5819 574.449 64.6626 574.449 64.8241C572.431 69.7484 575.256 75.3993 580.826 76.6909C577.678 81.4537 577.678 87.5082 581.392 92.1903C586.154 98.2448 595.034 99.4557 601.735 95.9038C607.143 92.8362 611.099 86.4588 608.596 80.3236Z" fill="#952C28"/>
<path d="M579.777 57.3965C577.597 54.7325 572.269 54.6518 569.848 58.6881C570.978 62.2401 572.027 65.8728 572.996 69.5054C575.095 69.7476 578.97 68.5367 580.584 66.0342C582.36 63.1281 582.118 60.3026 579.777 57.3965Z" fill="#FFA79B"/>
<path d="M554.752 78.789C556.205 78.9504 557.577 77.2552 556.931 75.8828C556.689 75.3177 557.496 74.8334 557.819 75.3985C558.788 77.4166 557.093 80.0806 554.832 79.8384C554.187 79.7577 554.187 78.7082 554.752 78.789Z" fill="#D24A43"/>
<path d="M547.082 69.1018C547.244 68.456 548.132 68.7789 548.051 69.344C547.728 70.797 549.343 71.6043 550.473 70.797C550.957 70.3934 551.442 71.2814 550.957 71.685C549.101 73.0574 546.598 71.2814 547.082 69.1018Z" fill="#D24A43"/>
<path d="M554.348 61.675C554.671 62.4015 555.075 63.2088 555.398 63.9353C555.64 64.5004 554.833 64.9848 554.51 64.4197C554.187 63.6931 553.783 62.8859 553.46 62.1593C553.299 61.5942 554.106 61.1099 554.348 61.675Z" fill="black"/>
<path d="M544.338 63.2895C544.661 64.016 545.064 64.8233 545.387 65.5498C545.629 66.1149 544.822 66.5993 544.499 66.0342C544.176 65.3077 543.773 64.5004 543.45 63.7739C543.208 63.2088 544.015 62.7244 544.338 63.2895Z" fill="black"/>
<path d="M551.361 57.9616C551.926 57.8808 552.491 57.7194 552.976 57.6386C553.46 57.5579 554.025 57.8001 554.187 58.3652C554.348 58.8495 554.025 59.4954 553.46 59.5761C552.895 59.6568 552.33 59.8183 551.846 59.899C551.361 59.9797 550.796 59.7375 550.635 59.1724C550.554 58.6881 550.796 58.123 551.361 57.9616Z" fill="#952C28"/>
<path d="M542.4 59.0917C542.804 59.011 543.208 58.8496 543.531 58.7688C544.742 58.4459 545.307 60.3026 544.096 60.7063C543.692 60.787 543.288 60.9484 542.966 61.0292C541.755 61.4328 541.19 59.4954 542.4 59.0917Z" fill="#952C28"/>
<path d="M573.642 61.675C573.157 62.563 572.673 63.5317 572.189 64.4197C571.866 64.9848 572.754 65.4691 573.077 64.904C573.561 64.016 574.045 63.0473 574.53 62.1593C574.853 61.5942 573.965 61.1099 573.642 61.675Z" fill="#D24A43"/>
<path d="M567.669 198.103H474.187C472.896 198.103 472.896 200.121 474.187 200.121H567.669C568.96 200.04 568.96 198.103 567.669 198.103Z" fill="#003865"/>
<path d="M482.906 64.2582H429.708V166.377H482.906V64.2582Z" fill="#003865"/>
<path d="M433.26 163.229V198.587C433.26 199.879 436.085 199.879 436.085 198.587V163.229C436.085 161.937 433.26 161.937 433.26 163.229Z" fill="#003865"/>
<path d="M457.639 200.201H429.708V197.376H457.639C458.931 197.295 458.931 200.201 457.639 200.201Z" fill="#003865"/>
<path d="M438.588 112.129C438.588 117.78 434.794 120.525 430.192 120.525C430.031 120.525 429.95 120.525 429.789 120.525V103.733C429.95 103.733 430.031 103.733 430.192 103.733C434.794 103.733 438.588 107.528 438.588 112.129Z" fill="white"/>
<path d="M470.151 46.1755C468.375 49.1624 466.599 52.0685 464.823 55.0554C464.177 56.1856 465.872 57.1543 466.518 56.0241L471.846 47.1442C472.492 46.0948 470.797 45.1261 470.151 46.1755Z" fill="#FECA55"/>
<path d="M475.64 53.2794C473.541 55.0554 471.442 56.8314 469.344 58.6074C468.375 59.4146 469.747 60.787 470.716 59.9797C472.815 58.2037 474.914 56.4278 477.013 54.6518C477.981 53.8445 476.609 52.4722 475.64 53.2794Z" fill="#FECA55"/>
<path d="M635.236 8.87991H626.033V18.0827H635.236V8.87991Z" fill="#0083F9"/>
<path d="M648.233 8.87991H639.03V18.0827H648.233V8.87991Z" fill="#0083F9"/>
<path d="M648.879 201.735H428.738V22.2805H648.879V201.735ZM430.675 199.717H646.861V24.2179H430.675V199.717Z" fill="#D24A43"/>
<path d="M380.14 228.536H277.053V302.885H380.14V228.536Z" fill="#D24A43"/>
<path d="M285.932 289.727C285.771 289.727 285.529 289.646 285.367 289.566C284.883 289.243 284.802 288.597 285.125 288.193L296.265 272.29C296.507 271.967 296.992 271.806 297.395 271.887L319.999 279.071L345.347 242.26C345.67 241.856 346.235 241.695 346.719 242.018L363.107 252.351L368.838 249.606C369.323 249.364 369.888 249.606 370.13 250.09C370.372 250.575 370.13 251.14 369.645 251.382L363.43 254.369C363.107 254.53 362.784 254.53 362.461 254.288L346.477 244.197L321.21 280.847C320.967 281.17 320.483 281.332 320.079 281.251L297.476 274.066L286.739 289.323C286.578 289.566 286.255 289.727 285.932 289.727Z" fill="white"/>
<path d="M369.484 288.516H348.414C347.122 288.516 347.122 290.534 348.414 290.534H369.484C370.775 290.454 370.775 288.516 369.484 288.516Z" fill="white"/>
<path d="M369.484 294.651H348.414C347.122 294.651 347.122 296.67 348.414 296.67H369.484C370.775 296.67 370.775 294.651 369.484 294.651Z" fill="white"/>
<path d="M269.06 245.005C268.495 245.005 268.092 244.601 268.092 244.036V220.545C268.092 219.979 268.495 219.576 269.06 219.576H294.489C295.054 219.576 295.458 219.979 295.458 220.545C295.458 221.11 295.054 221.513 294.489 221.513H270.029V243.955C270.11 244.601 269.626 245.005 269.06 245.005Z" fill="#2252B2"/>
<path d="M388.374 246.054C387.809 246.054 387.405 245.65 387.405 245.085V220.625H364.963C364.398 220.625 363.995 220.222 363.995 219.657C363.995 219.091 364.398 218.688 364.963 218.688H388.455C389.02 218.688 389.423 219.091 389.423 219.657V245.005C389.423 245.57 388.939 246.054 388.374 246.054Z" fill="#2252B2"/>
<path d="M288.103 289.845C289.212 288.506 289.026 286.521 287.687 285.412C286.348 284.302 284.364 284.488 283.254 285.827C282.145 287.166 282.331 289.151 283.67 290.26C285.009 291.369 286.993 291.183 288.103 289.845Z" fill="white"/>
<path d="M299.306 275.422C300.416 274.083 300.23 272.098 298.891 270.989C297.552 269.88 295.567 270.066 294.458 271.405C293.349 272.743 293.535 274.728 294.873 275.837C296.212 276.947 298.197 276.761 299.306 275.422Z" fill="white"/>
<path d="M322.336 282.156C323.445 280.817 323.259 278.832 321.92 277.723C320.581 276.614 318.596 276.8 317.487 278.139C316.378 279.477 316.564 281.462 317.903 282.571C319.242 283.681 321.226 283.495 322.336 282.156Z" fill="white"/>
<path d="M348.668 245.462C349.777 244.123 349.591 242.138 348.252 241.029C346.913 239.92 344.929 240.106 343.819 241.445C342.71 242.783 342.896 244.768 344.235 245.877C345.574 246.987 347.558 246.801 348.668 245.462Z" fill="white"/>
<path d="M365.971 255.332C367.08 253.993 366.894 252.008 365.555 250.899C364.216 249.79 362.232 249.976 361.122 251.315C360.013 252.654 360.199 254.638 361.538 255.748C362.877 256.857 364.862 256.671 365.971 255.332Z" fill="white"/>
<path d="M373.649 251.629C374.758 250.29 374.572 248.305 373.233 247.196C371.895 246.087 369.91 246.273 368.801 247.612C367.691 248.951 367.877 250.935 369.216 252.045C370.555 253.154 372.54 252.968 373.649 251.629Z" fill="white"/>
<path d="M394.025 176.952H236.367V190.837H394.025V176.952Z" fill="#2252B2"/>
<path d="M354.389 195.277H236.367V202.22H354.389V195.277Z" fill="#2252B2"/>
<path d="M187.285 89.2027H140.706V123.915H187.285V89.2027Z" fill="#FECA55"/>
<path d="M163.309 105.187C163.147 105.187 162.905 105.106 162.744 105.025L144.257 93.4812C143.773 93.1583 143.692 92.5932 143.934 92.1088C144.257 91.6245 144.822 91.463 145.307 91.7859L163.309 103.007L184.298 91.0594C184.782 90.8172 185.347 90.9787 185.67 91.463C185.912 91.9474 185.751 92.5125 185.266 92.8354L163.793 105.025C163.632 105.187 163.47 105.187 163.309 105.187Z" fill="white"/>
<path d="M132.23 100.262H120.363C119.475 100.262 119.475 102.28 120.363 102.28H132.23C133.118 102.28 133.118 100.262 132.23 100.262Z" fill="#EBF4FF"/>
<path d="M131.907 93.6426H114.712C113.42 93.6426 113.42 95.6608 114.712 95.6608H131.907C133.198 95.6608 133.198 93.6426 131.907 93.6426Z" fill="#EBF4FF"/>
<path d="M180.181 131.665H142.482C141.19 131.665 141.19 133.683 142.482 133.683H180.181C181.473 133.683 181.473 131.665 180.181 131.665Z" fill="#697CCC"/>
<path d="M180.181 140.222H142.482C141.19 140.222 141.19 142.24 142.482 142.24H180.181C181.473 142.24 181.473 140.222 180.181 140.222Z" fill="#697CCC"/>
<path d="M180.181 149.505H142.482C141.19 149.505 141.19 151.523 142.482 151.523H180.181C181.473 151.523 181.473 149.505 180.181 149.505Z" fill="#697CCC"/>
<path d="M387.787 367.358C389.778 364.955 389.417 361.37 386.979 359.35C384.542 357.331 380.952 357.642 378.961 360.045C376.97 362.448 377.331 366.033 379.769 368.053C382.206 370.072 385.796 369.761 387.787 367.358Z" fill="#D24A43"/>
<path d="M392.331 348.657C384.985 341.796 373.925 343.41 368.84 352.209C368.194 353.339 369.889 354.308 370.535 353.178C374.894 345.59 384.42 344.056 390.878 350.03C391.847 350.918 393.3 349.545 392.331 348.657Z" fill="#D24A43"/>
<path d="M399.515 335.983C387.971 322.744 366.982 325.57 359.475 341.473C358.909 342.603 360.605 343.652 361.17 342.441C368.193 327.669 387.325 325.005 398.062 337.356C398.95 338.405 400.322 336.952 399.515 335.983Z" fill="#D24A43"/>
<path d="M123.108 554.833C118.91 562.421 110.676 563.632 103.33 559.757C97.7599 556.77 93.6429 551.926 88.5571 548.213C82.2604 543.531 73.7842 540.867 66.9224 545.953C65.873 546.679 67.1646 548.213 68.1333 547.487C80.6459 538.284 92.5127 556.205 102.2 561.533C110.353 565.973 119.96 564.52 124.642 556.044C125.288 554.913 123.673 553.702 123.108 554.833Z" fill="#DEE7FF"/>
<path d="M119.071 565.327C114.874 572.915 106.64 574.126 99.2934 570.251C93.7233 567.265 89.6062 562.421 84.5205 558.708C78.2238 554.025 69.7475 551.361 62.8858 556.447C61.8364 557.174 63.128 558.708 64.0967 557.981C76.6093 548.778 88.4761 566.699 98.1633 572.027C106.317 576.467 115.923 575.014 120.605 566.538C121.332 565.408 119.717 564.197 119.071 565.327Z" fill="#DEE7FF"/>
<path d="M237.981 242.26C232.25 236.286 226.437 230.312 220.706 224.339C219.818 223.451 218.445 224.823 219.333 225.711C225.065 231.685 230.877 237.659 236.609 243.632C237.497 244.601 238.869 243.148 237.981 242.26Z" fill="#DEE7FF"/>
<path d="M289.163 73.8647C288.436 79.677 278.426 77.3359 274.309 79.0311C271.16 80.3228 268.739 82.5024 266.882 85.3278C266.155 86.3773 267.931 87.4267 268.577 86.2965C270.595 83.1482 273.582 80.8879 277.296 80.1613C279.879 79.5962 282.543 80.1613 285.045 79.677C288.275 79.1119 290.696 77.1744 291.1 73.8647C291.261 72.573 289.324 72.573 289.163 73.8647Z" fill="#DEE7FF"/>
<path d="M292.149 82.2602C291.422 88.0725 281.412 85.7315 277.295 87.4267C274.147 88.7183 271.725 90.8979 269.868 93.7234C269.142 94.7728 270.918 95.8223 271.564 94.6921C273.582 91.5438 276.569 89.2834 280.282 88.5569C282.865 87.9918 285.529 88.5569 288.032 88.0725C291.261 87.5074 293.683 85.57 294.086 82.2602C294.248 81.0493 292.31 81.0493 292.149 82.2602Z" fill="#DEE7FF"/>
<path d="M353.824 19.9394C349.707 22.6034 345.59 25.2674 341.392 27.8506C340.343 28.4964 341.311 30.2724 342.361 29.5459C346.478 26.8819 350.595 24.2179 354.793 21.6347C355.923 20.9081 354.954 19.2129 353.824 19.9394Z" fill="#DEE7FF"/>
<path d="M404.52 137.235C401.21 142.159 397.9 147.084 394.51 152.089C393.783 153.138 395.478 154.107 396.205 153.057C399.515 148.133 402.825 143.209 406.215 138.204C406.942 137.235 405.246 136.185 404.52 137.235Z" fill="#DEE7FF"/>
<path d="M554.429 250.333C550.15 242.583 545.872 234.752 541.593 227.003C540.948 225.872 539.252 226.922 539.898 227.971C544.177 235.721 548.455 243.552 552.734 251.301C553.379 252.431 555.075 251.463 554.429 250.333Z" fill="#DEE7FF"/>
<path d="M562.905 250.333C558.627 242.583 554.348 234.752 550.07 227.003C549.424 225.872 547.729 226.922 548.375 227.971C552.653 235.721 556.932 243.552 561.21 251.301C561.775 252.431 563.471 251.463 562.905 250.333Z" fill="#DEE7FF"/>
<path d="M24.3791 345.751C18.809 351.079 13.2389 356.407 7.66876 361.816C6.78077 362.704 8.15312 364.076 9.04111 363.188C14.6112 357.86 20.1813 352.532 25.7515 347.124C26.7202 346.236 25.3478 344.863 24.3791 345.751Z" fill="#DEE7FF"/>
<path d="M33.8245 169.283C29.546 164.682 25.2675 160 20.9083 155.398C20.0203 154.43 18.648 155.883 19.5359 156.771C23.8144 161.372 28.0929 166.054 32.4522 170.656C33.2594 171.624 34.6318 170.252 33.8245 169.283Z" fill="#DEE7FF"/>
<path d="M43.7537 168.799C39.4752 164.197 35.1967 159.515 30.8375 154.914C29.9495 153.945 28.5772 155.398 29.4651 156.286C33.7436 160.888 38.0221 165.57 42.3814 170.171C43.1886 171.14 44.561 169.768 43.7537 168.799Z" fill="#DEE7FF"/>
<path d="M461.836 12.5933C461.028 9.92934 460.221 7.26538 459.414 4.68213C459.01 3.47123 457.154 3.95559 457.476 5.24721C458.284 7.91118 459.091 10.5752 459.898 13.1584C460.302 14.3693 462.159 13.8042 461.836 12.5933Z" fill="#DEE7FF"/>
<path d="M660.261 559.838C656.628 562.502 652.996 565.166 649.363 567.749C648.314 568.475 649.363 570.251 650.332 569.444C653.964 566.78 657.597 564.116 661.23 561.533C662.279 560.806 661.311 559.03 660.261 559.838Z" fill="#DEE7FF"/>
<path d="M662.683 566.215C659.05 568.879 655.418 571.543 651.785 574.126C650.735 574.853 651.785 576.629 652.754 575.821C656.386 573.157 660.019 570.493 663.652 567.91C664.701 567.264 663.732 565.488 662.683 566.215Z" fill="#DEE7FF"/>
<path d="M408.557 731.22C408.476 738.243 399.354 735.902 395.318 736.225C393.138 736.386 391.039 736.951 389.102 738.001C384.985 740.1 382.159 743.652 380.625 747.93C380.222 749.141 382.078 749.625 382.563 748.495C384.097 744.217 387.326 740.584 391.685 739.05C395.479 737.759 399.354 738.808 403.229 738.243C407.104 737.759 410.413 735.418 410.494 731.22C410.494 730.009 408.557 730.009 408.557 731.22Z" fill="#DEE7FF"/>
<path d="M414.449 738.162C414.369 745.186 405.246 742.844 401.21 743.167C399.031 743.329 396.932 743.894 394.994 744.943C390.877 747.042 388.052 750.594 386.518 754.873C386.114 756.084 387.971 756.568 388.455 755.438C389.989 751.159 393.218 747.527 397.577 745.993C401.372 744.701 405.246 745.751 409.121 745.185C412.996 744.701 416.306 742.36 416.387 738.162C416.467 736.951 414.449 736.951 414.449 738.162Z" fill="#DEE7FF"/>
<path d="M380.302 664.54C377.315 660.907 374.328 657.274 371.341 653.642C370.534 652.673 369.162 654.045 369.969 655.014C372.956 658.647 375.943 662.279 378.93 665.912C379.737 666.962 381.109 665.589 380.302 664.54Z" fill="#DEE7FF"/>
<path d="M578.889 727.183C570.978 735.014 563.067 742.764 555.236 750.594C554.348 751.482 555.721 752.935 556.609 751.966C564.52 744.136 572.431 736.386 580.261 728.556C581.23 727.749 579.858 726.295 578.889 727.183Z" fill="#DEE7FF"/>
<path d="M0.968712 730.897C0.726533 730.897 0.484351 730.816 0.322898 730.655C-7.31374e-06 730.332 -0.0807238 729.928 0.080729 729.525C0.322908 729.04 21.9576 681.331 24.2179 674.55C24.2986 674.227 24.5408 674.066 24.783 673.904C25.0252 673.823 25.3481 673.823 25.671 673.985L62.2401 695.62C62.563 695.781 62.7244 696.104 62.7244 696.507C62.7244 696.83 62.563 697.153 62.2401 697.396L1.53379 730.816C1.29162 730.897 1.13016 730.897 0.968712 730.897ZM25.671 676.326C22.4419 684.802 7.58828 717.819 3.0676 727.668L59.6568 696.507L25.671 676.326Z" fill="#DEE7FF"/>
<path d="M631.28 330.898C631.038 330.898 630.876 330.817 630.634 330.655C630.311 330.413 630.231 330.01 630.311 329.687C630.392 329.444 635.316 308.779 635.639 305.792C635.72 305.469 635.881 305.146 636.204 304.984C636.527 304.823 636.931 304.904 637.173 305.146L654.126 318.466C654.368 318.708 654.529 319.031 654.529 319.354C654.529 319.677 654.287 319.999 653.964 320.161L631.684 330.817C631.603 330.898 631.442 330.898 631.28 330.898ZM637.415 307.729C636.527 312.33 633.863 323.471 632.814 328.153L651.785 319.031L637.415 307.729Z" fill="#DEE7FF"/>
<path d="M745.024 585.428H744.943L691.744 579.131C691.341 579.051 690.937 578.728 690.856 578.324C690.775 577.92 690.937 577.436 691.341 577.275C691.663 577.113 726.86 557.819 731.381 554.671C731.623 554.51 731.946 554.429 732.188 554.51C732.511 554.59 732.672 554.752 732.834 555.075L745.912 584.056C746.073 584.378 745.992 584.782 745.831 585.024C745.669 585.266 745.346 585.428 745.024 585.428ZM694.973 577.597L743.328 583.329L731.381 557.093C725.488 560.806 702.884 573.238 694.973 577.597Z" fill="#DEE7FF"/>
<path d="M261.796 289.969H236.044C234.753 289.969 234.753 291.987 236.044 291.987H261.796C263.088 291.987 263.088 289.969 261.796 289.969Z" fill="#003865"/>
<path d="M254.126 297.88H235.72C234.832 297.88 234.832 299.899 235.72 299.899H254.126C255.095 299.899 255.095 297.88 254.126 297.88Z" fill="#003865"/>
<path d="M315.882 332.754C315.882 355.277 300.867 366.336 282.3 366.336C263.733 366.336 248.072 351.321 248.072 332.754C248.072 314.187 263.733 299.172 282.3 299.172C300.867 299.172 315.882 314.187 315.882 332.754Z" fill="#EBF4FF"/>
<path d="M268.98 325.57H262.603V353.743H268.98V325.57Z" fill="#2252B2"/>
<path d="M279.071 336.468H272.693V353.662H279.071V336.468Z" fill="#2252B2"/>
<path d="M289.081 313.541H282.704V353.662H289.081V313.541Z" fill="#2252B2"/>
<path d="M299.091 319.838H292.713V353.662H299.091V319.838Z" fill="#2252B2"/>
<path d="M354.631 378.123C339.373 366.982 324.035 355.842 308.778 344.702C307.729 343.975 306.76 345.67 307.809 346.397C323.067 357.537 338.405 368.678 353.662 379.818C354.631 380.625 355.599 378.849 354.631 378.123Z" fill="#EBF4FF"/>
<path d="M173.077 398.062H90.0903V478.788H173.077V398.062Z" fill="white"/>
<path d="M163.228 409.606H100.746V470.07H163.228V409.606Z" fill="#697CCC"/>
<path d="M90.0903 422.522C89.5252 422.522 89.1216 422.118 89.1216 421.553V398.062C89.1216 397.497 89.5252 397.093 90.0903 397.093H115.519C116.084 397.093 116.488 397.497 116.488 398.062C116.488 398.627 116.084 399.031 115.519 399.031H91.059V421.473C91.1397 422.038 90.6554 422.522 90.0903 422.522Z" fill="#2252B2"/>
<path d="M173.077 479.757H147.648C147.083 479.757 146.68 479.353 146.68 478.788C146.68 478.223 147.083 477.82 147.648 477.82H172.109V455.378C172.109 454.813 172.512 454.409 173.077 454.409C173.642 454.409 174.046 454.813 174.046 455.378V478.869C174.046 479.353 173.642 479.757 173.077 479.757Z" fill="#2252B2"/>
<path d="M171.947 423.41C171.382 423.41 170.978 423.006 170.978 422.441V397.981H148.536C147.971 397.981 147.567 397.578 147.567 397.012C147.567 396.447 147.971 396.044 148.536 396.044H171.947C172.512 396.044 172.915 396.447 172.915 397.012V422.441C172.915 422.926 172.512 423.41 171.947 423.41Z" fill="#2252B2"/>
<path d="M114.712 480.887H91.2202C90.6551 480.887 90.2515 480.484 90.2515 479.918V454.49C90.2515 453.925 90.6551 453.521 91.2202 453.521C91.7853 453.521 92.1889 453.925 92.1889 454.49V478.95H114.631C115.196 478.95 115.6 479.353 115.6 479.918C115.68 480.484 115.277 480.887 114.712 480.887Z" fill="#2252B2"/>
<path d="M154.833 461.351L110.434 416.952C109.546 416.064 108.092 417.436 109.061 418.324L153.461 462.724C154.349 463.692 155.721 462.239 154.833 461.351Z" fill="white"/>
<path d="M110.433 462.804L154.833 418.405C155.721 417.517 154.348 416.064 153.46 417.033L109.061 461.432C108.173 462.239 109.545 463.692 110.433 462.804Z" fill="white"/>
<path d="M659.211 779.817H131.745C130.453 779.817 130.453 781.835 131.745 781.835H659.211C660.503 781.835 660.503 779.817 659.211 779.817Z" fill="#697CCC"/>
</svg>
