<svg width="18" height="20" viewBox="0 0 18 20" fill="none" xmlns="http://www.w3.org/2000/svg">
<path d="M17 9.38324L9.43557 17.3568C8.50887 18.3336 7.25199 18.8824 5.94144 18.8824C4.63089 18.8824 3.37401 18.3336 2.44731 17.3568C1.52061 16.38 1 15.0551 1 13.6737C1 12.2922 1.52061 10.9674 2.44731 9.99058L10.0117 2.01706C10.6295 1.36585 11.4675 1 12.3412 1C13.2149 1 14.0528 1.36585 14.6706 2.01706C15.2884 2.66827 15.6355 3.5515 15.6355 4.47245C15.6355 5.3934 15.2884 6.27664 14.6706 6.92785L7.09792 14.9014C6.78902 15.227 6.37006 15.4099 5.93321 15.4099C5.49636 15.4099 5.0774 15.227 4.7685 14.9014C4.4596 14.5758 4.28606 14.1342 4.28606 13.6737C4.28606 13.2132 4.4596 12.7716 4.7685 12.446L11.7568 5.08847" stroke="#023047" stroke-width="1.2" stroke-linecap="round" stroke-linejoin="round"/>
</svg>
