<svg width="40" height="40" viewBox="0 0 40 40" fill="none" xmlns="http://www.w3.org/2000/svg">
<rect width="40" height="40" rx="5" fill="#023047"/>
<path d="M24.7998 17.6001H25.5998C26.4485 17.6001 27.2624 17.9372 27.8625 18.5374C28.4627 19.1375 28.7998 19.9514 28.7998 20.8001C28.7998 21.6488 28.4627 22.4627 27.8625 23.0628C27.2624 23.663 26.4485 24.0001 25.5998 24.0001H24.7998" stroke="white" stroke-width="1.3" stroke-linecap="round" stroke-linejoin="round"/>
<path d="M12 17.6001H24.8V24.8001C24.8 25.6488 24.4629 26.4627 23.8627 27.0628C23.2626 27.663 22.4487 28.0001 21.6 28.0001H15.2C14.3513 28.0001 13.5374 27.663 12.9373 27.0628C12.3371 26.4627 12 25.6488 12 24.8001V17.6001Z" stroke="white" stroke-width="1.3" stroke-linecap="round" stroke-linejoin="round"/>
<path d="M15.2002 12V14.4" stroke="white" stroke-width="1.3" stroke-linecap="round" stroke-linejoin="round"/>
<path d="M18.4004 12V14.4" stroke="white" stroke-width="1.3" stroke-linecap="round" stroke-linejoin="round"/>
<path d="M21.5996 12V14.4" stroke="white" stroke-width="1.3" stroke-linecap="round" stroke-linejoin="round"/>
</svg>
