<svg width="40" height="40" viewBox="0 0 40 40" fill="none" xmlns="http://www.w3.org/2000/svg">
<rect width="40" height="40" rx="5" fill="#023047"/>
<path d="M26.9091 17.9545C26.9091 23.3636 19.9545 28 19.9545 28C19.9545 28 13 23.3636 13 17.9545C13 16.1101 13.7327 14.3412 15.0369 13.0369C16.3412 11.7327 18.1101 11 19.9545 11C21.799 11 23.5679 11.7327 24.8722 13.0369C26.1764 14.3412 26.9091 16.1101 26.9091 17.9545Z" stroke="white" stroke-width="1.2" stroke-linecap="round" stroke-linejoin="round"/>
<path d="M19.9549 20.2726C21.2352 20.2726 22.2731 19.2347 22.2731 17.9544C22.2731 16.6741 21.2352 15.6362 19.9549 15.6362C18.6746 15.6362 17.6367 16.6741 17.6367 17.9544C17.6367 19.2347 18.6746 20.2726 19.9549 20.2726Z" stroke="white" stroke-width="1.2" stroke-linecap="round" stroke-linejoin="round"/>
</svg>
